Tillana_0.ufo
<glyph name="exclam" format="1">
  <advance width="285"/>
  <unicode hex="0021"/>
  <outline>
    <contour>
      <point x="230" y="631" type="line"/>
      <point x="301" y="832" type="line"/>
      <point x="269" y="866"/>
      <point x="244" y="867"/>
      <point x="194" y="860" type="curve"/>
      <point x="136" y="389" type="line"/>
      <point x="96" y="202" type="line"/>
      <point x="108" y="193"/>
      <point x="128" y="189"/>
      <point x="139" y="198" type="curve"/>
    </contour>
    <contour>
      <point x="160" y="52" type="curve"/>
      <point x="157" y="84"/>
      <point x="129" y="121"/>
      <point x="105" y="121" type="curve"/>
      <point x="71" y="117"/>
      <point x="30" y="75"/>
      <point x="23" y="39" type="curve"/>
      <point x="25" y="14"/>
      <point x="42" y="-3"/>
      <point x="65" y="-3" type="curve"/>
      <point x="94" y="-3"/>
      <point x="137" y="22"/>
    </contour>
  </outline>
</glyph>
<glyph name="numbersign" format="1">
  <advance width="675"/>
  <unicode hex="0023"/>
  <outline>
    <contour>
      <point x="314" y="597" type="line"/>
      <point x="395" y="843" type="line"/>
      <point x="365" y="866"/>
      <point x="338" y="870"/>
      <point x="297" y="863" type="curve"/>
      <point x="224" y="446" type="line"/>
      <point x="121" y="-1" type="line"/>
      <point x="150" y="-24"/>
      <point x="186" y="-28"/>
      <point x="207" y="-21" type="curve"/>
      <point x="245" y="273" type="line"/>
    </contour>
    <contour>
      <point x="541" y="597" type="line"/>
      <point x="622" y="843" type="line"/>
      <point x="592" y="866"/>
      <point x="565" y="870"/>
      <point x="524" y="863" type="curve"/>
      <point x="450" y="446" type="line"/>
      <point x="348" y="-1" type="line"/>
      <point x="377" y="-24"/>
      <point x="413" y="-28"/>
      <point x="434" y="-21" type="curve"/>
      <point x="472" y="273" type="line"/>
    </contour>
    <contour>
      <point x="336" y="281" type="line"/>
      <point x="64" y="292" type="line"/>
      <point x="45" y="266"/>
      <point x="43" y="247"/>
      <point x="58" y="233" type="curve"/>
      <point x="613" y="241" type="line"/>
      <point x="637" y="270"/>
      <point x="638" y="293"/>
      <point x="623" y="302" type="curve"/>
    </contour>
    <contour>
      <point x="387" y="616" type="line"/>
      <point x="114" y="626" type="line"/>
      <point x="97" y="600"/>
      <point x="94" y="582"/>
      <point x="110" y="568" type="curve"/>
      <point x="665" y="576" type="line"/>
      <point x="688" y="605"/>
      <point x="690" y="627"/>
      <point x="674" y="637" type="curve"/>
    </contour>
  </outline>
</glyph>
<glyph name="dollar" format="1">
  <advance width="565"/>
  <unicode hex="0024"/>
  <outline>
    <contour>
      <point x="237" y="122" type="line"/>
      <point x="166" y="-92" type="line"/>
      <point x="181" y="-123"/>
      <point x="208" y="-137"/>
      <point x="241" y="-129" type="curve"/>
      <point x="369" y="631" type="line"/>
      <point x="444" y="831" type="line"/>
      <point x="430" y="861"/>
      <point x="406" y="872"/>
      <point x="373" y="861" type="curve"/>
    </contour>
    <component base="S"/>
  </outline>
</glyph>
<glyph name="percent" format="1">
  <advance width="657"/>
  <unicode hex="0025"/>
  <outline>
    <contour>
      <point x="226" y="728" type="curve" smooth="yes"/>
      <point x="160" y="729"/>
      <point x="97" y="639"/>
      <point x="76" y="518" type="curve" smooth="yes"/>
      <point x="52" y="370"/>
      <point x="121" y="318"/>
      <point x="170" y="318" type="curve" smooth="yes"/>
      <point x="238" y="318"/>
      <point x="298" y="393"/>
      <point x="321" y="526" type="curve" smooth="yes"/>
      <point x="345" y="663"/>
      <point x="283" y="727"/>
    </contour>
    <contour>
      <point x="222" y="689" type="curve"/>
      <point x="239" y="684"/>
      <point x="256" y="670"/>
      <point x="262" y="649" type="curve"/>
      <point x="266" y="615"/>
      <point x="264" y="579"/>
      <point x="254" y="519" type="curve" smooth="yes"/>
      <point x="240" y="444"/>
      <point x="213" y="382"/>
      <point x="175" y="353" type="curve"/>
      <point x="159" y="360"/>
      <point x="141" y="374"/>
      <point x="135" y="394" type="curve"/>
      <point x="132" y="429"/>
      <point x="133" y="464"/>
      <point x="144" y="524" type="curve" smooth="yes"/>
      <point x="157" y="598"/>
      <point x="184" y="661"/>
    </contour>
    <contour>
      <point x="517" y="405" type="curve" smooth="yes"/>
      <point x="451" y="406"/>
      <point x="389" y="316"/>
      <point x="367" y="195" type="curve" smooth="yes"/>
      <point x="343" y="48"/>
      <point x="413" y="-5"/>
      <point x="461" y="-5" type="curve" smooth="yes"/>
      <point x="529" y="-5"/>
      <point x="590" y="70"/>
      <point x="612" y="203" type="curve" smooth="yes"/>
      <point x="636" y="340"/>
      <point x="575" y="404"/>
    </contour>
    <contour>
      <point x="514" y="366" type="curve"/>
      <point x="530" y="361"/>
      <point x="548" y="347"/>
      <point x="554" y="326" type="curve"/>
      <point x="557" y="292"/>
      <point x="555" y="256"/>
      <point x="545" y="197" type="curve" smooth="yes"/>
      <point x="531" y="121"/>
      <point x="504" y="59"/>
      <point x="467" y="30" type="curve"/>
      <point x="450" y="37"/>
      <point x="433" y="51"/>
      <point x="427" y="71" type="curve"/>
      <point x="423" y="106"/>
      <point x="424" y="141"/>
      <point x="435" y="201" type="curve" smooth="yes"/>
      <point x="448" y="275"/>
      <point x="475" y="338"/>
    </contour>
    <component base="fraction" xOffset="84"/>
  </outline>
</glyph>
<glyph name="ampersand" format="1">
  <advance width="603"/>
  <unicode hex="0026"/>
  <outline>
    <contour>
      <point x="552" y="199" type="curve"/>
      <point x="562" y="232"/>
      <point x="540" y="262"/>
      <point x="499" y="251" type="curve"/>
      <point x="459" y="202"/>
      <point x="389" y="160"/>
      <point x="300" y="133" type="curve"/>
      <point x="242" y="148"/>
      <point x="192" y="187"/>
      <point x="177" y="240" type="curve"/>
      <point x="234" y="326"/>
      <point x="311" y="350"/>
      <point x="422" y="364" type="curve"/>
      <point x="429" y="393"/>
      <point x="429" y="413"/>
      <point x="402" y="429" type="curve"/>
      <point x="379" y="422"/>
      <point x="359" y="415"/>
      <point x="321" y="408" type="curve"/>
      <point x="260" y="426"/>
      <point x="227" y="446"/>
      <point x="200" y="488" type="curve"/>
      <point x="248" y="548"/>
      <point x="312" y="604"/>
      <point x="424" y="607" type="curve"/>
      <point x="485" y="525" type="line"/>
      <point x="537" y="534"/>
      <point x="550" y="552"/>
      <point x="550" y="575" type="curve"/>
      <point x="524" y="615"/>
      <point x="474" y="650"/>
      <point x="411" y="650" type="curve" smooth="yes"/>
      <point x="300" y="650"/>
      <point x="192" y="597"/>
      <point x="114" y="488" type="curve"/>
      <point x="124" y="440"/>
      <point x="186" y="393"/>
      <point x="269" y="376" type="curve"/>
      <point x="189" y="351"/>
      <point x="138" y="322"/>
      <point x="92" y="229" type="curve"/>
      <point x="110" y="177"/>
      <point x="177" y="104"/>
      <point x="298" y="81" type="curve"/>
      <point x="408" y="108"/>
      <point x="485" y="146"/>
    </contour>
    <contour>
      <point x="413" y="705" type="curve"/>
      <point x="450" y="859" type="line"/>
      <point x="424" y="878"/>
      <point x="407" y="876"/>
      <point x="369" y="855" type="curve"/>
      <point x="370" y="708" type="line"/>
      <point x="380" y="701"/>
      <point x="392" y="700"/>
    </contour>
    <contour>
      <point x="278" y="14" type="curve"/>
      <point x="240" y="-139" type="line"/>
      <point x="267" y="-158"/>
      <point x="285" y="-156"/>
      <point x="321" y="-136" type="curve"/>
      <point x="320" y="11" type="line"/>
      <point x="310" y="18"/>
      <point x="298" y="19"/>
    </contour>
  </outline>
</glyph>
<glyph name="quotesingle" format="1">
  <advance width="174"/>
  <unicode hex="0027"/>
  <outline>
    <contour>
      <point x="125" y="673" type="line"/>
      <point x="133" y="664"/>
      <point x="147" y="660"/>
      <point x="164" y="662" type="curve"/>
      <point x="216" y="816" type="line"/>
      <point x="228" y="892" type="line"/>
      <point x="215" y="904"/>
      <point x="190" y="905"/>
      <point x="170" y="892" type="curve"/>
    </contour>
  </outline>
</glyph>
<glyph name="comma" format="1">
  <advance width="205"/>
  <unicode hex="002C"/>
  <outline>
    <contour>
      <point x="134" y="42" type="curve"/>
      <point x="125" y="95"/>
      <point x="79" y="132"/>
      <point x="26" y="103" type="curve"/>
      <point x="26" y="-26" type="line"/>
      <point x="-53" y="-106" type="line"/>
      <point x="-46" y="-119"/>
      <point x="-32" y="-126"/>
      <point x="-19" y="-129" type="curve"/>
      <point x="35" y="-96"/>
      <point x="111" y="-29"/>
    </contour>
  </outline>
</glyph>
<glyph name="hyphen" format="1">
  <advance width="497"/>
  <unicode hex="002D"/>
  <outline>
    <contour>
      <point x="458" y="367" type="curve"/>
      <point x="255" y="352" type="line"/>
      <point x="70" y="356" type="line"/>
      <point x="50" y="330"/>
      <point x="45" y="305"/>
      <point x="59" y="291" type="curve"/>
      <point x="443" y="298" type="line"/>
      <point x="469" y="327"/>
      <point x="473" y="357"/>
    </contour>
  </outline>
</glyph>
<glyph name="period" format="1">
  <advance width="221"/>
  <unicode hex="002E"/>
  <outline>
    <contour>
      <point x="44" y="0" type="curve"/>
      <point x="73" y="0"/>
      <point x="114" y="25"/>
      <point x="134" y="55" type="curve"/>
      <point x="127" y="87"/>
      <point x="95" y="124"/>
      <point x="71" y="124" type="curve"/>
      <point x="38" y="120"/>
      <point x="1" y="78"/>
      <point x="-2" y="42" type="curve"/>
      <point x="2" y="17"/>
      <point x="22" y="0"/>
    </contour>
  </outline>
</glyph>
<glyph name="one" format="1">
  <advance width="319"/>
  <unicode hex="0031"/>
  <outline>
    <contour>
      <point x="257" y="528" type="line"/>
      <point x="318" y="691" type="line"/>
      <point x="286" y="731"/>
      <point x="254" y="746"/>
      <point x="184" y="733" type="curve"/>
      <point x="99" y="554" type="line"/>
      <point x="104" y="540"/>
      <point x="124" y="538"/>
      <point x="146" y="545" type="curve"/>
      <point x="215" y="650" type="line"/>
      <point x="228" y="646" type="line"/>
      <point x="208" y="584" type="line"/>
      <point x="80" y="18" type="line"/>
      <point x="110" y="0"/>
      <point x="134" y="-6"/>
      <point x="166" y="-1" type="curve"/>
      <point x="179" y="176" type="line"/>
    </contour>
  </outline>
</glyph>
<glyph name="two" format="1">
  <advance width="478"/>
  <unicode hex="0032"/>
  <outline>
    <contour>
      <point x="312" y="274" type="line" smooth="yes"/>
      <point x="414" y="360"/>
      <point x="471" y="431"/>
      <point x="471" y="494" type="curve" smooth="yes"/>
      <point x="471" y="606"/>
      <point x="391" y="744"/>
      <point x="295" y="744" type="curve" smooth="yes"/>
      <point x="214" y="744"/>
      <point x="132" y="679"/>
      <point x="87" y="588" type="curve"/>
      <point x="109" y="555"/>
      <point x="138" y="525"/>
      <point x="164" y="504" type="curve"/>
      <point x="181" y="507"/>
      <point x="195" y="511"/>
      <point x="205" y="528" type="curve"/>
      <point x="165" y="607" type="line"/>
      <point x="197" y="651"/>
      <point x="235" y="679"/>
      <point x="276" y="679" type="curve" smooth="yes"/>
      <point x="340" y="679"/>
      <point x="384" y="598"/>
      <point x="402" y="490" type="curve"/>
      <point x="362" y="417"/>
      <point x="319" y="366"/>
      <point x="254" y="308" type="curve" smooth="yes"/>
      <point x="1" y="83" type="line"/>
      <point x="0" y="43"/>
      <point x="18" y="12"/>
      <point x="46" y="-3" type="curve"/>
      <point x="112" y="13" type="line"/>
      <point x="380" y="-6" type="line"/>
      <point x="401" y="14"/>
      <point x="416" y="53"/>
      <point x="405" y="77" type="curve"/>
      <point x="75" y="64" type="line"/>
      <point x="69" y="70" type="line"/>
    </contour>
  </outline>
</glyph>
<glyph name="five" format="1">
  <advance width="540"/>
  <unicode hex="0035"/>
  <outline>
    <contour>
      <point x="269" y="712" type="line"/>
      <point x="221" y="728" type="line" smooth="yes"/>
      <point x="194" y="718"/>
      <point x="179" y="694"/>
      <point x="167" y="644" type="curve" smooth="yes"/>
      <point x="123" y="460" type="line" smooth="yes"/>
      <point x="110" y="406"/>
      <point x="125" y="386"/>
      <point x="171" y="379" type="curve" smooth="yes"/>
      <point x="293" y="361" type="line" smooth="yes"/>
      <point x="361" y="351"/>
      <point x="392" y="328"/>
      <point x="409" y="285" type="curve"/>
      <point x="394" y="188"/>
      <point x="338" y="104"/>
      <point x="246" y="48" type="curve"/>
      <point x="79" y="124" type="line"/>
      <point x="56" y="117"/>
      <point x="42" y="86"/>
      <point x="44" y="41" type="curve"/>
      <point x="98" y="14"/>
      <point x="162" y="0"/>
      <point x="221" y="0" type="curve" smooth="yes"/>
      <point x="337" y="0"/>
      <point x="467" y="164"/>
      <point x="467" y="286" type="curve" smooth="yes"/>
      <point x="467" y="379"/>
      <point x="402" y="419"/>
      <point x="276" y="427" type="curve" smooth="yes"/>
      <point x="166" y="432" type="line"/>
      <point x="265" y="663" type="line"/>
      <point x="522" y="656" type="line"/>
      <point x="539" y="677"/>
      <point x="531" y="714"/>
      <point x="500" y="740" type="curve" smooth="yes"/>
    </contour>
  </outline>
</glyph>
<glyph name="six" format="1">
  <advance width="571"/>
  <unicode hex="0036"/>
  <outline>
    <contour>
      <point x="545" y="738" type="curve"/>
      <point x="335" y="756"/>
      <point x="126" y="621"/>
      <point x="81" y="327" type="curve" smooth="yes"/>
      <point x="41" y="66"/>
      <point x="183" y="-6"/>
      <point x="282" y="-3" type="curve" smooth="yes"/>
      <point x="380" y="0"/>
      <point x="505" y="177"/>
      <point x="528" y="303" type="curve" smooth="yes"/>
      <point x="551" y="430"/>
      <point x="508" y="476"/>
      <point x="419" y="476" type="curve" smooth="yes"/>
      <point x="330" y="476"/>
      <point x="212" y="340"/>
      <point x="134" y="90" type="curve"/>
      <point x="175" y="93" type="line"/>
      <point x="206" y="203"/>
      <point x="298" y="346"/>
      <point x="390" y="411" type="curve"/>
      <point x="467" y="411"/>
      <point x="468" y="352"/>
      <point x="451" y="279" type="curve" smooth="yes"/>
      <point x="435" y="200"/>
      <point x="340" y="62"/>
      <point x="281" y="58" type="curve" smooth="yes"/>
      <point x="178" y="53"/>
      <point x="130" y="166"/>
      <point x="146" y="302" type="curve"/>
      <point x="175" y="465"/>
      <point x="221" y="526"/>
      <point x="295" y="623" type="curve"/>
      <point x="363" y="658"/>
      <point x="434" y="667"/>
      <point x="539" y="661" type="curve"/>
      <point x="557" y="697"/>
      <point x="559" y="721"/>
    </contour>
  </outline>
</glyph>
<glyph name="seven" format="1">
  <advance width="454"/>
  <unicode hex="0037"/>
  <outline>
    <contour>
      <point x="451" y="732" type="curve"/>
      <point x="404" y="716" type="line"/>
      <point x="97" y="740" type="line"/>
      <point x="72" y="708"/>
      <point x="60" y="675"/>
      <point x="76" y="656" type="curve"/>
      <point x="417" y="664" type="line"/>
      <point x="420" y="659" type="line"/>
      <point x="346" y="540" type="line"/>
      <point x="65" y="10" type="line"/>
      <point x="87" y="-5"/>
      <point x="109" y="-9"/>
      <point x="127" y="2" type="curve"/>
      <point x="481" y="632" type="line" smooth="yes"/>
      <point x="505" y="677"/>
      <point x="495" y="712"/>
    </contour>
  </outline>
</glyph>
<glyph name="colon" format="1">
  <advance width="241"/>
  <unicode hex="003A"/>
  <outline>
    <contour>
      <point x="65" y="0" type="curve"/>
      <point x="94" y="0"/>
      <point x="135" y="25"/>
      <point x="154" y="55" type="curve"/>
      <point x="148" y="87"/>
      <point x="116" y="124"/>
      <point x="92" y="124" type="curve"/>
      <point x="58" y="120"/>
      <point x="22" y="78"/>
      <point x="18" y="42" type="curve"/>
      <point x="23" y="17"/>
      <point x="42" y="0"/>
    </contour>
    <contour>
      <point x="119" y="362" type="curve"/>
      <point x="148" y="362"/>
      <point x="189" y="387"/>
      <point x="208" y="417" type="curve"/>
      <point x="202" y="449"/>
      <point x="170" y="486"/>
      <point x="146" y="486" type="curve"/>
      <point x="112" y="482"/>
      <point x="76" y="440"/>
      <point x="72" y="404" type="curve"/>
      <point x="77" y="379"/>
      <point x="96" y="362"/>
    </contour>
  </outline>
</glyph>
<glyph name="semicolon" format="1">
  <advance width="233"/>
  <unicode hex="003B"/>
  <outline>
    <contour>
      <point x="77" y="379"/>
      <point x="96" y="362"/>
      <point x="119" y="362" type="curve"/>
      <point x="148" y="362"/>
      <point x="189" y="387"/>
      <point x="208" y="417" type="curve"/>
      <point x="202" y="449"/>
      <point x="170" y="486"/>
      <point x="146" y="486" type="curve"/>
      <point x="112" y="482"/>
      <point x="76" y="440"/>
      <point x="72" y="404" type="curve"/>
    </contour>
    <contour>
      <point x="45" y="-96"/>
      <point x="122" y="-29"/>
      <point x="145" y="42" type="curve"/>
      <point x="136" y="95"/>
      <point x="90" y="132"/>
      <point x="37" y="103" type="curve"/>
      <point x="37" y="-26" type="line"/>
      <point x="-42" y="-106" type="line"/>
      <point x="-36" y="-119"/>
      <point x="-22" y="-126"/>
      <point x="-9" y="-129" type="curve"/>
    </contour>
  </outline>
</glyph>
<glyph name="equal" format="1">
  <advance width="630"/>
  <unicode hex="003D"/>
  <outline>
    <contour>
      <point x="596" y="475" type="curve"/>
      <point x="350" y="460" type="line"/>
      <point x="100" y="464" type="line"/>
      <point x="80" y="438"/>
      <point x="76" y="413"/>
      <point x="90" y="399" type="curve"/>
      <point x="581" y="406" type="line"/>
      <point x="607" y="435"/>
      <point x="611" y="465"/>
    </contour>
    <contour>
      <point x="565" y="283" type="curve"/>
      <point x="319" y="268" type="line"/>
      <point x="69" y="272" type="line"/>
      <point x="49" y="246"/>
      <point x="44" y="220"/>
      <point x="58" y="206" type="curve"/>
      <point x="550" y="214" type="line"/>
      <point x="576" y="243"/>
      <point x="580" y="273"/>
    </contour>
  </outline>
</glyph>
<glyph name="greater" format="1">
  <advance width="593"/>
  <unicode hex="003E"/>
  <outline>
    <contour>
      <point x="112" y="537" type="curve"/>
      <point x="287" y="453" type="line"/>
      <point x="483" y="337" type="line"/>
      <point x="73" y="171" type="line"/>
      <point x="60" y="147"/>
      <point x="67" y="113"/>
      <point x="90" y="98" type="curve"/>
      <point x="302" y="198" type="line"/>
      <point x="537" y="300" type="line"/>
      <point x="551" y="323"/>
      <point x="555" y="345"/>
      <point x="549" y="369" type="curve"/>
      <point x="156" y="589" type="line"/>
      <point x="131" y="582"/>
      <point x="114" y="559"/>
    </contour>
  </outline>
</glyph>
<glyph name="question" format="1">
  <advance width="648"/>
  <unicode hex="003F"/>
  <outline>
    <contour>
      <point x="257" y="409" type="line"/>
      <point x="439" y="453"/>
      <point x="578" y="516"/>
      <point x="625" y="647" type="curve" smooth="yes"/>
      <point x="664" y="760"/>
      <point x="618" y="848"/>
      <point x="513" y="848" type="curve" smooth="yes"/>
      <point x="410" y="848"/>
      <point x="285" y="800"/>
      <point x="172" y="712" type="curve"/>
      <point x="158" y="644"/>
      <point x="198" y="582"/>
      <point x="214" y="582" type="curve" smooth="yes"/>
      <point x="223" y="582"/>
      <point x="233" y="585"/>
      <point x="246" y="591" type="curve"/>
      <point x="233" y="681" type="line"/>
      <point x="323" y="747"/>
      <point x="432" y="790"/>
      <point x="537" y="794" type="curve"/>
      <point x="577" y="757"/>
      <point x="581" y="717"/>
      <point x="567" y="672" type="curve" smooth="yes"/>
      <point x="531" y="571"/>
      <point x="412" y="502"/>
      <point x="238" y="468" type="curve"/>
      <point x="215" y="454"/>
      <point x="189" y="428"/>
      <point x="180" y="400" type="curve"/>
      <point x="178" y="186" type="line" smooth="yes"/>
      <point x="178" y="165"/>
      <point x="184" y="157"/>
      <point x="215" y="166" type="curve"/>
    </contour>
    <contour>
      <point x="158" y="-3" type="curve" smooth="yes"/>
      <point x="187" y="-3"/>
      <point x="230" y="22"/>
      <point x="253" y="52" type="curve"/>
      <point x="250" y="84"/>
      <point x="222" y="121"/>
      <point x="198" y="121" type="curve"/>
      <point x="164" y="117"/>
      <point x="123" y="75"/>
      <point x="116" y="39" type="curve"/>
      <point x="118" y="14"/>
      <point x="135" y="-3"/>
    </contour>
  </outline>
</glyph>
<glyph name="at" format="1">
  <advance width="900"/>
  <unicode hex="0040"/>
  <outline>
    <contour>
      <point x="554" y="242" type="line"/>
      <point x="498" y="189"/>
      <point x="441" y="134"/>
      <point x="378" y="72" type="curve"/>
      <point x="334" y="98"/>
      <point x="322" y="132"/>
      <point x="322" y="181" type="curve" smooth="yes"/>
      <point x="322" y="319"/>
      <point x="387" y="440"/>
      <point x="503" y="487" type="curve"/>
      <point x="548" y="457"/>
      <point x="567" y="432"/>
      <point x="588" y="389" type="curve"/>
      <point x="621" y="411" type="line"/>
      <point x="599" y="467"/>
      <point x="555" y="519"/>
      <point x="507" y="540" type="curve"/>
      <point x="375" y="540"/>
      <point x="243" y="346"/>
      <point x="246" y="175" type="curve" smooth="yes"/>
      <point x="247" y="80"/>
      <point x="301" y="15"/>
      <point x="406" y="13" type="curve"/>
      <point x="464" y="82"/>
      <point x="534" y="154"/>
      <point x="575" y="212" type="curve"/>
    </contour>
    <contour>
      <point x="402" y="-114" type="curve"/>
      <point x="255" y="-73"/>
      <point x="98" y="31"/>
      <point x="98" y="233" type="curve" smooth="yes"/>
      <point x="98" y="460"/>
      <point x="298" y="673"/>
      <point x="568" y="694" type="curve"/>
      <point x="757" y="621"/>
      <point x="816" y="525"/>
      <point x="832" y="341" type="curve"/>
      <point x="802" y="224"/>
      <point x="701" y="129"/>
      <point x="579" y="70" type="curve"/>
      <point x="595" y="70" type="line"/>
      <point x="610" y="168"/>
      <point x="626" y="267"/>
      <point x="642" y="365" type="curve"/>
      <point x="718" y="514" type="line"/>
      <point x="697" y="539"/>
      <point x="678" y="548"/>
      <point x="623" y="546" type="curve"/>
      <point x="615" y="526"/>
      <point x="609" y="496"/>
      <point x="607" y="447" type="curve"/>
      <point x="588" y="389" type="line"/>
      <point x="554" y="242" type="line"/>
      <point x="535" y="164" type="line"/>
      <point x="548" y="154" type="line"/>
      <point x="532" y="106"/>
      <point x="539" y="73"/>
      <point x="579" y="32" type="curve"/>
      <point x="733" y="80"/>
      <point x="883" y="213"/>
      <point x="883" y="363" type="curve" smooth="yes"/>
      <point x="883" y="551"/>
      <point x="742" y="737"/>
      <point x="546" y="737" type="curve" smooth="yes"/>
      <point x="293" y="737"/>
      <point x="23" y="510"/>
      <point x="23" y="243" type="curve" smooth="yes"/>
      <point x="23" y="24"/>
      <point x="195" y="-120"/>
      <point x="406" y="-162" type="curve"/>
      <point x="487" y="-138"/>
      <point x="568" y="-104"/>
      <point x="611" y="-55" type="curve"/>
      <point x="611" y="-26"/>
      <point x="604" y="-10"/>
      <point x="566" y="-11" type="curve"/>
      <point x="530" y="-49"/>
      <point x="467" y="-90"/>
    </contour>
  </outline>
</glyph>
<glyph name="B" format="1">
  <advance width="585"/>
  <unicode hex="0042"/>
  <outline>
    <contour>
      <point x="473" y="546" type="curve" smooth="yes"/>
      <point x="472" y="464"/>
      <point x="456" y="460"/>
      <point x="409" y="420" type="curve"/>
      <point x="348" y="393"/>
      <point x="288" y="386"/>
      <point x="207" y="387" type="curve"/>
      <point x="257" y="673" type="line"/>
      <point x="402" y="685"/>
      <point x="473" y="620"/>
    </contour>
    <contour>
      <point x="157" y="55" type="curve"/>
      <point x="203" y="337" type="line"/>
      <point x="334" y="350"/>
      <point x="394" y="334"/>
      <point x="453" y="282" type="curve"/>
      <point x="458" y="266"/>
      <point x="460" y="249"/>
      <point x="460" y="233" type="curve" smooth="yes"/>
      <point x="459" y="178"/>
      <point x="446" y="137"/>
      <point x="402" y="86" type="curve"/>
      <point x="336" y="63"/>
      <point x="240" y="54"/>
    </contour>
    <contour>
      <point x="430" y="368" type="line"/>
      <point x="518" y="418"/>
      <point x="555" y="455"/>
      <point x="556" y="551" type="curve" smooth="yes"/>
      <point x="556" y="644"/>
      <point x="461" y="735"/>
      <point x="284" y="735" type="curve" smooth="yes"/>
      <point x="227" y="735"/>
      <point x="183" y="731"/>
      <point x="131" y="720" type="curve"/>
      <point x="119" y="702"/>
      <point x="118" y="674"/>
      <point x="148" y="654" type="curve"/>
      <point x="184" y="662" type="line"/>
      <point x="149" y="435" type="line"/>
      <point x="127" y="315"/>
      <point x="106" y="224"/>
      <point x="65" y="70" type="curve"/>
      <point x="70" y="35"/>
      <point x="95" y="15"/>
      <point x="147" y="0" type="curve"/>
      <point x="247" y="-5"/>
      <point x="348" y="1"/>
      <point x="461" y="41" type="curve"/>
      <point x="523" y="109"/>
      <point x="541" y="177"/>
      <point x="541" y="238" type="curve" smooth="yes"/>
      <point x="541" y="262"/>
      <point x="536" y="287"/>
      <point x="525" y="310" type="curve"/>
      <point x="498" y="332"/>
      <point x="464" y="351"/>
      <point x="429" y="361" type="curve"/>
    </contour>
  </outline>
</glyph>
<glyph name="C" format="1">
  <advance width="580"/>
  <unicode hex="0043"/>
  <outline>
    <contour>
      <point x="383" y="796" type="move" name="top"/>
    </contour>
    <contour>
      <point x="325" y="0" type="move" name="bottom"/>
    </contour>
    <contour>
      <point x="416" y="679" type="line"/>
      <point x="453" y="637"/>
      <point x="462" y="596"/>
      <point x="468" y="536" type="curve"/>
      <point x="498" y="525"/>
      <point x="531" y="531"/>
      <point x="564" y="557" type="curve"/>
      <point x="559" y="626"/>
      <point x="514" y="713"/>
      <point x="431" y="744" type="curve"/>
      <point x="264" y="716"/>
      <point x="164" y="605"/>
      <point x="108" y="535" type="curve"/>
      <point x="65" y="456"/>
      <point x="42" y="387"/>
      <point x="42" y="318" type="curve" smooth="yes"/>
      <point x="44" y="164"/>
      <point x="111" y="51"/>
      <point x="307" y="0" type="curve"/>
      <point x="390" y="35"/>
      <point x="487" y="97"/>
      <point x="526" y="147" type="curve"/>
      <point x="528" y="168"/>
      <point x="511" y="197"/>
      <point x="478" y="189" type="curve"/>
      <point x="443" y="147"/>
      <point x="368" y="92"/>
      <point x="296" y="62" type="curve"/>
      <point x="174" y="108"/>
      <point x="116" y="178"/>
      <point x="116" y="319" type="curve" smooth="yes"/>
      <point x="116" y="473"/>
      <point x="246" y="639"/>
      <point x="401" y="678" type="curve"/>
    </contour>
  </outline>
</glyph>
<glyph name="D" format="1">
  <advance width="618"/>
  <unicode hex="0044"/>
  <outline>
    <contour>
      <point x="323" y="796" type="move" name="top"/>
    </contour>
    <contour>
      <point x="134" y="0" type="curve"/>
      <point x="225" y="1"/>
      <point x="306" y="16"/>
      <point x="381" y="41" type="curve"/>
      <point x="532" y="125"/>
      <point x="606" y="259"/>
      <point x="603" y="413" type="curve" smooth="yes"/>
      <point x="599" y="596"/>
      <point x="486" y="735"/>
      <point x="285" y="735" type="curve" smooth="yes"/>
      <point x="204" y="735"/>
      <point x="160" y="731"/>
      <point x="108" y="720" type="curve"/>
      <point x="96" y="702"/>
      <point x="95" y="674"/>
      <point x="125" y="654" type="curve"/>
      <point x="161" y="662" type="line"/>
      <point x="159" y="499" type="line"/>
      <point x="129" y="329"/>
      <point x="100" y="227"/>
      <point x="50" y="62" type="curve"/>
      <point x="63" y="28"/>
      <point x="89" y="12"/>
    </contour>
    <contour>
      <point x="93" y="71" type="curve"/>
      <point x="146" y="43" type="line"/>
      <point x="189" y="355" type="line"/>
      <point x="207" y="443"/>
      <point x="237" y="575"/>
      <point x="266" y="705" type="curve"/>
      <point x="207" y="658" type="line"/>
      <point x="409" y="703"/>
      <point x="517" y="572"/>
      <point x="521" y="402" type="curve" smooth="yes"/>
      <point x="523" y="275"/>
      <point x="476" y="177"/>
      <point x="357" y="92" type="curve"/>
      <point x="261" y="68"/>
      <point x="191" y="71"/>
    </contour>
  </outline>
</glyph>
<glyph name="F" format="1">
  <advance width="500"/>
  <unicode hex="0046"/>
  <outline>
    <contour>
      <point x="264" y="662" type="line"/>
      <point x="337" y="670"/>
      <point x="394" y="664"/>
      <point x="438" y="657" type="curve"/>
      <point x="501" y="616" type="line"/>
      <point x="536" y="645"/>
      <point x="553" y="710"/>
      <point x="526" y="729" type="curve"/>
      <point x="352" y="731"/>
      <point x="249" y="727"/>
      <point x="135" y="716" type="curve"/>
      <point x="124" y="705"/>
      <point x="124" y="685"/>
      <point x="135" y="665" type="curve"/>
      <point x="152" y="664"/>
      <point x="170" y="661"/>
      <point x="181" y="654" type="curve"/>
      <point x="173" y="518" type="line"/>
      <point x="143" y="354"/>
      <point x="120" y="222"/>
      <point x="68" y="28" type="curve"/>
      <point x="89" y="2"/>
      <point x="136" y="-5"/>
      <point x="162" y="3" type="curve"/>
      <point x="175" y="127"/>
      <point x="187" y="221"/>
      <point x="200" y="314" type="curve"/>
      <point x="271" y="318"/>
      <point x="342" y="313"/>
      <point x="415" y="308" type="curve"/>
      <point x="435" y="338"/>
      <point x="437" y="373"/>
      <point x="428" y="391" type="curve"/>
      <point x="369" y="382"/>
      <point x="294" y="380"/>
      <point x="211" y="372" type="curve"/>
      <point x="235" y="553" type="line"/>
    </contour>
  </outline>
</glyph>
<glyph name="G" format="1">
  <advance width="616"/>
  <unicode hex="0047"/>
  <outline>
    <contour>
      <point x="519" y="247" type="line"/>
      <point x="505" y="181"/>
      <point x="460" y="85"/>
      <point x="431" y="26" type="curve"/>
      <point x="442" y="6"/>
      <point x="470" y="-2"/>
      <point x="498" y="0" type="curve"/>
      <point x="554" y="168"/>
      <point x="595" y="284"/>
      <point x="553" y="366" type="curve"/>
      <point x="476" y="354"/>
      <point x="383" y="356"/>
      <point x="326" y="366" type="curve"/>
      <point x="300" y="348"/>
      <point x="306" y="315"/>
      <point x="328" y="287" type="curve"/>
      <point x="494" y="315" type="line"/>
      <point x="498" y="310" type="line"/>
      <point x="453" y="211"/>
      <point x="380" y="124"/>
      <point x="309" y="62" type="curve"/>
      <point x="187" y="116"/>
      <point x="129" y="162"/>
      <point x="129" y="306" type="curve" smooth="yes"/>
      <point x="129" y="473"/>
      <point x="259" y="637"/>
      <point x="414" y="676" type="curve"/>
      <point x="429" y="677" type="line"/>
      <point x="465" y="635"/>
      <point x="475" y="594"/>
      <point x="481" y="534" type="curve"/>
      <point x="511" y="523"/>
      <point x="544" y="529"/>
      <point x="577" y="555" type="curve"/>
      <point x="572" y="624"/>
      <point x="527" y="711"/>
      <point x="444" y="742" type="curve"/>
      <point x="276" y="714"/>
      <point x="177" y="613"/>
      <point x="121" y="522" type="curve"/>
      <point x="89" y="464"/>
      <point x="54" y="374"/>
      <point x="55" y="305" type="curve" smooth="yes"/>
      <point x="57" y="148"/>
      <point x="124" y="58"/>
      <point x="320" y="0" type="curve"/>
      <point x="411" y="63"/>
      <point x="476" y="160"/>
      <point x="511" y="249" type="curve"/>
    </contour>
    <contour>
      <point x="458" y="796" type="move" name="top"/>
    </contour>
    <contour>
      <point x="325" y="0" type="move" name="bottom"/>
    </contour>
  </outline>
</glyph>
<glyph name="I" format="1">
  <advance width="225"/>
  <unicode hex="0049"/>
  <outline>
    <contour>
      <point x="114" y="0" type="move" name="ogonek"/>
    </contour>
    <contour>
      <point x="194" y="796" type="move" name="top"/>
    </contour>
    <contour>
      <point x="122" y="497" type="line"/>
      <point x="91" y="302"/>
      <point x="68" y="217"/>
      <point x="23" y="31" type="curve"/>
      <point x="40" y="2"/>
      <point x="77" y="-4"/>
      <point x="118" y="0" type="curve"/>
      <point x="134" y="154"/>
      <point x="158" y="299"/>
      <point x="167" y="401" type="curve"/>
      <point x="242" y="726" type="line"/>
      <point x="229" y="732"/>
      <point x="218" y="735"/>
      <point x="206" y="735" type="curve" smooth="yes"/>
      <point x="186" y="735"/>
      <point x="165" y="727"/>
      <point x="137" y="710" type="curve"/>
    </contour>
  </outline>
</glyph>
<glyph name="J" format="1">
  <advance width="532"/>
  <unicode hex="004A"/>
  <outline>
    <contour>
      <point x="124" y="715" type="curve"/>
      <point x="111" y="698"/>
      <point x="109" y="681"/>
      <point x="133" y="657" type="curve"/>
      <point x="350" y="676" type="line"/>
      <point x="588" y="660" type="line"/>
      <point x="613" y="683"/>
      <point x="617" y="710"/>
      <point x="603" y="721" type="curve"/>
      <point x="415" y="728"/>
      <point x="298" y="724"/>
    </contour>
    <contour>
      <point x="336" y="389" type="curve"/>
      <point x="410" y="703" type="line"/>
      <point x="388" y="715"/>
      <point x="356" y="713"/>
      <point x="309" y="688" type="curve"/>
      <point x="299" y="505" type="line"/>
      <point x="269" y="333"/>
      <point x="242" y="221"/>
      <point x="208" y="67" type="curve"/>
      <point x="194" y="60" type="line"/>
      <point x="147" y="103"/>
      <point x="114" y="160"/>
      <point x="108" y="224" type="curve"/>
      <point x="82" y="240"/>
      <point x="50" y="224"/>
      <point x="28" y="189" type="curve"/>
      <point x="38" y="129"/>
      <point x="91" y="49"/>
      <point x="176" y="0" type="curve"/>
      <point x="221" y="0"/>
      <point x="276" y="19"/>
      <point x="295" y="60" type="curve"/>
      <point x="309" y="183"/>
      <point x="325" y="292"/>
    </contour>
  </outline>
</glyph>
<glyph name="K" format="1">
  <advance width="588"/>
  <unicode hex="004B"/>
  <outline>
    <contour>
      <point x="275" y="0" type="move" name="bottom"/>
    </contour>
    <contour>
      <point x="136" y="497" type="line"/>
      <point x="105" y="302"/>
      <point x="82" y="217"/>
      <point x="37" y="31" type="curve"/>
      <point x="54" y="2"/>
      <point x="91" y="-4"/>
      <point x="132" y="0" type="curve"/>
      <point x="148" y="154"/>
      <point x="172" y="299"/>
      <point x="181" y="401" type="curve"/>
      <point x="256" y="726" type="line"/>
      <point x="243" y="732"/>
      <point x="232" y="735"/>
      <point x="220" y="735" type="curve" smooth="yes"/>
      <point x="200" y="735"/>
      <point x="179" y="727"/>
      <point x="151" y="710" type="curve"/>
    </contour>
    <contour>
      <point x="163" y="335" type="line"/>
      <point x="195" y="360" type="line"/>
      <point x="257" y="210"/>
      <point x="356" y="63"/>
      <point x="470" y="0" type="curve"/>
      <point x="509" y="15"/>
      <point x="528" y="40"/>
      <point x="515" y="76" type="curve"/>
      <point x="360" y="140"/>
      <point x="278" y="269"/>
      <point x="233" y="389" type="curve"/>
      <point x="210" y="364" type="line"/>
      <point x="342" y="440"/>
      <point x="525" y="607"/>
      <point x="592" y="687" type="curve"/>
      <point x="584" y="715"/>
      <point x="572" y="730"/>
      <point x="536" y="735" type="curve"/>
      <point x="314" y="484" type="line"/>
      <point x="148" y="370" type="line"/>
    </contour>
  </outline>
</glyph>
<glyph name="L" format="1">
  <advance width="446"/>
  <unicode hex="004C"/>
  <outline>
    <contour>
      <point x="208" y="744"/>
      <point x="181" y="737"/>
      <point x="137" y="710" type="curve"/>
      <point x="124" y="497" type="line"/>
      <point x="93" y="334"/>
      <point x="65" y="203"/>
      <point x="12" y="63" type="curve"/>
      <point x="13" y="31"/>
      <point x="42" y="12"/>
      <point x="89" y="0" type="curve"/>
      <point x="391" y="31" type="line"/>
      <point x="408" y="57"/>
      <point x="416" y="100"/>
      <point x="387" y="111" type="curve"/>
      <point x="306" y="95"/>
      <point x="201" y="76"/>
      <point x="98" y="64" type="curve"/>
      <point x="164" y="374" type="line"/>
      <point x="242" y="726" type="line" smooth="yes"/>
    </contour>
    <contour>
      <point x="173" y="796" type="move" name="top"/>
    </contour>
    <contour>
      <point x="229" y="0" type="move" name="bottom"/>
    </contour>
  </outline>
</glyph>
<glyph name="M" format="1">
  <advance width="684"/>
  <unicode hex="004D"/>
  <outline>
    <contour>
      <point x="177" y="630" type="curve"/>
      <point x="202" y="624" type="line"/>
      <point x="158" y="401" type="line"/>
      <point x="148" y="299"/>
      <point x="124" y="154"/>
      <point x="108" y="0" type="curve"/>
      <point x="67" y="-4"/>
      <point x="30" y="2"/>
      <point x="13" y="31" type="curve"/>
      <point x="58" y="217"/>
      <point x="81" y="302"/>
      <point x="112" y="497" type="curve"/>
      <point x="127" y="720" type="line"/>
      <point x="146" y="730"/>
      <point x="166" y="734"/>
      <point x="185" y="734" type="curve" smooth="yes"/>
      <point x="202" y="734"/>
      <point x="217" y="730"/>
      <point x="226" y="719" type="curve"/>
      <point x="235" y="607"/>
      <point x="262" y="437"/>
      <point x="298" y="340" type="curve"/>
      <point x="364" y="247" type="line"/>
      <point x="338" y="237" type="line"/>
      <point x="501" y="494" type="line"/>
      <point x="618" y="723" type="line"/>
      <point x="632" y="728"/>
      <point x="652" y="735"/>
      <point x="674" y="735" type="curve" smooth="yes"/>
      <point x="687" y="735"/>
      <point x="700" y="733"/>
      <point x="712" y="726" type="curve"/>
      <point x="637" y="401" type="line"/>
      <point x="627" y="299"/>
      <point x="604" y="154"/>
      <point x="588" y="0" type="curve"/>
      <point x="546" y="-4"/>
      <point x="510" y="2"/>
      <point x="492" y="31" type="curve"/>
      <point x="536" y="207"/>
      <point x="557" y="294"/>
      <point x="592" y="497" type="curve"/>
      <point x="595" y="620" type="line"/>
      <point x="618" y="599" type="line"/>
      <point x="389" y="206" type="line"/>
      <point x="346" y="197"/>
      <point x="329" y="202"/>
      <point x="297" y="225" type="curve"/>
      <point x="220" y="364"/>
      <point x="194" y="505"/>
    </contour>
  </outline>
</glyph>
<glyph name="N" format="1">
  <advance width="626"/>
  <unicode hex="004E"/>
  <outline>
    <contour>
      <point x="219" y="732"/>
      <point x="208" y="735"/>
      <point x="197" y="735" type="curve" smooth="yes"/>
      <point x="176" y="735"/>
      <point x="156" y="727"/>
      <point x="127" y="710" type="curve"/>
      <point x="110" y="497" type="line"/>
      <point x="77" y="302"/>
      <point x="54" y="217"/>
      <point x="6" y="31" type="curve"/>
      <point x="24" y="2"/>
      <point x="60" y="-4"/>
      <point x="102" y="0" type="curve"/>
      <point x="119" y="154"/>
      <point x="144" y="299"/>
      <point x="154" y="401" type="curve"/>
      <point x="211" y="669" type="line"/>
      <point x="184" y="657" type="line"/>
      <point x="255" y="431"/>
      <point x="326" y="232"/>
      <point x="434" y="24" type="curve"/>
      <point x="457" y="3"/>
      <point x="492" y="-3"/>
      <point x="528" y="0" type="curve"/>
      <point x="545" y="154"/>
      <point x="570" y="299"/>
      <point x="581" y="401" type="curve"/>
      <point x="659" y="726" type="line"/>
      <point x="646" y="732"/>
      <point x="635" y="735"/>
      <point x="623" y="735" type="curve" smooth="yes"/>
      <point x="603" y="735"/>
      <point x="582" y="727"/>
      <point x="554" y="710" type="curve"/>
      <point x="537" y="497" type="line"/>
      <point x="509" y="314"/>
      <point x="484" y="228"/>
      <point x="456" y="94" type="curve"/>
      <point x="471" y="112" type="line"/>
      <point x="401" y="235" type="line"/>
      <point x="338" y="389"/>
      <point x="282" y="549"/>
      <point x="232" y="726" type="curve"/>
    </contour>
    <contour>
      <point x="411" y="796" type="move" name="top"/>
    </contour>
    <contour>
      <point x="301" y="0" type="move" name="bottom"/>
    </contour>
  </outline>
</glyph>
<glyph name="O" format="1">
  <advance width="607"/>
  <unicode hex="004F"/>
  <outline>
    <contour>
      <point x="416" y="798" type="move" name="top"/>
    </contour>
    <contour>
      <point x="248" y="0" type="move" name="bottom"/>
    </contour>
    <contour>
      <point x="53" y="297" type="curve" smooth="yes"/>
      <point x="54" y="180"/>
      <point x="156" y="0"/>
      <point x="275" y="0" type="curve" smooth="yes"/>
      <point x="386" y="0"/>
      <point x="588" y="232"/>
      <point x="586" y="363" type="curve" smooth="yes"/>
      <point x="584" y="539"/>
      <point x="486" y="735"/>
      <point x="395" y="735" type="curve" smooth="yes"/>
      <point x="234" y="735"/>
      <point x="51" y="517"/>
    </contour>
    <contour>
      <point x="515" y="359" type="curve"/>
      <point x="470" y="228"/>
      <point x="408" y="130"/>
      <point x="272" y="52" type="curve"/>
      <point x="177" y="99"/>
      <point x="131" y="212"/>
      <point x="130" y="314" type="curve" smooth="yes"/>
      <point x="130" y="472"/>
      <point x="235" y="612"/>
      <point x="389" y="684" type="curve"/>
      <point x="469" y="606"/>
      <point x="499" y="492"/>
    </contour>
  </outline>
</glyph>
<glyph name="P" format="1">
  <advance width="532"/>
  <unicode hex="0050"/>
  <outline>
    <contour>
      <point x="202" y="407" type="curve"/>
      <point x="264" y="697" type="line"/>
      <point x="206" y="667" type="line"/>
      <point x="392" y="698"/>
      <point x="467" y="632"/>
      <point x="469" y="535" type="curve" smooth="yes"/>
      <point x="470" y="464"/>
      <point x="433" y="399"/>
      <point x="375" y="364" type="curve"/>
      <point x="309" y="333"/>
      <point x="242" y="322"/>
      <point x="153" y="310" type="curve"/>
      <point x="176" y="269" type="line"/>
      <point x="234" y="271"/>
      <point x="323" y="285"/>
      <point x="402" y="312" type="curve"/>
      <point x="501" y="366"/>
      <point x="544" y="451"/>
      <point x="543" y="539" type="curve" smooth="yes"/>
      <point x="541" y="644"/>
      <point x="459" y="735"/>
      <point x="282" y="735" type="curve" smooth="yes"/>
      <point x="219" y="735"/>
      <point x="176" y="730"/>
      <point x="133" y="720" type="curve"/>
      <point x="117" y="713"/>
      <point x="112" y="687"/>
      <point x="127" y="662" type="curve"/>
      <point x="175" y="667" type="line"/>
      <point x="149" y="449" type="line"/>
      <point x="127" y="324"/>
      <point x="106" y="188"/>
      <point x="62" y="25" type="curve"/>
      <point x="83" y="2"/>
      <point x="131" y="-5"/>
      <point x="157" y="3" type="curve"/>
      <point x="176" y="140"/>
      <point x="194" y="268"/>
    </contour>
  </outline>
</glyph>
<glyph name="Q" format="1">
  <advance width="630"/>
  <unicode hex="0051"/>
  <outline>
    <contour>
      <point x="275" y="13" type="line"/>
      <point x="384" y="-161" type="line"/>
      <point x="440" y="-151"/>
      <point x="460" y="-130"/>
      <point x="455" y="-99" type="curve"/>
      <point x="362" y="-42" type="line"/>
      <point x="316" y="35" type="line"/>
    </contour>
    <component base="O"/>
  </outline>
</glyph>
<glyph name="R" format="1">
  <advance width="568"/>
  <unicode hex="0052"/>
  <outline>
    <contour>
      <point x="323" y="796" type="move" name="top"/>
    </contour>
    <contour>
      <point x="266" y="0" type="move" name="bottom"/>
    </contour>
    <contour>
      <point x="206" y="336" type="line"/>
      <point x="226" y="212"/>
      <point x="294" y="85"/>
      <point x="427" y="0" type="curve"/>
      <point x="472" y="13"/>
      <point x="495" y="44"/>
      <point x="482" y="73" type="curve"/>
      <point x="341" y="135"/>
      <point x="281" y="204"/>
      <point x="235" y="346" type="curve"/>
    </contour>
    <contour>
      <point x="372" y="340" type="curve"/>
      <point x="482" y="400"/>
      <point x="531" y="460"/>
      <point x="531" y="561" type="curve" smooth="yes"/>
      <point x="531" y="649"/>
      <point x="457" y="737"/>
      <point x="280" y="737" type="curve" smooth="yes"/>
      <point x="217" y="737"/>
      <point x="174" y="731"/>
      <point x="131" y="721" type="curve"/>
      <point x="114" y="714"/>
      <point x="110" y="688"/>
      <point x="125" y="663" type="curve"/>
      <point x="176" y="666" type="line"/>
      <point x="147" y="455" type="line"/>
      <point x="124" y="329"/>
      <point x="102" y="188"/>
      <point x="55" y="25" type="curve"/>
      <point x="77" y="2"/>
      <point x="124" y="-5"/>
      <point x="150" y="3" type="curve"/>
      <point x="179" y="179"/>
      <point x="192" y="296"/>
      <point x="200" y="413" type="curve"/>
      <point x="265" y="698" type="line"/>
      <point x="204" y="669" type="line"/>
      <point x="382" y="703"/>
      <point x="449" y="634"/>
      <point x="449" y="556" type="curve" smooth="yes"/>
      <point x="449" y="478"/>
      <point x="423" y="438"/>
      <point x="354" y="392" type="curve"/>
      <point x="293" y="376"/>
      <point x="246" y="370"/>
      <point x="180" y="369" type="curve"/>
      <point x="185" y="326" type="line"/>
      <point x="272" y="328"/>
      <point x="295" y="330"/>
    </contour>
  </outline>
</glyph>
<glyph name="T" format="1">
  <advance width="537"/>
  <unicode hex="0054"/>
  <outline>
    <contour>
      <point x="363" y="796" type="move" name="top"/>
    </contour>
    <contour>
      <point x="255" y="0" type="move" name="bottom"/>
    </contour>
    <contour>
      <point x="284" y="505" type="line"/>
      <point x="253" y="321"/>
      <point x="226" y="206"/>
      <point x="180" y="30" type="curve"/>
      <point x="198" y="2"/>
      <point x="234" y="-4"/>
      <point x="275" y="0" type="curve"/>
      <point x="292" y="147"/>
      <point x="310" y="276"/>
      <point x="322" y="389" type="curve"/>
      <point x="393" y="703" type="line"/>
      <point x="370" y="715"/>
      <point x="339" y="713"/>
      <point x="292" y="688" type="curve"/>
    </contour>
    <contour>
      <point x="103" y="715" type="curve"/>
      <point x="90" y="698"/>
      <point x="87" y="681"/>
      <point x="111" y="657" type="curve"/>
      <point x="367" y="676" type="line"/>
      <point x="588" y="663" type="line"/>
      <point x="613" y="686"/>
      <point x="617" y="713"/>
      <point x="603" y="725" type="curve"/>
      <point x="382" y="728"/>
      <point x="245" y="724"/>
    </contour>
  </outline>
</glyph>
<glyph name="U" format="1">
  <advance width="570"/>
  <unicode hex="0055"/>
  <outline>
    <contour>
      <point x="280" y="0" type="move" name="ogonek"/>
    </contour>
    <contour>
      <point x="360" y="796" type="move" name="top"/>
    </contour>
    <contour>
      <point x="536" y="376" type="curve" smooth="yes"/>
      <point x="565" y="515"/>
      <point x="578" y="618"/>
      <point x="603" y="726" type="curve"/>
      <point x="590" y="732"/>
      <point x="579" y="735"/>
      <point x="567" y="735" type="curve" smooth="yes"/>
      <point x="546" y="735"/>
      <point x="526" y="727"/>
      <point x="498" y="710" type="curve"/>
      <point x="498" y="497" type="line"/>
      <point x="468" y="315"/>
      <point x="440" y="166"/>
      <point x="348" y="76" type="curve"/>
      <point x="229" y="15"/>
      <point x="126" y="96"/>
      <point x="126" y="174" type="curve" smooth="yes"/>
      <point x="126" y="347"/>
      <point x="178" y="549"/>
      <point x="231" y="726" type="curve"/>
      <point x="218" y="732"/>
      <point x="207" y="735"/>
      <point x="195" y="735" type="curve" smooth="yes"/>
      <point x="175" y="735"/>
      <point x="154" y="727"/>
      <point x="126" y="710" type="curve"/>
      <point x="109" y="510"/>
      <point x="82" y="375"/>
      <point x="46" y="166" type="curve"/>
      <point x="56" y="105"/>
      <point x="118" y="0"/>
      <point x="248" y="0" type="curve" smooth="yes"/>
      <point x="438" y="0"/>
      <point x="488" y="145"/>
    </contour>
  </outline>
</glyph>
<glyph name="W" format="1">
  <advance width="791"/>
  <unicode hex="0057"/>
  <outline>
    <contour>
      <point x="733" y="712" type="curve"/>
      <point x="746" y="555" type="line"/>
      <point x="526" y="26" type="line"/>
      <point x="551" y="24" type="line"/>
      <point x="513" y="272" type="line"/>
      <point x="500" y="658" type="line"/>
      <point x="470" y="671"/>
      <point x="441" y="663"/>
      <point x="413" y="640" type="curve"/>
      <point x="434" y="437" type="line"/>
      <point x="221" y="39" type="line"/>
      <point x="255" y="24" type="line"/>
      <point x="220" y="247" type="line"/>
      <point x="198" y="718" type="line"/>
      <point x="176" y="735"/>
      <point x="132" y="727"/>
      <point x="109" y="711" type="curve"/>
      <point x="184" y="22" type="line"/>
      <point x="211" y="-2"/>
      <point x="254" y="-5"/>
      <point x="286" y="3" type="curve"/>
      <point x="348" y="161" type="line"/>
      <point x="445" y="345" type="line"/>
      <point x="480" y="22" type="line"/>
      <point x="507" y="-2"/>
      <point x="554" y="-6"/>
      <point x="585" y="4" type="curve"/>
      <point x="632" y="164" type="line"/>
      <point x="809" y="536" type="line" smooth="yes"/>
      <point x="834" y="588"/>
      <point x="852" y="645"/>
      <point x="847" y="712" type="curve"/>
      <point x="822" y="730"/>
      <point x="791" y="735"/>
    </contour>
  </outline>
</glyph>
<glyph name="X" format="1">
  <advance width="595"/>
  <unicode hex="0058"/>
  <outline>
    <contour>
      <point x="330" y="391" type="curve"/>
      <point x="302" y="522"/>
      <point x="237" y="656"/>
      <point x="158" y="733" type="curve"/>
      <point x="113" y="725"/>
      <point x="89" y="697"/>
      <point x="93" y="658" type="curve"/>
      <point x="160" y="599"/>
      <point x="240" y="492"/>
      <point x="301" y="362" type="curve"/>
      <point x="311" y="264"/>
      <point x="401" y="70"/>
      <point x="463" y="0" type="curve"/>
      <point x="511" y="8"/>
      <point x="539" y="36"/>
      <point x="537" y="69" type="curve"/>
      <point x="458" y="137"/>
      <point x="362" y="322"/>
    </contour>
    <contour>
      <point x="562" y="734" type="curve"/>
      <point x="310" y="379" type="line"/>
      <point x="227" y="288"/>
      <point x="96" y="138"/>
      <point x="9" y="64" type="curve"/>
      <point x="9" y="32"/>
      <point x="24" y="9"/>
      <point x="76" y="0" type="curve"/>
      <point x="335" y="360" type="line"/>
      <point x="447" y="486"/>
      <point x="544" y="593"/>
      <point x="632" y="676" type="curve"/>
      <point x="620" y="720"/>
      <point x="600" y="737"/>
    </contour>
  </outline>
</glyph>
<glyph name="Y" format="1">
  <advance width="567"/>
  <unicode hex="0059"/>
  <outline>
    <contour>
      <point x="376" y="795" type="move" name="top"/>
    </contour>
    <contour>
      <point x="116" y="713" type="curve"/>
      <point x="175" y="577"/>
      <point x="233" y="449"/>
      <point x="284" y="303" type="curve"/>
      <point x="275" y="232"/>
      <point x="256" y="110"/>
      <point x="224" y="19" type="curve"/>
      <point x="254" y="-3"/>
      <point x="297" y="-8"/>
      <point x="319" y="0" type="curve"/>
      <point x="325" y="113"/>
      <point x="338" y="249"/>
      <point x="363" y="327" type="curve"/>
      <point x="429" y="410"/>
      <point x="494" y="495"/>
      <point x="559" y="578" type="curve" smooth="yes"/>
      <point x="592" y="619"/>
      <point x="604" y="662"/>
      <point x="604" y="714" type="curve"/>
      <point x="573" y="737"/>
      <point x="542" y="745"/>
      <point x="478" y="717" type="curve"/>
      <point x="512" y="598" type="line"/>
      <point x="348" y="377" type="line"/>
      <point x="327" y="338" type="line"/>
      <point x="324" y="338" type="line"/>
      <point x="238" y="558" type="line"/>
      <point x="202" y="728" type="line"/>
      <point x="180" y="744"/>
      <point x="137" y="731"/>
    </contour>
  </outline>
</glyph>
<glyph name="backslash" format="1">
  <advance width="457"/>
  <unicode hex="005C"/>
  <outline>
    <contour>
      <point x="64" y="839" type="curve"/>
      <point x="343" y="-118" type="line"/>
      <point x="360" y="-126"/>
      <point x="386" y="-133"/>
      <point x="408" y="-110" type="curve"/>
      <point x="254" y="362" type="line"/>
      <point x="123" y="874" type="line" smooth="yes"/>
      <point x="104" y="883"/>
      <point x="71" y="869"/>
    </contour>
  </outline>
</glyph>
<glyph name="bracketright" format="1">
  <advance width="531"/>
  <unicode hex="005D"/>
  <outline>
    <contour>
      <point x="340" y="237" type="line"/>
      <point x="467" y="764" type="line"/>
      <point x="464" y="794"/>
      <point x="454" y="816"/>
      <point x="436" y="832" type="curve"/>
      <point x="187" y="846" type="line"/>
      <point x="175" y="833"/>
      <point x="181" y="805"/>
      <point x="199" y="782" type="curve"/>
      <point x="388" y="787" type="line"/>
      <point x="315" y="416" type="line"/>
      <point x="245" y="19" type="line"/>
      <point x="35" y="15" type="line"/>
      <point x="21" y="-10"/>
      <point x="26" y="-38"/>
      <point x="41" y="-62" type="curve"/>
      <point x="325" y="-18" type="line"/>
    </contour>
  </outline>
</glyph>
<glyph name="underscore" format="1">
  <advance width="626"/>
  <unicode hex="005F"/>
  <outline>
    <contour>
      <point x="503" y="-51" type="curve"/>
      <point x="257" y="-66" type="line"/>
      <point x="8" y="-62" type="line"/>
      <point x="-13" y="-87"/>
      <point x="-17" y="-113"/>
      <point x="-3" y="-127" type="curve"/>
      <point x="488" y="-120" type="line"/>
      <point x="514" y="-91"/>
      <point x="518" y="-60"/>
    </contour>
  </outline>
</glyph>
<glyph name="b" format="1">
  <advance width="491"/>
  <unicode hex="0062"/>
  <outline>
    <contour>
      <point x="255" y="804" type="line"/>
      <point x="221" y="822"/>
      <point x="194" y="814"/>
      <point x="150" y="787" type="curve"/>
      <point x="132" y="540" type="line"/>
      <point x="103" y="375"/>
      <point x="72" y="222"/>
      <point x="37" y="77" type="curve"/>
      <point x="41" y="40"/>
      <point x="70" y="17"/>
      <point x="119" y="0" type="curve"/>
      <point x="308" y="36"/>
      <point x="433" y="160"/>
      <point x="473" y="326" type="curve"/>
      <point x="449" y="432"/>
      <point x="418" y="498"/>
      <point x="302" y="540" type="curve"/>
      <point x="245" y="487"/>
      <point x="179" y="416"/>
      <point x="125" y="336" type="curve"/>
      <point x="151" y="302" type="line"/>
      <point x="204" y="374"/>
      <point x="258" y="427"/>
      <point x="302" y="469" type="curve"/>
      <point x="364" y="442"/>
      <point x="390" y="401"/>
      <point x="402" y="328" type="curve"/>
      <point x="378" y="202"/>
      <point x="274" y="83"/>
      <point x="91" y="56" type="curve"/>
      <point x="108" y="49" type="line"/>
      <point x="133" y="158"/>
      <point x="147" y="252"/>
      <point x="166" y="370" type="curve"/>
      <point x="145" y="393" type="line"/>
      <point x="174" y="447" type="line"/>
      <point x="198" y="576" type="line"/>
    </contour>
  </outline>
</glyph>
<glyph name="c" format="1">
  <advance width="483"/>
  <unicode hex="0063"/>
  <outline>
    <contour>
      <point x="323" y="594" type="move" name="top"/>
    </contour>
    <contour>
      <point x="266" y="0" type="move" name="bottom"/>
    </contour>
    <contour>
      <point x="306" y="540" type="curve"/>
      <point x="193" y="516"/>
      <point x="105" y="422"/>
      <point x="57" y="342" type="curve"/>
      <point x="46" y="311"/>
      <point x="40" y="279"/>
      <point x="38" y="247" type="curve" smooth="yes"/>
      <point x="32" y="140"/>
      <point x="82" y="35"/>
      <point x="221" y="0" type="curve"/>
      <point x="286" y="11"/>
      <point x="389" y="65"/>
      <point x="428" y="108" type="curve"/>
      <point x="430" y="133"/>
      <point x="427" y="150"/>
      <point x="397" y="149" type="curve"/>
      <point x="363" y="113"/>
      <point x="288" y="76"/>
      <point x="231" y="57" type="curve"/>
      <point x="132" y="98"/>
      <point x="110" y="164"/>
      <point x="116" y="264" type="curve" smooth="yes"/>
      <point x="119" y="335"/>
      <point x="186" y="438"/>
      <point x="283" y="485" type="curve"/>
      <point x="301" y="487" type="line"/>
      <point x="338" y="458"/>
      <point x="354" y="434"/>
      <point x="357" y="374" type="curve"/>
      <point x="379" y="361"/>
      <point x="416" y="367"/>
      <point x="442" y="388" type="curve"/>
      <point x="437" y="456"/>
      <point x="383" y="528"/>
    </contour>
  </outline>
</glyph>
<glyph name="f" format="1">
  <advance width="346"/>
  <unicode hex="0066"/>
  <outline>
    <contour>
      <point x="289" y="761" type="curve"/>
      <point x="326" y="732"/>
      <point x="343" y="708"/>
      <point x="348" y="648" type="curve"/>
      <point x="369" y="635"/>
      <point x="406" y="642"/>
      <point x="431" y="662" type="curve"/>
      <point x="426" y="730"/>
      <point x="370" y="802"/>
      <point x="293" y="814" type="curve"/>
      <point x="221" y="806"/>
      <point x="179" y="769"/>
      <point x="132" y="714" type="curve"/>
      <point x="134" y="467" type="line"/>
      <point x="108" y="292"/>
      <point x="82" y="168"/>
      <point x="37" y="24" type="curve"/>
      <point x="52" y="2"/>
      <point x="77" y="-4"/>
      <point x="122" y="0" type="curve"/>
      <point x="158" y="207"/>
      <point x="208" y="573"/>
      <point x="205" y="718" type="curve"/>
      <point x="234" y="741"/>
      <point x="260" y="754"/>
    </contour>
    <contour>
      <point x="150" y="460" type="line"/>
      <point x="1" y="459" type="line"/>
      <point x="-17" y="437"/>
      <point x="-18" y="410"/>
      <point x="-1" y="389" type="curve"/>
      <point x="174" y="422" type="line"/>
      <point x="363" y="433" type="line"/>
      <point x="383" y="462"/>
      <point x="382" y="492"/>
      <point x="365" y="503" type="curve"/>
    </contour>
  </outline>
</glyph>
<glyph name="g" format="1">
  <advance width="474"/>
  <unicode hex="0067"/>
  <outline>
    <contour>
      <point x="333" y="594" type="move" name="top"/>
    </contour>
    <contour>
      <point x="295" y="50" type="line"/>
      <point x="278" y="-51"/>
      <point x="270" y="-102"/>
      <point x="241" y="-203" type="curve"/>
      <point x="233" y="-208"/>
      <point x="224" y="-211"/>
      <point x="214" y="-210" type="curve"/>
      <point x="158" y="-167"/>
      <point x="127" y="-110"/>
      <point x="122" y="-46" type="curve"/>
      <point x="97" y="-30"/>
      <point x="64" y="-46"/>
      <point x="41" y="-81" type="curve"/>
      <point x="50" y="-141"/>
      <point x="100" y="-221"/>
      <point x="198" y="-270" type="curve"/>
      <point x="240" y="-271"/>
      <point x="302" y="-252"/>
      <point x="321" y="-229" type="curve"/>
      <point x="347" y="-67"/>
      <point x="384" y="198"/>
      <point x="418" y="336" type="curve"/>
      <point x="501" y="514" type="line"/>
      <point x="484" y="538"/>
      <point x="457" y="546"/>
      <point x="407" y="546" type="curve"/>
      <point x="400" y="528"/>
      <point x="393" y="495"/>
      <point x="391" y="446" type="curve"/>
      <point x="372" y="390" type="line"/>
      <point x="338" y="242" type="line"/>
      <point x="319" y="164" type="line"/>
      <point x="332" y="154" type="line"/>
    </contour>
    <contour>
      <point x="338" y="242" type="line"/>
      <point x="282" y="189"/>
      <point x="225" y="134"/>
      <point x="162" y="72" type="curve"/>
      <point x="118" y="98"/>
      <point x="106" y="132"/>
      <point x="106" y="181" type="curve" smooth="yes"/>
      <point x="106" y="319"/>
      <point x="175" y="445"/>
      <point x="292" y="492" type="curve"/>
      <point x="336" y="462"/>
      <point x="351" y="432"/>
      <point x="372" y="389" type="curve"/>
      <point x="405" y="411" type="line"/>
      <point x="383" y="467"/>
      <point x="353" y="540"/>
      <point x="291" y="540" type="curve" smooth="yes"/>
      <point x="159" y="540"/>
      <point x="27" y="346"/>
      <point x="30" y="175" type="curve" smooth="yes"/>
      <point x="31" y="80"/>
      <point x="85" y="15"/>
      <point x="190" y="13" type="curve"/>
      <point x="248" y="82"/>
      <point x="318" y="154"/>
      <point x="359" y="212" type="curve"/>
    </contour>
  </outline>
</glyph>
<glyph name="h" format="1">
  <advance width="507"/>
  <unicode hex="0068"/>
  <outline>
    <contour>
      <point x="416" y="0" type="curve"/>
      <point x="423" y="136"/>
      <point x="435" y="256"/>
      <point x="444" y="328" type="curve"/>
      <point x="480" y="417" type="line"/>
      <point x="471" y="467"/>
      <point x="431" y="532"/>
      <point x="352" y="540" type="curve"/>
      <point x="265" y="504"/>
      <point x="185" y="423"/>
      <point x="132" y="336" type="curve"/>
      <point x="158" y="302" type="line"/>
      <point x="221" y="384"/>
      <point x="289" y="441"/>
      <point x="353" y="469" type="curve"/>
      <point x="373" y="461"/>
      <point x="391" y="445"/>
      <point x="395" y="413" type="curve"/>
      <point x="369" y="276"/>
      <point x="349" y="166"/>
      <point x="327" y="25" type="curve"/>
      <point x="343" y="6"/>
      <point x="369" y="-5"/>
    </contour>
    <contour>
      <point x="26" y="24" type="curve"/>
      <point x="41" y="2"/>
      <point x="66" y="-4"/>
      <point x="111" y="0" type="curve"/>
      <point x="134" y="119"/>
      <point x="153" y="237"/>
      <point x="173" y="370" type="curve"/>
      <point x="153" y="397" type="line"/>
      <point x="187" y="442" type="line"/>
      <point x="201" y="573" type="line"/>
      <point x="257" y="804" type="line"/>
      <point x="224" y="822"/>
      <point x="197" y="814"/>
      <point x="152" y="787" type="curve"/>
      <point x="141" y="540" type="line"/>
      <point x="120" y="426"/>
      <point x="80" y="210"/>
    </contour>
  </outline>
</glyph>
<glyph name="i" format="1">
  <advance width="227"/>
  <unicode hex="0069"/>
  <outline>
    <contour>
      <point x="127" y="0" type="move" name="ogonek"/>
    </contour>
    <contour>
      <point x="172" y="585" type="curve" smooth="yes"/>
      <point x="201" y="585"/>
      <point x="224" y="609"/>
      <point x="222" y="637" type="curve" smooth="yes"/>
      <point x="221" y="669"/>
      <point x="197" y="691"/>
      <point x="168" y="691" type="curve" smooth="yes"/>
      <point x="137" y="691"/>
      <point x="113" y="669"/>
      <point x="114" y="637" type="curve" smooth="yes"/>
      <point x="116" y="609"/>
      <point x="140" y="585"/>
    </contour>
    <contour>
      <point x="113" y="368" type="line"/>
      <point x="91" y="256"/>
      <point x="67" y="137"/>
      <point x="36" y="31" type="curve"/>
      <point x="53" y="2"/>
      <point x="90" y="-4"/>
      <point x="131" y="0" type="curve"/>
      <point x="145" y="151"/>
      <point x="157" y="274"/>
      <point x="171" y="394" type="curve"/>
      <point x="208" y="524" type="line"/>
      <point x="184" y="551"/>
      <point x="150" y="541"/>
      <point x="110" y="524" type="curve"/>
    </contour>
  </outline>
</glyph>
<glyph name="j" format="1">
  <advance width="261"/>
  <unicode hex="006A"/>
  <outline>
    <contour>
      <point x="261" y="588" type="curve" smooth="yes"/>
      <point x="288" y="588"/>
      <point x="310" y="610"/>
      <point x="309" y="636" type="curve" smooth="yes"/>
      <point x="308" y="665"/>
      <point x="285" y="687"/>
      <point x="258" y="687" type="curve" smooth="yes"/>
      <point x="229" y="687"/>
      <point x="207" y="665"/>
      <point x="208" y="636" type="curve" smooth="yes"/>
      <point x="210" y="610"/>
      <point x="232" y="588"/>
    </contour>
    <contour>
      <point x="-48" y="-46" type="curve"/>
      <point x="-73" y="-30"/>
      <point x="-106" y="-46"/>
      <point x="-127" y="-81" type="curve"/>
      <point x="-117" y="-141"/>
      <point x="-63" y="-221"/>
      <point x="23" y="-270" type="curve"/>
      <point x="68" y="-270"/>
      <point x="123" y="-251"/>
      <point x="136" y="-218" type="curve"/>
      <point x="147" y="-56"/>
      <point x="176" y="208"/>
      <point x="195" y="320" type="curve"/>
      <point x="280" y="514" type="line"/>
      <point x="261" y="538"/>
      <point x="234" y="546"/>
      <point x="185" y="546" type="curve"/>
      <point x="111" y="269"/>
      <point x="92" y="38"/>
      <point x="54" y="-203" type="curve"/>
      <point x="41" y="-210" type="line"/>
      <point x="-8" y="-167"/>
      <point x="-40" y="-110"/>
    </contour>
  </outline>
</glyph>
<glyph name="k" format="1">
  <advance width="486"/>
  <unicode hex="006B"/>
  <outline>
    <contour>
      <point x="222" y="0" type="move" name="bottom"/>
    </contour>
    <contour>
      <point x="121" y="592" type="line"/>
      <point x="94" y="417"/>
      <point x="58" y="211"/>
      <point x="3" y="24" type="curve"/>
      <point x="18" y="2"/>
      <point x="43" y="-4"/>
      <point x="89" y="0" type="curve"/>
      <point x="110" y="123"/>
      <point x="127" y="217"/>
      <point x="147" y="323" type="curve"/>
      <point x="127" y="364" type="line"/>
      <point x="152" y="399" type="line"/>
      <point x="187" y="609"/>
      <point x="207" y="731"/>
      <point x="208" y="811" type="curve"/>
      <point x="166" y="816"/>
      <point x="140" y="809"/>
      <point x="111" y="782" type="curve"/>
    </contour>
    <contour>
      <point x="381" y="0" type="curve"/>
      <point x="420" y="16"/>
      <point x="441" y="42"/>
      <point x="427" y="67" type="curve"/>
      <point x="279" y="135"/>
      <point x="181" y="235"/>
      <point x="133" y="351" type="curve"/>
      <point x="122" y="287" type="line"/>
      <point x="214" y="375"/>
      <point x="335" y="430"/>
      <point x="435" y="470" type="curve"/>
      <point x="449" y="502"/>
      <point x="438" y="534"/>
      <point x="405" y="540" type="curve"/>
      <point x="281" y="476"/>
      <point x="197" y="416"/>
      <point x="84" y="316" type="curve"/>
      <point x="143" y="195"/>
      <point x="268" y="64"/>
    </contour>
  </outline>
</glyph>
<glyph name="l" format="1">
  <advance width="245"/>
  <unicode hex="006C"/>
  <outline>
    <contour>
      <point x="144" y="540" type="line"/>
      <point x="117" y="357"/>
      <point x="91" y="230"/>
      <point x="40" y="31" type="curve"/>
      <point x="57" y="2"/>
      <point x="94" y="-4"/>
      <point x="135" y="0" type="curve"/>
      <point x="160" y="212"/>
      <point x="179" y="374"/>
      <point x="202" y="580" type="curve"/>
      <point x="260" y="804" type="line"/>
      <point x="227" y="822"/>
      <point x="200" y="814"/>
      <point x="156" y="787" type="curve"/>
    </contour>
    <contour>
      <point x="195" y="856" type="move" name="top"/>
    </contour>
    <contour>
      <point x="112" y="0" type="move" name="bottom"/>
    </contour>
  </outline>
</glyph>
<glyph name="m" format="1">
  <advance width="742"/>
  <unicode hex="006D"/>
  <outline>
    <contour>
      <point x="388" y="0" type="curve"/>
      <point x="394" y="149"/>
      <point x="405" y="267"/>
      <point x="431" y="345" type="curve"/>
      <point x="490" y="414"/>
      <point x="538" y="450"/>
      <point x="589" y="469" type="curve"/>
      <point x="608" y="460"/>
      <point x="626" y="445"/>
      <point x="631" y="413" type="curve"/>
      <point x="605" y="276"/>
      <point x="584" y="166"/>
      <point x="563" y="25" type="curve"/>
      <point x="579" y="6"/>
      <point x="605" y="-5"/>
      <point x="651" y="0" type="curve"/>
      <point x="659" y="136"/>
      <point x="671" y="256"/>
      <point x="679" y="328" type="curve"/>
      <point x="715" y="417" type="line"/>
      <point x="711" y="469"/>
      <point x="671" y="525"/>
      <point x="588" y="540" type="curve"/>
      <point x="528" y="508"/>
      <point x="483" y="469"/>
      <point x="431" y="408" type="curve"/>
      <point x="422" y="414" type="line"/>
      <point x="448" y="459" type="line"/>
      <point x="432" y="494"/>
      <point x="390" y="530"/>
      <point x="328" y="540" type="curve"/>
      <point x="246" y="498"/>
      <point x="201" y="437"/>
      <point x="156" y="381" type="curve"/>
      <point x="147" y="388" type="line"/>
      <point x="174" y="437" type="line"/>
      <point x="187" y="505"/>
      <point x="189" y="528"/>
      <point x="185" y="546" type="curve"/>
      <point x="143" y="552"/>
      <point x="117" y="544"/>
      <point x="86" y="515" type="curve"/>
      <point x="107" y="372" type="line"/>
      <point x="86" y="267"/>
      <point x="54" y="141"/>
      <point x="19" y="24" type="curve"/>
      <point x="35" y="2"/>
      <point x="59" y="-4"/>
      <point x="105" y="0" type="curve"/>
      <point x="124" y="99"/>
      <point x="140" y="199"/>
      <point x="157" y="310" type="curve"/>
      <point x="219" y="388"/>
      <point x="264" y="442"/>
      <point x="325" y="474" type="curve"/>
      <point x="347" y="465"/>
      <point x="365" y="450"/>
      <point x="378" y="418" type="curve"/>
      <point x="345" y="284"/>
      <point x="324" y="174"/>
      <point x="299" y="25" type="curve"/>
      <point x="315" y="6"/>
      <point x="341" y="-5"/>
    </contour>
  </outline>
</glyph>
<glyph name="o" format="1">
  <advance width="484"/>
  <unicode hex="006F"/>
  <outline>
    <contour>
      <point x="297" y="594" type="move" name="top"/>
    </contour>
    <contour>
      <point x="28" y="230" type="curve" smooth="yes"/>
      <point x="28" y="365"/>
      <point x="180" y="553"/>
      <point x="284" y="553" type="curve" smooth="yes"/>
      <point x="351" y="553"/>
      <point x="449" y="388"/>
      <point x="451" y="296" type="curve" smooth="yes"/>
      <point x="454" y="173"/>
      <point x="292" y="0"/>
      <point x="190" y="0" type="curve"/>
      <point x="131" y="0"/>
      <point x="28" y="100"/>
    </contour>
    <contour>
      <point x="275" y="497" type="curve"/>
      <point x="162" y="433"/>
      <point x="117" y="351"/>
      <point x="95" y="249" type="curve"/>
      <point x="100" y="158"/>
      <point x="129" y="100"/>
      <point x="189" y="49" type="curve"/>
      <point x="309" y="100"/>
      <point x="366" y="175"/>
      <point x="388" y="291" type="curve"/>
      <point x="377" y="359"/>
      <point x="335" y="443"/>
    </contour>
  </outline>
</glyph>
<glyph name="p" format="1">
  <advance width="491"/>
  <unicode hex="0070"/>
  <outline>
    <contour>
      <point x="72" y="87" type="line"/>
      <point x="92" y="59"/>
      <point x="144" y="15"/>
      <point x="213" y="0" type="curve"/>
      <point x="362" y="83"/>
      <point x="451" y="174"/>
      <point x="481" y="309" type="curve"/>
      <point x="469" y="419"/>
      <point x="427" y="501"/>
      <point x="301" y="540" type="curve"/>
      <point x="244" y="487"/>
      <point x="178" y="416"/>
      <point x="124" y="336" type="curve"/>
      <point x="150" y="302" type="line"/>
      <point x="203" y="374"/>
      <point x="257" y="427"/>
      <point x="301" y="469" type="curve"/>
      <point x="369" y="442"/>
      <point x="403" y="383"/>
      <point x="409" y="311" type="curve"/>
      <point x="375" y="194"/>
      <point x="307" y="117"/>
      <point x="207" y="58" type="curve"/>
      <point x="168" y="70"/>
      <point x="129" y="95"/>
      <point x="109" y="125" type="curve"/>
    </contour>
    <contour>
      <point x="-22" y="-245" type="curve"/>
      <point x="-6" y="-267"/>
      <point x="18" y="-273"/>
      <point x="64" y="-269" type="curve"/>
      <point x="111" y="-67"/>
      <point x="129" y="150"/>
      <point x="166" y="375" type="curve"/>
      <point x="147" y="388" type="line"/>
      <point x="174" y="437" type="line"/>
      <point x="187" y="505"/>
      <point x="189" y="528"/>
      <point x="185" y="546" type="curve"/>
      <point x="143" y="552"/>
      <point x="117" y="544"/>
      <point x="86" y="515" type="curve"/>
      <point x="107" y="372" type="line"/>
      <point x="73" y="163"/>
      <point x="41" y="-2"/>
    </contour>
  </outline>
</glyph>
<glyph name="r" format="1">
  <advance width="382"/>
  <unicode hex="0072"/>
  <outline>
    <contour>
      <point x="326" y="390"/>
      <point x="353" y="396"/>
      <point x="388" y="422" type="curve"/>
      <point x="388" y="482"/>
      <point x="350" y="532"/>
      <point x="295" y="540" type="curve"/>
      <point x="247" y="484"/>
      <point x="178" y="401"/>
      <point x="131" y="338" type="curve"/>
      <point x="157" y="310" type="line"/>
      <point x="213" y="381"/>
      <point x="238" y="413"/>
      <point x="279" y="460" type="curve"/>
      <point x="292" y="455"/>
      <point x="300" y="434"/>
      <point x="298" y="405" type="curve"/>
    </contour>
    <contour>
      <point x="112" y="372" type="line"/>
      <point x="92" y="267"/>
      <point x="59" y="141"/>
      <point x="25" y="24" type="curve"/>
      <point x="40" y="2"/>
      <point x="65" y="-4"/>
      <point x="110" y="0" type="curve"/>
      <point x="133" y="119"/>
      <point x="152" y="237"/>
      <point x="172" y="375" type="curve"/>
      <point x="152" y="388" type="line"/>
      <point x="179" y="437" type="line"/>
      <point x="192" y="505"/>
      <point x="194" y="528"/>
      <point x="190" y="546" type="curve"/>
      <point x="148" y="552"/>
      <point x="122" y="544"/>
      <point x="92" y="515" type="curve"/>
    </contour>
    <contour>
      <point x="227" y="594" type="move" name="top"/>
    </contour>
    <contour>
      <point x="95" y="0" type="move" name="bottom"/>
    </contour>
  </outline>
</glyph>
<glyph name="t" format="1">
  <advance width="372"/>
  <unicode hex="0074"/>
  <outline>
    <contour>
      <point x="171" y="0" type="move" name="bottom"/>
    </contour>
    <contour>
      <point x="191" y="525" type="line"/>
      <point x="42" y="524" type="line"/>
      <point x="24" y="502"/>
      <point x="23" y="475"/>
      <point x="40" y="454" type="curve"/>
      <point x="215" y="487" type="line"/>
      <point x="382" y="492" type="line"/>
      <point x="403" y="522"/>
      <point x="402" y="552"/>
      <point x="384" y="563" type="curve"/>
    </contour>
    <contour>
      <point x="167" y="36" type="line"/>
      <point x="189" y="230"/>
      <point x="208" y="376"/>
      <point x="222" y="521" type="curve"/>
      <point x="271" y="679" type="line"/>
      <point x="239" y="703"/>
      <point x="210" y="696"/>
      <point x="171" y="669" type="curve"/>
      <point x="172" y="510" type="line"/>
      <point x="141" y="333"/>
      <point x="117" y="235"/>
      <point x="76" y="52" type="curve"/>
      <point x="81" y="31"/>
      <point x="98" y="10"/>
      <point x="146" y="0" type="curve"/>
      <point x="206" y="13"/>
      <point x="289" y="48"/>
      <point x="333" y="87" type="curve"/>
      <point x="335" y="110"/>
      <point x="334" y="127"/>
      <point x="300" y="125" type="curve"/>
      <point x="253" y="92"/>
      <point x="201" y="73"/>
      <point x="132" y="57" type="curve"/>
    </contour>
  </outline>
</glyph>
<glyph name="v" format="1">
  <advance width="440"/>
  <unicode hex="0076"/>
  <outline>
    <contour>
      <point x="355" y="517" type="curve"/>
      <point x="379" y="406" type="line"/>
      <point x="346" y="272"/>
      <point x="260" y="150"/>
      <point x="194" y="67" type="curve"/>
      <point x="186" y="72" type="line"/>
      <point x="203" y="275"/>
      <point x="178" y="447"/>
      <point x="109" y="540" type="curve"/>
      <point x="65" y="543"/>
      <point x="30" y="521"/>
      <point x="22" y="485" type="curve"/>
      <point x="105" y="382" type="line"/>
      <point x="134" y="281"/>
      <point x="130" y="205"/>
      <point x="107" y="48" type="curve"/>
      <point x="116" y="16"/>
      <point x="164" y="0"/>
      <point x="207" y="0" type="curve"/>
      <point x="342" y="148"/>
      <point x="423" y="329"/>
      <point x="459" y="519" type="curve"/>
      <point x="434" y="548"/>
      <point x="402" y="544"/>
    </contour>
  </outline>
</glyph>
<glyph name="x" format="1">
  <advance width="519"/>
  <unicode hex="0078"/>
  <outline>
    <contour>
      <point x="273" y="296" type="curve"/>
      <point x="261" y="393"/>
      <point x="228" y="475"/>
      <point x="147" y="540" type="curve"/>
      <point x="106" y="525"/>
      <point x="82" y="495"/>
      <point x="84" y="453" type="curve"/>
      <point x="152" y="419"/>
      <point x="199" y="364"/>
      <point x="245" y="267" type="curve"/>
      <point x="258" y="141"/>
      <point x="303" y="63"/>
      <point x="377" y="0" type="curve"/>
      <point x="421" y="14"/>
      <point x="447" y="45"/>
      <point x="438" y="83" type="curve"/>
      <point x="360" y="130"/>
      <point x="307" y="200"/>
    </contour>
    <contour>
      <point x="428" y="540" type="curve"/>
      <point x="246" y="286" type="line"/>
      <point x="174" y="212"/>
      <point x="100" y="136"/>
      <point x="6" y="64" type="curve"/>
      <point x="10" y="32"/>
      <point x="27" y="9"/>
      <point x="76" y="0" type="curve"/>
      <point x="269" y="256" type="line"/>
      <point x="345" y="342"/>
      <point x="411" y="419"/>
      <point x="499" y="482" type="curve"/>
      <point x="486" y="526"/>
      <point x="467" y="542"/>
    </contour>
  </outline>
</glyph>
<glyph name="bar" format="1">
  <advance width="214"/>
  <unicode hex="007C"/>
  <outline>
    <contour>
      <point x="106" y="497" type="line"/>
      <point x="75" y="302"/>
      <point x="30" y="31"/>
      <point x="-15" y="-154" type="curve"/>
      <point x="2" y="-184"/>
      <point x="39" y="-190"/>
      <point x="80" y="-186" type="curve"/>
      <point x="96" y="-31"/>
      <point x="141" y="299"/>
      <point x="151" y="401" type="curve"/>
      <point x="280" y="968" type="line"/>
      <point x="267" y="974"/>
      <point x="256" y="977"/>
      <point x="244" y="977" type="curve" smooth="yes"/>
      <point x="224" y="977"/>
      <point x="203" y="969"/>
      <point x="175" y="951" type="curve"/>
    </contour>
  </outline>
</glyph>
<glyph name="braceright" format="1">
  <advance width="649"/>
  <unicode hex="007D"/>
  <outline>
    <contour>
      <point x="420" y="535" type="curve" smooth="yes"/>
      <point x="422" y="619"/>
      <point x="462" y="691"/>
      <point x="542" y="741" type="curve"/>
      <point x="523" y="804"/>
      <point x="481" y="862"/>
      <point x="420" y="861" type="curve" smooth="yes"/>
      <point x="374" y="860"/>
      <point x="323" y="848"/>
      <point x="282" y="831" type="curve"/>
      <point x="275" y="813"/>
      <point x="285" y="793"/>
      <point x="301" y="781" type="curve"/>
      <point x="438" y="809" type="line"/>
      <point x="469" y="769" type="line"/>
      <point x="403" y="711"/>
      <point x="348" y="632"/>
      <point x="347" y="542" type="curve" smooth="yes"/>
      <point x="346" y="467"/>
      <point x="382" y="410"/>
      <point x="449" y="366" type="curve"/>
      <point x="447" y="354" type="line"/>
      <point x="369" y="348"/>
      <point x="306" y="297"/>
      <point x="282" y="222" type="curve" smooth="yes"/>
      <point x="261" y="158"/>
      <point x="270" y="72"/>
      <point x="313" y="-15" type="curve"/>
      <point x="270" y="-40" type="line"/>
      <point x="153" y="27" type="line"/>
      <point x="134" y="21"/>
      <point x="123" y="5"/>
      <point x="122" y="-16" type="curve"/>
      <point x="167" y="-46"/>
      <point x="213" y="-73"/>
      <point x="268" y="-90" type="curve"/>
      <point x="323" y="-83"/>
      <point x="367" y="-59"/>
      <point x="393" y="-18" type="curve"/>
      <point x="278" y="137"/>
      <point x="387" y="306"/>
      <point x="498" y="306" type="curve"/>
      <point x="521" y="384" type="line"/>
      <point x="469" y="407"/>
      <point x="418" y="462"/>
    </contour>
  </outline>
</glyph>
<glyph name="cent" format="1">
  <advance width="483"/>
  <unicode hex="00A2"/>
  <outline>
    <contour>
      <point x="368" y="634" type="curve"/>
      <point x="313" y="503" type="line"/>
      <point x="202" y="-129" type="line"/>
      <point x="170" y="-137"/>
      <point x="143" y="-123"/>
      <point x="127" y="-92" type="curve"/>
      <point x="190" y="54" type="line"/>
      <point x="297" y="664" type="line"/>
      <point x="330" y="675"/>
      <point x="354" y="664"/>
    </contour>
    <contour>
      <point x="357" y="374" type="curve"/>
      <point x="354" y="434"/>
      <point x="338" y="458"/>
      <point x="301" y="487" type="curve"/>
      <point x="283" y="485" type="line"/>
      <point x="186" y="438"/>
      <point x="119" y="335"/>
      <point x="116" y="264" type="curve" smooth="yes"/>
      <point x="110" y="164"/>
      <point x="132" y="98"/>
      <point x="231" y="57" type="curve"/>
      <point x="288" y="76"/>
      <point x="363" y="113"/>
      <point x="397" y="149" type="curve"/>
      <point x="427" y="150"/>
      <point x="430" y="133"/>
      <point x="428" y="108" type="curve"/>
      <point x="389" y="65"/>
      <point x="286" y="11"/>
      <point x="221" y="0" type="curve"/>
      <point x="82" y="35"/>
      <point x="32" y="140"/>
      <point x="38" y="247" type="curve" smooth="yes"/>
      <point x="40" y="279"/>
      <point x="46" y="311"/>
      <point x="57" y="342" type="curve"/>
      <point x="105" y="422"/>
      <point x="193" y="516"/>
      <point x="306" y="540" type="curve"/>
      <point x="383" y="528"/>
      <point x="437" y="456"/>
      <point x="442" y="388" type="curve"/>
      <point x="416" y="367"/>
      <point x="379" y="361"/>
    </contour>
  </outline>
</glyph>
<glyph name="currency" format="1">
  <advance width="637"/>
  <unicode hex="00A4"/>
  <outline>
    <contour>
      <point x="234" y="179" type="line"/>
      <point x="107" y="43" type="line"/>
      <point x="56" y="48"/>
      <point x="48" y="69"/>
      <point x="55" y="100" type="curve"/>
      <point x="206" y="207" type="line"/>
    </contour>
    <contour>
      <point x="581" y="111" type="line"/>
      <point x="589" y="80"/>
      <point x="580" y="58"/>
      <point x="529" y="54" type="curve"/>
      <point x="402" y="190" type="line"/>
      <point x="430" y="218" type="line"/>
    </contour>
    <contour>
      <point x="436" y="535" type="line"/>
      <point x="564" y="671" type="line"/>
      <point x="615" y="666"/>
      <point x="623" y="645"/>
      <point x="616" y="613" type="curve"/>
      <point x="464" y="507" type="line"/>
    </contour>
    <contour>
      <point x="85" y="610" type="line"/>
      <point x="81" y="642"/>
      <point x="92" y="662"/>
      <point x="143" y="662" type="curve"/>
      <point x="256" y="513" type="line"/>
      <point x="226" y="488" type="line"/>
    </contour>
    <contour>
      <point x="132" y="323" type="curve" smooth="yes"/>
      <point x="132" y="448"/>
      <point x="284" y="621"/>
      <point x="388" y="621" type="curve" smooth="yes"/>
      <point x="455" y="621"/>
      <point x="553" y="469"/>
      <point x="555" y="384" type="curve" smooth="yes"/>
      <point x="557" y="271"/>
      <point x="395" y="111"/>
      <point x="294" y="111" type="curve"/>
      <point x="234" y="111"/>
      <point x="132" y="204"/>
    </contour>
    <contour>
      <point x="379" y="569" type="curve"/>
      <point x="266" y="511"/>
      <point x="220" y="435"/>
      <point x="199" y="341" type="curve"/>
      <point x="204" y="257"/>
      <point x="232" y="204"/>
      <point x="293" y="156" type="curve"/>
      <point x="413" y="204"/>
      <point x="470" y="272"/>
      <point x="491" y="379" type="curve"/>
      <point x="481" y="442"/>
      <point x="438" y="519"/>
    </contour>
  </outline>
</glyph>
<glyph name="yen" format="1">
  <advance width="568"/>
  <unicode hex="00A5"/>
  <outline>
    <contour>
      <point x="271" y="191" type="line"/>
      <point x="122" y="190" type="line"/>
      <point x="104" y="168"/>
      <point x="103" y="141"/>
      <point x="120" y="120" type="curve"/>
      <point x="278" y="150" type="line"/>
    </contour>
    <contour>
      <point x="279" y="342" type="line"/>
      <point x="122" y="341" type="line"/>
      <point x="104" y="320"/>
      <point x="103" y="293"/>
      <point x="120" y="271" type="curve"/>
      <point x="299" y="305" type="line"/>
    </contour>
    <contour>
      <point x="346" y="313" type="line"/>
      <point x="527" y="315" type="line"/>
      <point x="548" y="345"/>
      <point x="546" y="375"/>
      <point x="529" y="386" type="curve"/>
      <point x="363" y="357" type="line"/>
    </contour>
    <contour>
      <point x="324" y="154" type="line"/>
      <point x="527" y="164" type="line"/>
      <point x="548" y="193"/>
      <point x="546" y="224"/>
      <point x="529" y="234" type="curve"/>
      <point x="324" y="200" type="line"/>
    </contour>
    <contour>
      <point x="116" y="713" type="curve"/>
      <point x="175" y="577"/>
      <point x="233" y="449"/>
      <point x="284" y="303" type="curve"/>
      <point x="275" y="232"/>
      <point x="256" y="110"/>
      <point x="224" y="19" type="curve"/>
      <point x="254" y="-3"/>
      <point x="297" y="-8"/>
      <point x="319" y="0" type="curve"/>
      <point x="325" y="113"/>
      <point x="338" y="249"/>
      <point x="363" y="327" type="curve"/>
      <point x="429" y="410"/>
      <point x="494" y="495"/>
      <point x="559" y="578" type="curve" smooth="yes"/>
      <point x="592" y="619"/>
      <point x="604" y="662"/>
      <point x="604" y="714" type="curve"/>
      <point x="573" y="737"/>
      <point x="542" y="745"/>
      <point x="478" y="717" type="curve"/>
      <point x="512" y="598" type="line"/>
      <point x="339" y="365" type="line"/>
      <point x="322" y="325" type="line"/>
      <point x="319" y="325" type="line"/>
      <point x="238" y="558" type="line"/>
      <point x="202" y="728" type="line"/>
      <point x="180" y="744"/>
      <point x="137" y="731"/>
    </contour>
  </outline>
</glyph>
<glyph name="section" format="1">
  <advance width="565"/>
  <unicode hex="00A7"/>
  <outline>
    <contour>
      <point x="374" y="744" type="curve"/>
      <point x="284" y="735"/>
      <point x="160" y="690"/>
      <point x="94" y="575" type="curve"/>
      <point x="111" y="516"/>
      <point x="174" y="480"/>
      <point x="242" y="440" type="curve"/>
      <point x="185" y="414"/>
      <point x="111" y="366"/>
      <point x="65" y="283" type="curve"/>
      <point x="95" y="135"/>
      <point x="419" y="70"/>
      <point x="419" y="15" type="curve" smooth="yes"/>
      <point x="418" y="-51"/>
      <point x="343" y="-100"/>
      <point x="229" y="-129" type="curve"/>
      <point x="140" y="-79"/>
      <point x="117" y="-49"/>
      <point x="87" y="22" type="curve"/>
      <point x="58" y="32"/>
      <point x="37" y="16"/>
      <point x="18" y="-22" type="curve"/>
      <point x="40" y="-79"/>
      <point x="127" y="-147"/>
      <point x="219" y="-181" type="curve"/>
      <point x="370" y="-152"/>
      <point x="463" y="-94"/>
      <point x="496" y="23" type="curve"/>
      <point x="476" y="68"/>
      <point x="422" y="91"/>
      <point x="379" y="112" type="curve"/>
      <point x="472" y="154"/>
      <point x="516" y="217"/>
      <point x="530" y="297" type="curve"/>
      <point x="471" y="434"/>
      <point x="171" y="494"/>
      <point x="172" y="577" type="curve" smooth="yes"/>
      <point x="172" y="611"/>
      <point x="301" y="683"/>
      <point x="366" y="692" type="curve"/>
      <point x="417" y="664"/>
      <point x="450" y="631"/>
      <point x="488" y="549" type="curve"/>
      <point x="524" y="549"/>
      <point x="541" y="559"/>
      <point x="545" y="583" type="curve"/>
      <point x="511" y="657"/>
      <point x="449" y="712"/>
    </contour>
    <contour>
      <point x="461" y="294" type="curve" smooth="yes"/>
      <point x="460" y="237"/>
      <point x="423" y="192"/>
      <point x="336" y="139" type="curve"/>
      <point x="266" y="171"/>
      <point x="133" y="231"/>
      <point x="134" y="287" type="curve" smooth="yes"/>
      <point x="134" y="318"/>
      <point x="235" y="383"/>
      <point x="289" y="415" type="curve"/>
      <point x="359" y="378"/>
      <point x="460" y="339"/>
    </contour>
  </outline>
</glyph>
<glyph name="dieresis" format="1">
  <advance width="280"/>
  <unicode hex="00A8"/>
  <outline>
    <contour>
      <point x="80" y="631"/>
      <point x="100" y="609"/>
      <point x="127" y="609" type="curve" smooth="yes"/>
      <point x="153" y="609"/>
      <point x="174" y="631"/>
      <point x="174" y="656" type="curve" smooth="yes"/>
      <point x="174" y="683"/>
      <point x="153" y="703"/>
      <point x="127" y="703" type="curve" smooth="yes"/>
      <point x="100" y="703"/>
      <point x="80" y="683"/>
      <point x="80" y="656" type="curve" smooth="yes"/>
    </contour>
    <contour>
      <point x="336" y="683"/>
      <point x="315" y="703"/>
      <point x="289" y="703" type="curve" smooth="yes"/>
      <point x="262" y="703"/>
      <point x="242" y="683"/>
      <point x="242" y="656" type="curve" smooth="yes"/>
      <point x="242" y="631"/>
      <point x="262" y="609"/>
      <point x="289" y="609" type="curve" smooth="yes"/>
      <point x="315" y="609"/>
      <point x="336" y="631"/>
      <point x="336" y="656" type="curve" smooth="yes"/>
    </contour>
    <contour>
      <point x="215" y="594" type="move" name="_top"/>
    </contour>
  </outline>
</glyph>
<glyph name="copyright" format="1">
  <advance width="755"/>
  <unicode hex="00A9"/>
  <outline>
    <contour>
      <point x="41" y="378" type="curve"/>
      <point x="45" y="207"/>
      <point x="123" y="40"/>
      <point x="343" y="-5" type="curve"/>
      <point x="603" y="19"/>
      <point x="720" y="193"/>
      <point x="751" y="367" type="curve"/>
      <point x="739" y="568"/>
      <point x="690" y="717"/>
      <point x="440" y="759" type="curve"/>
      <point x="185" y="726"/>
      <point x="76" y="558"/>
    </contour>
    <contour>
      <point x="693" y="366" type="curve"/>
      <point x="666" y="220"/>
      <point x="577" y="62"/>
      <point x="348" y="37" type="curve"/>
      <point x="183" y="93"/>
      <point x="118" y="197"/>
      <point x="98" y="377" type="curve"/>
      <point x="122" y="529"/>
      <point x="227" y="684"/>
      <point x="435" y="717" type="curve"/>
      <point x="647" y="660"/>
      <point x="680" y="540"/>
    </contour>
    <contour>
      <point x="558" y="476" type="curve"/>
      <point x="554" y="536"/>
      <point x="508" y="598"/>
      <point x="441" y="608" type="curve"/>
      <point x="343" y="588"/>
      <point x="268" y="507"/>
      <point x="227" y="437" type="curve"/>
      <point x="217" y="410"/>
      <point x="212" y="382"/>
      <point x="210" y="355" type="curve" smooth="yes"/>
      <point x="205" y="264"/>
      <point x="247" y="172"/>
      <point x="368" y="143" type="curve"/>
      <point x="424" y="151"/>
      <point x="513" y="198"/>
      <point x="546" y="235" type="curve"/>
      <point x="548" y="257"/>
      <point x="545" y="272"/>
      <point x="519" y="271" type="curve"/>
      <point x="490" y="240"/>
      <point x="426" y="207"/>
      <point x="377" y="191" type="curve"/>
      <point x="291" y="227"/>
      <point x="272" y="284"/>
      <point x="276" y="369" type="curve" smooth="yes"/>
      <point x="280" y="431"/>
      <point x="337" y="521"/>
      <point x="421" y="561" type="curve"/>
      <point x="437" y="563" type="line"/>
      <point x="469" y="538"/>
      <point x="483" y="517"/>
      <point x="486" y="464" type="curve"/>
      <point x="504" y="454"/>
      <point x="536" y="459"/>
    </contour>
  </outline>
</glyph>
<glyph name="ordfeminine" format="1">
  <advance width="387"/>
  <unicode hex="00AA"/>
  <outline>
    <contour>
      <point x="311" y="521" type="line"/>
      <point x="261" y="471"/>
      <point x="221" y="433"/>
      <point x="176" y="389" type="curve"/>
      <point x="146" y="405"/>
      <point x="135" y="423"/>
      <point x="135" y="465" type="curve" smooth="yes"/>
      <point x="135" y="552"/>
      <point x="181" y="649"/>
      <point x="269" y="692" type="curve"/>
      <point x="298" y="674"/>
      <point x="318" y="649"/>
      <point x="334" y="616" type="curve"/>
      <point x="356" y="646" type="line"/>
      <point x="339" y="689"/>
      <point x="305" y="730"/>
      <point x="267" y="746" type="curve"/>
      <point x="163" y="746"/>
      <point x="60" y="594"/>
      <point x="63" y="460" type="curve" smooth="yes"/>
      <point x="64" y="387"/>
      <point x="117" y="336"/>
      <point x="199" y="334" type="curve"/>
      <point x="244" y="388"/>
      <point x="294" y="451"/>
      <point x="330" y="496" type="curve"/>
    </contour>
    <contour>
      <point x="357" y="752" type="curve"/>
      <point x="352" y="738"/>
      <point x="347" y="711"/>
      <point x="346" y="673" type="curve"/>
      <point x="330" y="629" type="line"/>
      <point x="303" y="513" type="line"/>
      <point x="288" y="453" type="line"/>
      <point x="299" y="445" type="line"/>
      <point x="264" y="347" type="line"/>
      <point x="280" y="328"/>
      <point x="320" y="320"/>
      <point x="353" y="324" type="curve"/>
      <point x="362" y="430"/>
      <point x="372" y="529"/>
      <point x="383" y="611" type="curve"/>
      <point x="442" y="726" type="line"/>
      <point x="428" y="745"/>
      <point x="396" y="752"/>
    </contour>
  </outline>
</glyph>
<glyph name="registered" format="1">
  <advance width="755"/>
  <unicode hex="00AE"/>
  <outline>
    <contour>
      <point x="357" y="364" type="line"/>
      <point x="369" y="284"/>
      <point x="414" y="202"/>
      <point x="501" y="145" type="curve"/>
      <point x="534" y="154"/>
      <point x="551" y="177"/>
      <point x="542" y="197" type="curve"/>
      <point x="451" y="235"/>
      <point x="413" y="279"/>
      <point x="383" y="373" type="curve"/>
    </contour>
    <contour>
      <point x="463" y="364" type="curve"/>
      <point x="535" y="403"/>
      <point x="567" y="443"/>
      <point x="567" y="507" type="curve"/>
      <point x="567" y="563"/>
      <point x="517" y="621"/>
      <point x="402" y="621" type="curve"/>
      <point x="362" y="621"/>
      <point x="334" y="618"/>
      <point x="303" y="611" type="curve"/>
      <point x="293" y="606"/>
      <point x="289" y="586"/>
      <point x="300" y="570" type="curve"/>
      <point x="336" y="572" type="line"/>
      <point x="318" y="438" type="line"/>
      <point x="302" y="359"/>
      <point x="288" y="269"/>
      <point x="259" y="164" type="curve"/>
      <point x="272" y="149"/>
      <point x="300" y="144"/>
      <point x="319" y="149" type="curve"/>
      <point x="335" y="258"/>
      <point x="345" y="333"/>
      <point x="351" y="411" type="curve"/>
      <point x="393" y="599" type="line"/>
      <point x="355" y="573" type="line"/>
      <point x="465" y="595"/>
      <point x="507" y="553"/>
      <point x="507" y="503" type="curve"/>
      <point x="507" y="454"/>
      <point x="489" y="430"/>
      <point x="448" y="401" type="curve"/>
      <point x="407" y="390"/>
      <point x="378" y="387"/>
      <point x="335" y="387" type="curve"/>
      <point x="337" y="354" type="line"/>
      <point x="397" y="356"/>
      <point x="411" y="357"/>
    </contour>
    <contour>
      <point x="41" y="378" type="curve"/>
      <point x="45" y="207"/>
      <point x="123" y="40"/>
      <point x="343" y="-5" type="curve"/>
      <point x="603" y="19"/>
      <point x="720" y="193"/>
      <point x="751" y="367" type="curve"/>
      <point x="739" y="568"/>
      <point x="690" y="717"/>
      <point x="440" y="759" type="curve"/>
      <point x="185" y="726"/>
      <point x="76" y="558"/>
    </contour>
    <contour>
      <point x="693" y="366" type="curve"/>
      <point x="666" y="220"/>
      <point x="577" y="62"/>
      <point x="348" y="37" type="curve"/>
      <point x="183" y="93"/>
      <point x="118" y="197"/>
      <point x="98" y="377" type="curve"/>
      <point x="122" y="529"/>
      <point x="227" y="684"/>
      <point x="435" y="717" type="curve"/>
      <point x="647" y="660"/>
      <point x="680" y="540"/>
    </contour>
  </outline>
</glyph>
<glyph name="plusminus" format="1">
  <advance width="676"/>
  <unicode hex="00B1"/>
  <outline>
    <contour>
      <point x="577" y="207" type="curve"/>
      <point x="330" y="192" type="line"/>
      <point x="81" y="197" type="line"/>
      <point x="60" y="171"/>
      <point x="56" y="145"/>
      <point x="70" y="131" type="curve"/>
      <point x="562" y="138" type="line"/>
      <point x="588" y="167"/>
      <point x="592" y="198"/>
    </contour>
    <contour>
      <point x="402" y="462" type="line"/>
      <point x="427" y="590" type="line"/>
      <point x="404" y="622"/>
      <point x="375" y="632"/>
      <point x="362" y="619" type="curve"/>
      <point x="342" y="460" type="line"/>
      <point x="122" y="464" type="line"/>
      <point x="102" y="438"/>
      <point x="97" y="413"/>
      <point x="111" y="399" type="curve"/>
      <point x="330" y="402" type="line"/>
      <point x="297" y="266" type="line"/>
      <point x="318" y="241"/>
      <point x="342" y="231"/>
      <point x="359" y="242" type="curve"/>
      <point x="390" y="403" type="line"/>
      <point x="603" y="406" type="line"/>
      <point x="629" y="435"/>
      <point x="633" y="465"/>
      <point x="618" y="475" type="curve"/>
    </contour>
  </outline>
</glyph>
<glyph name="twosuperior" format="1">
  <advance width="276"/>
  <unicode hex="00B2"/>
  <outline>
    <contour>
      <point x="224" y="477" type="line" smooth="yes"/>
      <point x="276" y="522"/>
      <point x="305" y="558"/>
      <point x="305" y="604" type="curve" smooth="yes"/>
      <point x="305" y="666"/>
      <point x="259" y="744"/>
      <point x="205" y="744" type="curve" smooth="yes"/>
      <point x="160" y="744"/>
      <point x="114" y="707"/>
      <point x="90" y="657" type="curve"/>
      <point x="102" y="638"/>
      <point x="129" y="605"/>
      <point x="144" y="594" type="curve"/>
      <point x="153" y="595"/>
      <point x="161" y="597"/>
      <point x="166" y="607" type="curve"/>
      <point x="149" y="646" type="line"/>
      <point x="168" y="669"/>
      <point x="189" y="681"/>
      <point x="212" y="681" type="curve" smooth="yes"/>
      <point x="237" y="681"/>
      <point x="252" y="666"/>
      <point x="261" y="623" type="curve"/>
      <point x="239" y="582"/>
      <point x="211" y="550"/>
      <point x="174" y="517" type="curve" smooth="yes"/>
      <point x="32" y="391" type="line"/>
      <point x="31" y="368"/>
      <point x="51" y="334"/>
      <point x="67" y="325" type="curve"/>
      <point x="104" y="335" type="line"/>
      <point x="254" y="324" type="line"/>
      <point x="269" y="335"/>
      <point x="275" y="373"/>
      <point x="270" y="387" type="curve"/>
      <point x="113" y="380" type="line"/>
      <point x="110" y="383" type="line"/>
    </contour>
  </outline>
</glyph>
<glyph name="threesuperior" format="1">
  <advance width="295"/>
  <unicode hex="00B3"/>
  <outline>
    <contour>
      <point x="259" y="571" type="line" smooth="yes"/>
      <point x="298" y="591"/>
      <point x="313" y="605"/>
      <point x="314" y="627" type="curve" smooth="yes"/>
      <point x="315" y="690"/>
      <point x="253" y="744"/>
      <point x="200" y="744" type="curve" smooth="yes"/>
      <point x="148" y="744"/>
      <point x="104" y="707"/>
      <point x="79" y="657" type="curve"/>
      <point x="91" y="638"/>
      <point x="116" y="611"/>
      <point x="131" y="600" type="curve"/>
      <point x="140" y="602"/>
      <point x="150" y="605"/>
      <point x="156" y="615" type="curve"/>
      <point x="137" y="651" type="line"/>
      <point x="153" y="670"/>
      <point x="174" y="683"/>
      <point x="202" y="683" type="curve" smooth="yes"/>
      <point x="228" y="683"/>
      <point x="248" y="666"/>
      <point x="254" y="630" type="curve"/>
      <point x="161" y="558" type="line"/>
      <point x="153" y="522" type="line"/>
      <point x="218" y="497"/>
      <point x="245" y="481"/>
      <point x="256" y="453" type="curve"/>
      <point x="210" y="410"/>
      <point x="151" y="388"/>
      <point x="52" y="365" type="curve"/>
      <point x="49" y="355"/>
      <point x="54" y="335"/>
      <point x="65" y="326" type="curve"/>
      <point x="193" y="340"/>
      <point x="309" y="389"/>
      <point x="315" y="451" type="curve" smooth="yes"/>
      <point x="322" y="512"/>
      <point x="244" y="540"/>
      <point x="180" y="555" type="curve"/>
      <point x="166" y="525" type="line"/>
    </contour>
  </outline>
</glyph>
<glyph name="acute" format="1">
  <advance width="171"/>
  <unicode hex="00B4"/>
  <outline>
    <contour>
      <point x="78" y="594" type="move" name="_top"/>
    </contour>
    <contour>
      <point x="162" y="770" type="curve"/>
      <point x="132" y="692" type="line"/>
      <point x="70" y="599" type="line"/>
      <point x="72" y="588"/>
      <point x="83" y="582"/>
      <point x="103" y="582" type="curve"/>
      <point x="262" y="738" type="line"/>
      <point x="261" y="760"/>
      <point x="206" y="782"/>
    </contour>
  </outline>
</glyph>
<glyph name="onesuperior" format="1">
  <advance width="197"/>
  <unicode hex="00B9"/>
  <outline>
    <contour>
      <point x="208" y="620" type="line"/>
      <point x="242" y="712" type="line"/>
      <point x="225" y="734"/>
      <point x="162" y="743"/>
      <point x="123" y="735" type="curve"/>
      <point x="76" y="635" type="line"/>
      <point x="78" y="627"/>
      <point x="110" y="625"/>
      <point x="122" y="630" type="curve"/>
      <point x="161" y="684" type="line"/>
      <point x="168" y="680" type="line"/>
      <point x="154" y="640" type="line"/>
      <point x="85" y="335" type="line"/>
      <point x="103" y="324"/>
      <point x="139" y="321"/>
      <point x="158" y="324" type="curve"/>
      <point x="165" y="423" type="line"/>
    </contour>
  </outline>
</glyph>
<glyph name="ordmasculine" format="1">
  <advance width="389"/>
  <unicode hex="00BA"/>
  <outline>
    <contour>
      <point x="71" y="504" type="curve" smooth="yes"/>
      <point x="71" y="605"/>
      <point x="174" y="745"/>
      <point x="273" y="745" type="curve" smooth="yes"/>
      <point x="334" y="745"/>
      <point x="407" y="622"/>
      <point x="409" y="553" type="curve" smooth="yes"/>
      <point x="410" y="461"/>
      <point x="289" y="329"/>
      <point x="203" y="329" type="curve"/>
      <point x="148" y="329"/>
      <point x="71" y="407"/>
    </contour>
    <contour>
      <point x="262" y="702" type="curve"/>
      <point x="193" y="654"/>
      <point x="157" y="594"/>
      <point x="144" y="518" type="curve"/>
      <point x="147" y="450"/>
      <point x="172" y="410"/>
      <point x="208" y="373" type="curve"/>
      <point x="283" y="410"/>
      <point x="324" y="463"/>
      <point x="337" y="550" type="curve"/>
      <point x="329" y="600"/>
      <point x="299" y="662"/>
    </contour>
  </outline>
</glyph>
<glyph name="onehalf" format="1">
  <advance width="671"/>
  <unicode hex="00BD"/>
  <outline>
    <contour>
      <point x="543" y="128" type="line" smooth="yes"/>
      <point x="595" y="173"/>
      <point x="624" y="209"/>
      <point x="624" y="255" type="curve" smooth="yes"/>
      <point x="624" y="317"/>
      <point x="578" y="395"/>
      <point x="524" y="395" type="curve" smooth="yes"/>
      <point x="479" y="395"/>
      <point x="433" y="358"/>
      <point x="409" y="308" type="curve"/>
      <point x="421" y="289"/>
      <point x="448" y="256"/>
      <point x="463" y="245" type="curve"/>
      <point x="472" y="246"/>
      <point x="480" y="248"/>
      <point x="485" y="258" type="curve"/>
      <point x="468" y="297" type="line"/>
      <point x="487" y="320"/>
      <point x="508" y="332"/>
      <point x="531" y="332" type="curve" smooth="yes"/>
      <point x="556" y="332"/>
      <point x="571" y="317"/>
      <point x="580" y="274" type="curve"/>
      <point x="558" y="233"/>
      <point x="530" y="201"/>
      <point x="493" y="168" type="curve" smooth="yes"/>
      <point x="351" y="42" type="line"/>
      <point x="350" y="19"/>
      <point x="370" y="-15"/>
      <point x="386" y="-24" type="curve"/>
      <point x="423" y="-14" type="line"/>
      <point x="573" y="-25" type="line"/>
      <point x="588" y="-14"/>
      <point x="594" y="24"/>
      <point x="589" y="38" type="curve"/>
      <point x="432" y="31" type="line"/>
      <point x="429" y="34" type="line"/>
    </contour>
    <component base="onesuperior" xOffset="33"/>
    <component base="fraction" xOffset="53"/>
  </outline>
</glyph>
<glyph name="AE" format="1">
  <advance width="757"/>
  <unicode hex="00C6"/>
  <outline>
    <contour>
      <point x="617" y="731" type="curve" smooth="yes"/>
      <point x="509" y="731"/>
      <point x="408" y="725"/>
      <point x="327" y="705" type="curve"/>
      <point x="208" y="428" type="line"/>
      <point x="165" y="361" type="line"/>
      <point x="51" y="362" type="line"/>
      <point x="31" y="340"/>
      <point x="27" y="313"/>
      <point x="42" y="292" type="curve"/>
      <point x="130" y="298" type="line"/>
      <point x="-24" y="24" type="line"/>
      <point x="-12" y="2"/>
      <point x="13" y="-4"/>
      <point x="58" y="0" type="curve"/>
      <point x="206" y="303" type="line"/>
      <point x="366" y="309" type="line"/>
      <point x="312" y="50" type="line"/>
      <point x="340" y="18"/>
      <point x="349" y="0"/>
      <point x="405" y="0" type="curve" smooth="yes"/>
      <point x="488" y="0"/>
      <point x="597" y="13"/>
      <point x="679" y="29" type="curve"/>
      <point x="691" y="55"/>
      <point x="699" y="100"/>
      <point x="664" y="113" type="curve"/>
      <point x="602" y="91"/>
      <point x="482" y="65"/>
      <point x="402" y="63" type="curve"/>
      <point x="402" y="124" type="line"/>
      <point x="432" y="305" type="line"/>
      <point x="528" y="314"/>
      <point x="556" y="314"/>
      <point x="649" y="306" type="curve"/>
      <point x="667" y="336"/>
      <point x="669" y="370"/>
      <point x="658" y="389" type="curve"/>
      <point x="563" y="374"/>
      <point x="530" y="373"/>
      <point x="442" y="369" type="curve"/>
      <point x="457" y="577" type="line"/>
      <point x="487" y="663" type="line"/>
      <point x="548" y="670"/>
      <point x="600" y="673"/>
      <point x="658" y="664" type="curve"/>
      <point x="713" y="615" type="line"/>
      <point x="755" y="644"/>
      <point x="771" y="708"/>
      <point x="744" y="728" type="curve"/>
      <point x="711" y="730"/>
      <point x="666" y="731"/>
    </contour>
    <contour>
      <point x="370" y="644" type="line"/>
      <point x="378" y="646" type="line"/>
      <point x="368" y="362" type="line"/>
      <point x="232" y="359" type="line"/>
    </contour>
  </outline>
</glyph>
<glyph name="Eth" format="1">
  <advance width="618"/>
  <unicode hex="00D0"/>
  <outline>
    <contour>
      <point x="373" y="415" type="curve"/>
      <point x="166" y="395" type="line"/>
      <point x="30" y="405" type="line"/>
      <point x="11" y="394"/>
      <point x="12" y="363"/>
      <point x="39" y="345" type="curve"/>
      <point x="190" y="357" type="line"/>
      <point x="382" y="359" type="line"/>
      <point x="405" y="378"/>
      <point x="392" y="407"/>
    </contour>
    <component base="D"/>
  </outline>
</glyph>
<glyph name="Oslash" format="1">
  <advance width="705"/>
  <unicode hex="00D8"/>
  <outline>
    <contour>
      <point x="659" y="733" type="curve"/>
      <point x="550" y="557" type="line"/>
      <point x="6" y="72" type="line"/>
      <point x="6" y="29"/>
      <point x="35" y="10"/>
      <point x="81" y="0" type="curve"/>
      <point x="186" y="165" type="line"/>
      <point x="741" y="665" type="line"/>
      <point x="739" y="699"/>
      <point x="705" y="724"/>
    </contour>
    <contour>
      <point x="87" y="297" type="curve" smooth="yes"/>
      <point x="89" y="180"/>
      <point x="190" y="0"/>
      <point x="310" y="0" type="curve" smooth="yes"/>
      <point x="420" y="0"/>
      <point x="622" y="232"/>
      <point x="621" y="363" type="curve" smooth="yes"/>
      <point x="619" y="539"/>
      <point x="521" y="735"/>
      <point x="430" y="735" type="curve" smooth="yes"/>
      <point x="269" y="735"/>
      <point x="85" y="517"/>
    </contour>
    <contour>
      <point x="423" y="684" type="curve"/>
      <point x="503" y="606"/>
      <point x="534" y="492"/>
      <point x="550" y="359" type="curve"/>
      <point x="504" y="228"/>
      <point x="443" y="130"/>
      <point x="307" y="52" type="curve"/>
      <point x="212" y="99"/>
      <point x="165" y="212"/>
      <point x="164" y="314" type="curve" smooth="yes"/>
      <point x="164" y="472"/>
      <point x="270" y="612"/>
    </contour>
  </outline>
</glyph>
<glyph name="Thorn" format="1">
  <advance width="532"/>
  <unicode hex="00DE"/>
  <outline>
    <contour>
      <point x="174" y="540" type="line"/>
      <point x="127" y="324"/>
      <point x="106" y="188"/>
      <point x="62" y="25" type="curve"/>
      <point x="83" y="2"/>
      <point x="131" y="-5"/>
      <point x="157" y="3" type="curve"/>
      <point x="176" y="140"/>
      <point x="202" y="394"/>
      <point x="233" y="573" type="curve"/>
      <point x="289" y="804" type="line"/>
      <point x="256" y="822"/>
      <point x="229" y="814"/>
      <point x="185" y="787" type="curve"/>
    </contour>
    <contour>
      <point x="211" y="516" type="line"/>
      <point x="248" y="535"/>
      <point x="309" y="556"/>
      <point x="351" y="552" type="curve"/>
      <point x="421" y="532"/>
      <point x="464" y="482"/>
      <point x="467" y="419" type="curve" smooth="yes"/>
      <point x="468" y="362"/>
      <point x="432" y="324"/>
      <point x="379" y="278" type="curve"/>
      <point x="303" y="260"/>
      <point x="261" y="255"/>
      <point x="189" y="265" type="curve"/>
      <point x="174" y="232" type="line"/>
      <point x="243" y="205"/>
      <point x="314" y="206"/>
      <point x="408" y="225" type="curve"/>
      <point x="501" y="292"/>
      <point x="543" y="343"/>
      <point x="541" y="423" type="curve" smooth="yes"/>
      <point x="539" y="504"/>
      <point x="478" y="577"/>
      <point x="377" y="605" type="curve"/>
      <point x="315" y="609"/>
      <point x="237" y="589"/>
      <point x="190" y="553" type="curve"/>
    </contour>
  </outline>
</glyph>
<glyph name="germandbls" format="1">
  <advance width="565"/>
  <unicode hex="00DF"/>
  <outline>
    <contour>
      <point x="127" y="638" type="curve"/>
      <point x="114" y="457"/>
      <point x="79" y="282"/>
      <point x="15" y="24" type="curve"/>
      <point x="30" y="2"/>
      <point x="56" y="-4"/>
      <point x="100" y="0" type="curve"/>
      <point x="143" y="268"/>
      <point x="168" y="459"/>
      <point x="195" y="656" type="curve"/>
      <point x="258" y="761" type="line"/>
      <point x="235" y="742" type="line"/>
      <point x="365" y="764"/>
      <point x="434" y="694"/>
      <point x="434" y="619" type="curve" smooth="yes"/>
      <point x="434" y="556"/>
      <point x="405" y="501"/>
      <point x="332" y="470" type="curve"/>
      <point x="275" y="487" type="line"/>
      <point x="237" y="464"/>
      <point x="215" y="418"/>
      <point x="264" y="361" type="curve"/>
      <point x="337" y="387" type="line"/>
      <point x="417" y="367"/>
      <point x="449" y="307"/>
      <point x="449" y="245" type="curve" smooth="yes"/>
      <point x="449" y="163"/>
      <point x="389" y="75"/>
      <point x="284" y="58" type="curve"/>
      <point x="244" y="129" type="line"/>
      <point x="200" y="131"/>
      <point x="161" y="90"/>
      <point x="150" y="50" type="curve"/>
      <point x="165" y="26"/>
      <point x="200" y="2"/>
      <point x="267" y="0" type="curve"/>
      <point x="436" y="23"/>
      <point x="524" y="133"/>
      <point x="524" y="238" type="curve" smooth="yes"/>
      <point x="524" y="318"/>
      <point x="477" y="395"/>
      <point x="361" y="428" type="curve"/>
      <point x="362" y="435" type="line"/>
      <point x="465" y="475"/>
      <point x="503" y="545"/>
      <point x="504" y="622" type="curve" smooth="yes"/>
      <point x="503" y="719"/>
      <point x="411" y="812"/>
      <point x="256" y="804" type="curve"/>
      <point x="184" y="774"/>
      <point x="148" y="717"/>
    </contour>
  </outline>
</glyph>
<glyph name="oslash" format="1">
  <advance width="559"/>
  <unicode hex="00F8"/>
  <outline>
    <contour>
      <point x="154" y="144" type="line"/>
      <point x="62" y="0" type="line"/>
      <point x="23" y="6"/>
      <point x="4" y="23"/>
      <point x="-4" y="64" type="curve"/>
      <point x="406" y="407" type="line"/>
      <point x="504" y="549" type="line"/>
      <point x="539" y="544"/>
      <point x="561" y="523"/>
      <point x="564" y="489" type="curve"/>
    </contour>
    <contour>
      <point x="77" y="230" type="curve" smooth="yes"/>
      <point x="77" y="365"/>
      <point x="229" y="553"/>
      <point x="333" y="553" type="curve" smooth="yes"/>
      <point x="400" y="553"/>
      <point x="498" y="388"/>
      <point x="500" y="296" type="curve" smooth="yes"/>
      <point x="502" y="173"/>
      <point x="340" y="0"/>
      <point x="239" y="0" type="curve"/>
      <point x="179" y="0"/>
      <point x="77" y="100"/>
    </contour>
    <contour>
      <point x="324" y="497" type="curve"/>
      <point x="211" y="433"/>
      <point x="165" y="351"/>
      <point x="144" y="249" type="curve"/>
      <point x="149" y="158"/>
      <point x="177" y="100"/>
      <point x="238" y="49" type="curve"/>
      <point x="357" y="100"/>
      <point x="415" y="175"/>
      <point x="436" y="291" type="curve"/>
      <point x="426" y="359"/>
      <point x="383" y="443"/>
    </contour>
  </outline>
</glyph>
<glyph name="dcaron" format="1">
  <advance width="575"/>
  <unicode hex="010F"/>
  <outline>
    <contour>
      <point x="573" y="682" type="curve"/>
      <point x="615" y="720"/>
      <point x="670" y="791"/>
      <point x="677" y="857" type="curve"/>
      <point x="661" y="901"/>
      <point x="614" y="925"/>
      <point x="572" y="891" type="curve"/>
      <point x="595" y="779" type="line"/>
      <point x="541" y="696" type="line"/>
      <point x="548" y="685"/>
      <point x="562" y="681"/>
    </contour>
    <component base="d"/>
  </outline>
</glyph>
<glyph name="Eogonek" format="1">
  <advance width="490"/>
  <unicode hex="0118"/>
  <outline>
    <contour>
      <point x="409" y="29" type="curve"/>
      <point x="413" y="44"/>
      <point x="401" y="52"/>
      <point x="373" y="52" type="curve"/>
      <point x="304" y="21"/>
      <point x="203" y="-38"/>
      <point x="203" y="-106" type="curve" smooth="yes"/>
      <point x="203" y="-160"/>
      <point x="266" y="-198"/>
      <point x="336" y="-198" type="curve" smooth="yes"/>
      <point x="394" y="-198"/>
      <point x="440" y="-171"/>
      <point x="467" y="-137" type="curve"/>
      <point x="465" y="-118"/>
      <point x="458" y="-111"/>
      <point x="440" y="-112" type="curve"/>
      <point x="411" y="-135"/>
      <point x="376" y="-150"/>
      <point x="341" y="-150" type="curve" smooth="yes"/>
      <point x="299" y="-150"/>
      <point x="270" y="-135"/>
      <point x="256" y="-113" type="curve"/>
      <point x="260" y="-60"/>
      <point x="351" y="10"/>
    </contour>
    <component base="E"/>
  </outline>
</glyph>
<glyph name="eogonek" format="1">
  <advance width="479"/>
  <unicode hex="0119"/>
  <outline>
    <contour>
      <point x="274" y="15" type="curve"/>
      <point x="277" y="35"/>
      <point x="265" y="43"/>
      <point x="247" y="45" type="curve"/>
      <point x="151" y="8"/>
      <point x="103" y="-54"/>
      <point x="103" y="-106" type="curve" smooth="yes"/>
      <point x="103" y="-157"/>
      <point x="162" y="-198"/>
      <point x="231" y="-198" type="curve" smooth="yes"/>
      <point x="296" y="-198"/>
      <point x="341" y="-171"/>
      <point x="373" y="-137" type="curve"/>
      <point x="372" y="-117"/>
      <point x="363" y="-111"/>
      <point x="346" y="-112" type="curve"/>
      <point x="317" y="-133"/>
      <point x="282" y="-147"/>
      <point x="248" y="-147" type="curve" smooth="yes"/>
      <point x="217" y="-147"/>
      <point x="176" y="-139"/>
      <point x="160" y="-110" type="curve"/>
      <point x="170" y="-65"/>
      <point x="221" y="-6"/>
    </contour>
    <component base="e"/>
  </outline>
</glyph>
<glyph name="Gcommaaccent" format="1">
  <advance width="616"/>
  <unicode hex="0122"/>
  <outline>
    <contour>
      <point x="254" y="-245" type="curve"/>
      <point x="296" y="-207"/>
      <point x="351" y="-136"/>
      <point x="358" y="-70" type="curve"/>
      <point x="342" y="-26"/>
      <point x="295" y="-2"/>
      <point x="253" y="-36" type="curve"/>
      <point x="276" y="-148" type="line"/>
      <point x="222" y="-231" type="line"/>
      <point x="229" y="-242"/>
      <point x="243" y="-246"/>
    </contour>
    <component base="G"/>
  </outline>
</glyph>
<glyph name="gcommaaccent" format="1">
  <advance width="474"/>
  <unicode hex="0123"/>
  <outline>
    <contour>
      <point x="358" y="824" type="curve"/>
      <point x="309" y="770"/>
      <point x="255" y="688"/>
      <point x="269" y="601" type="curve"/>
      <point x="295" y="572"/>
      <point x="348" y="580"/>
      <point x="375" y="622" type="curve"/>
      <point x="346" y="715" type="line"/>
      <point x="397" y="809" type="line"/>
      <point x="387" y="820"/>
      <point x="371" y="825"/>
    </contour>
    <component base="g"/>
  </outline>
</glyph>
<glyph name="iogonek" format="1">
  <advance width="227"/>
  <unicode hex="012F"/>
  <outline>
    <contour>
      <point x="131" y="0" type="curve"/>
      <point x="131" y="20"/>
      <point x="125" y="23"/>
      <point x="113" y="27" type="curve"/>
      <point x="32" y="6"/>
      <point x="-33" y="-53"/>
      <point x="-33" y="-112" type="curve" smooth="yes"/>
      <point x="-33" y="-155"/>
      <point x="10" y="-198"/>
      <point x="94" y="-198" type="curve" smooth="yes"/>
      <point x="150" y="-198"/>
      <point x="198" y="-171"/>
      <point x="225" y="-137" type="curve"/>
      <point x="221" y="-119"/>
      <point x="212" y="-113"/>
      <point x="198" y="-112" type="curve"/>
      <point x="174" y="-136"/>
      <point x="132" y="-151"/>
      <point x="93" y="-151" type="curve" smooth="yes"/>
      <point x="63" y="-151"/>
      <point x="35" y="-142"/>
      <point x="19" y="-122" type="curve"/>
      <point x="28" y="-66"/>
      <point x="71" y="-25"/>
    </contour>
    <component base="i"/>
  </outline>
</glyph>
<glyph name="dotlessi" format="1">
  <advance width="227"/>
  <unicode hex="0131"/>
  <outline>
    <contour>
      <point x="130" y="0" type="move" name="ogonek"/>
    </contour>
    <contour>
      <point x="181" y="594" type="move" name="top"/>
    </contour>
    <contour>
      <point x="113" y="368" type="line"/>
      <point x="91" y="256"/>
      <point x="67" y="137"/>
      <point x="36" y="31" type="curve"/>
      <point x="53" y="2"/>
      <point x="90" y="-4"/>
      <point x="131" y="0" type="curve"/>
      <point x="145" y="151"/>
      <point x="157" y="274"/>
      <point x="171" y="394" type="curve"/>
      <point x="208" y="524" type="line"/>
      <point x="184" y="551"/>
      <point x="150" y="541"/>
      <point x="110" y="524" type="curve"/>
    </contour>
  </outline>
</glyph>
<glyph name="Kcommaaccent" format="1">
  <advance width="588"/>
  <unicode hex="0136"/>
  <outline>
    <contour>
      <point x="201" y="-245" type="curve"/>
      <point x="243" y="-207"/>
      <point x="298" y="-136"/>
      <point x="305" y="-70" type="curve"/>
      <point x="289" y="-26"/>
      <point x="242" y="-2"/>
      <point x="200" y="-36" type="curve"/>
      <point x="223" y="-148" type="line"/>
      <point x="169" y="-231" type="line"/>
      <point x="176" y="-242"/>
      <point x="190" y="-246"/>
    </contour>
    <component base="K"/>
  </outline>
</glyph>
<glyph name="kcommaaccent" format="1">
  <advance width="486"/>
  <unicode hex="0137"/>
  <outline>
    <contour>
      <point x="126" y="-242"/>
      <point x="140" y="-246"/>
      <point x="151" y="-245" type="curve"/>
      <point x="193" y="-207"/>
      <point x="248" y="-136"/>
      <point x="255" y="-70" type="curve"/>
      <point x="239" y="-26"/>
      <point x="192" y="-2"/>
      <point x="150" y="-36" type="curve"/>
      <point x="173" y="-148" type="line"/>
      <point x="119" y="-231" type="line"/>
    </contour>
    <component base="k"/>
  </outline>
</glyph>
<glyph name="Lcommaaccent" format="1">
  <advance width="446"/>
  <unicode hex="013B"/>
  <outline>
    <contour>
      <point x="151" y="-245" type="curve"/>
      <point x="193" y="-207"/>
      <point x="248" y="-136"/>
      <point x="255" y="-70" type="curve"/>
      <point x="239" y="-26"/>
      <point x="192" y="-2"/>
      <point x="150" y="-36" type="curve"/>
      <point x="173" y="-148" type="line"/>
      <point x="119" y="-231" type="line"/>
      <point x="126" y="-242"/>
      <point x="140" y="-246"/>
    </contour>
    <component base="L"/>
  </outline>
</glyph>
<glyph name="lcommaaccent" format="1">
  <advance width="245"/>
  <unicode hex="013C"/>
  <outline>
    <contour>
      <point x="33" y="-245" type="curve"/>
      <point x="75" y="-207"/>
      <point x="130" y="-136"/>
      <point x="137" y="-70" type="curve"/>
      <point x="121" y="-26"/>
      <point x="74" y="-2"/>
      <point x="32" y="-36" type="curve"/>
      <point x="55" y="-148" type="line"/>
      <point x="1" y="-231" type="line"/>
      <point x="8" y="-242"/>
      <point x="22" y="-246"/>
    </contour>
    <component base="l"/>
  </outline>
</glyph>
<glyph name="Lcaron" format="1">
  <advance width="446"/>
  <unicode hex="013D"/>
  <outline>
    <contour>
      <point x="337" y="602" type="curve"/>
      <point x="379" y="640"/>
      <point x="434" y="711"/>
      <point x="441" y="777" type="curve"/>
      <point x="425" y="821"/>
      <point x="378" y="845"/>
      <point x="336" y="811" type="curve"/>
      <point x="359" y="699" type="line"/>
      <point x="305" y="616" type="line"/>
      <point x="312" y="605"/>
      <point x="326" y="601"/>
    </contour>
    <component base="L"/>
  </outline>
</glyph>
<glyph name="lcaron" format="1">
  <advance width="313"/>
  <unicode hex="013E"/>
  <outline>
    <contour>
      <point x="311" y="682" type="curve"/>
      <point x="353" y="720"/>
      <point x="408" y="791"/>
      <point x="415" y="857" type="curve"/>
      <point x="399" y="901"/>
      <point x="352" y="925"/>
      <point x="310" y="891" type="curve"/>
      <point x="333" y="779" type="line"/>
      <point x="279" y="696" type="line"/>
      <point x="286" y="685"/>
      <point x="300" y="681"/>
    </contour>
    <component base="l"/>
  </outline>
</glyph>
<glyph name="Lslash" format="1">
  <advance width="501"/>
  <unicode hex="0141"/>
  <outline>
    <contour>
      <point x="332" y="444" type="curve"/>
      <point x="153" y="385" type="line"/>
      <point x="44" y="376" type="line"/>
      <point x="26" y="361"/>
      <point x="34" y="332"/>
      <point x="64" y="319" type="curve"/>
      <point x="184" y="352" type="line"/>
      <point x="352" y="391" type="line"/>
      <point x="369" y="414"/>
      <point x="351" y="441"/>
    </contour>
    <component base="L" xOffset="55"/>
  </outline>
</glyph>
<glyph name="lslash" format="1">
  <advance width="353"/>
  <unicode hex="0142"/>
  <outline>
    <contour>
      <point x="332" y="474" type="curve"/>
      <point x="190" y="415" type="line"/>
      <point x="48" y="390" type="line"/>
      <point x="31" y="375"/>
      <point x="40" y="345"/>
      <point x="71" y="334" type="curve"/>
      <point x="222" y="383" type="line"/>
      <point x="355" y="421" type="line"/>
      <point x="372" y="446"/>
      <point x="352" y="471"/>
    </contour>
    <component base="l" xOffset="53"/>
  </outline>
</glyph>
<glyph name="ncommaaccent" format="1">
  <advance width="500"/>
  <unicode hex="0146"/>
  <outline>
    <contour>
      <point x="149" y="-242"/>
      <point x="163" y="-246"/>
      <point x="174" y="-245" type="curve"/>
      <point x="216" y="-207"/>
      <point x="271" y="-136"/>
      <point x="278" y="-70" type="curve"/>
      <point x="262" y="-26"/>
      <point x="215" y="-2"/>
      <point x="173" y="-36" type="curve"/>
      <point x="196" y="-148" type="line"/>
      <point x="142" y="-231" type="line"/>
    </contour>
    <component base="n"/>
  </outline>
</glyph>
<glyph name="OE" format="1">
  <advance width="860"/>
  <unicode hex="0152"/>
  <outline>
    <contour>
      <point x="507" y="656" type="curve"/>
      <point x="474" y="696"/>
      <point x="434" y="735"/>
      <point x="397" y="735" type="curve" smooth="yes"/>
      <point x="237" y="735"/>
      <point x="53" y="517"/>
      <point x="55" y="297" type="curve" smooth="yes"/>
      <point x="56" y="180"/>
      <point x="158" y="0"/>
      <point x="278" y="0" type="curve" smooth="yes"/>
      <point x="315" y="0"/>
      <point x="364" y="27"/>
      <point x="410" y="73" type="curve"/>
      <point x="427" y="30"/>
      <point x="453" y="13"/>
      <point x="495" y="0" type="curve"/>
      <point x="778" y="29" type="line"/>
      <point x="795" y="57"/>
      <point x="804" y="103"/>
      <point x="772" y="113" type="curve"/>
      <point x="678" y="96"/>
      <point x="585" y="79"/>
      <point x="497" y="73" type="curve"/>
      <point x="565" y="332" type="line"/>
      <point x="649" y="334"/>
      <point x="712" y="329"/>
      <point x="775" y="325" type="curve"/>
      <point x="794" y="355"/>
      <point x="796" y="390"/>
      <point x="784" y="408" type="curve"/>
      <point x="730" y="402"/>
      <point x="662" y="399"/>
      <point x="569" y="389" type="curve"/>
      <point x="548" y="597" type="line"/>
      <point x="580" y="646" type="line"/>
      <point x="653" y="666"/>
      <point x="718" y="663"/>
      <point x="764" y="656" type="curve"/>
      <point x="827" y="615" type="line"/>
      <point x="861" y="644"/>
      <point x="878" y="708"/>
      <point x="850" y="728" type="curve"/>
      <point x="666" y="728"/>
      <point x="583" y="718"/>
    </contour>
    <contour>
      <point x="132" y="314" type="curve"/>
      <point x="132" y="472"/>
      <point x="238" y="612"/>
      <point x="391" y="684" type="curve"/>
      <point x="486" y="590"/>
      <point x="501" y="514"/>
      <point x="509" y="373" type="curve"/>
      <point x="491" y="247"/>
      <point x="423" y="125"/>
      <point x="281" y="52" type="curve"/>
      <point x="176" y="99"/>
      <point x="130" y="212"/>
    </contour>
  </outline>
</glyph>
<glyph name="Rcommaaccent" format="1">
  <advance width="568"/>
  <unicode hex="0156"/>
  <outline>
    <contour>
      <point x="211" y="-245" type="curve"/>
      <point x="253" y="-207"/>
      <point x="308" y="-136"/>
      <point x="315" y="-70" type="curve"/>
      <point x="299" y="-26"/>
      <point x="252" y="-2"/>
      <point x="210" y="-36" type="curve"/>
      <point x="233" y="-148" type="line"/>
      <point x="179" y="-231" type="line"/>
      <point x="186" y="-242"/>
      <point x="200" y="-246"/>
    </contour>
    <component base="R"/>
  </outline>
</glyph>
<glyph name="rcommaaccent" format="1">
  <advance width="382"/>
  <unicode hex="0157"/>
  <outline>
    <contour>
      <point x="-12" y="-242"/>
      <point x="2" y="-246"/>
      <point x="13" y="-245" type="curve"/>
      <point x="55" y="-207"/>
      <point x="110" y="-136"/>
      <point x="117" y="-70" type="curve"/>
      <point x="101" y="-26"/>
      <point x="54" y="-2"/>
      <point x="12" y="-36" type="curve"/>
      <point x="35" y="-148" type="line"/>
      <point x="-19" y="-231" type="line"/>
    </contour>
    <component base="r"/>
  </outline>
</glyph>
<glyph name="uogonek" format="1">
  <advance width="501"/>
  <unicode hex="0173"/>
  <outline>
    <contour>
      <point x="391" y="0" type="curve"/>
      <point x="392" y="15"/>
      <point x="380" y="32"/>
      <point x="366" y="32" type="curve"/>
      <point x="275" y="11"/>
      <point x="206" y="-59"/>
      <point x="206" y="-117" type="curve" smooth="yes"/>
      <point x="206" y="-162"/>
      <point x="250" y="-198"/>
      <point x="319" y="-198" type="curve" smooth="yes"/>
      <point x="367" y="-198"/>
      <point x="411" y="-180"/>
      <point x="445" y="-137" type="curve"/>
      <point x="441" y="-119"/>
      <point x="432" y="-113"/>
      <point x="418" y="-112" type="curve"/>
      <point x="377" y="-156"/>
      <point x="301" y="-160"/>
      <point x="258" y="-128" type="curve"/>
      <point x="274" y="-58"/>
      <point x="322" y="-18"/>
    </contour>
    <component base="u"/>
  </outline>
</glyph>
<glyph name="florin" format="1">
  <advance width="468"/>
  <unicode hex="0192"/>
  <outline>
    <contour>
      <point x="226" y="386" type="line"/>
      <point x="86" y="392" type="line"/>
      <point x="68" y="370"/>
      <point x="67" y="343"/>
      <point x="84" y="322" type="curve"/>
      <point x="259" y="355" type="line"/>
      <point x="448" y="366" type="line"/>
      <point x="469" y="395"/>
      <point x="468" y="426"/>
      <point x="450" y="436" type="curve"/>
    </contour>
    <contour>
      <point x="75" y="-194" type="line"/>
      <point x="117" y="-205"/>
      <point x="152" y="-198"/>
      <point x="179" y="-172" type="curve"/>
      <point x="246" y="146"/>
      <point x="301" y="489"/>
      <point x="296" y="718" type="curve"/>
      <point x="325" y="741"/>
      <point x="351" y="754"/>
      <point x="380" y="761" type="curve"/>
      <point x="417" y="732"/>
      <point x="434" y="708"/>
      <point x="437" y="648" type="curve"/>
      <point x="458" y="635"/>
      <point x="496" y="642"/>
      <point x="521" y="662" type="curve"/>
      <point x="516" y="730"/>
      <point x="462" y="802"/>
      <point x="384" y="814" type="curve"/>
      <point x="313" y="806"/>
      <point x="271" y="769"/>
      <point x="222" y="714" type="curve"/>
      <point x="225" y="410" type="line"/>
      <point x="211" y="281"/>
      <point x="164" y="17"/>
      <point x="108" y="-149" type="curve"/>
      <point x="132" y="-149" type="line"/>
      <point x="35" y="-19" type="line"/>
      <point x="13" y="-14"/>
      <point x="-1" y="-24"/>
      <point x="-8" y="-43" type="curve"/>
    </contour>
  </outline>
</glyph>
<glyph name="scommaaccent" format="1">
  <advance width="464"/>
  <unicode hex="0219"/>
  <outline>
    <contour>
      <point x="106" y="-242"/>
      <point x="120" y="-246"/>
      <point x="131" y="-245" type="curve"/>
      <point x="173" y="-207"/>
      <point x="228" y="-136"/>
      <point x="235" y="-70" type="curve"/>
      <point x="219" y="-26"/>
      <point x="172" y="-2"/>
      <point x="130" y="-36" type="curve"/>
      <point x="153" y="-148" type="line"/>
      <point x="99" y="-231" type="line"/>
    </contour>
    <component base="s"/>
  </outline>
</glyph>
<glyph name="tcommaaccent" format="1">
  <advance width="372"/>
  <unicode hex="021B"/>
  <outline>
    <contour>
      <point x="76" y="-242"/>
      <point x="90" y="-246"/>
      <point x="101" y="-245" type="curve"/>
      <point x="143" y="-207"/>
      <point x="198" y="-136"/>
      <point x="205" y="-70" type="curve"/>
      <point x="189" y="-26"/>
      <point x="142" y="-2"/>
      <point x="100" y="-36" type="curve"/>
      <point x="123" y="-148" type="line"/>
      <point x="69" y="-231" type="line"/>
    </contour>
    <component base="t"/>
  </outline>
</glyph>
<glyph name="circumflex" format="1">
  <advance width="301"/>
  <unicode hex="02C6"/>
  <outline>
    <contour>
      <point x="69" y="616" type="line"/>
      <point x="71" y="598"/>
      <point x="86" y="592"/>
      <point x="99" y="590" type="curve"/>
      <point x="225" y="701" type="line"/>
      <point x="276" y="593" type="line"/>
      <point x="291" y="583"/>
      <point x="323" y="579"/>
      <point x="346" y="600" type="curve"/>
      <point x="280" y="738" type="line"/>
      <point x="264" y="750"/>
      <point x="237" y="753"/>
      <point x="210" y="746" type="curve"/>
    </contour>
    <contour>
      <point x="198" y="594" type="move" name="_top"/>
    </contour>
  </outline>
</glyph>
<glyph name="caron" format="1">
  <advance width="279"/>
  <unicode hex="02C7"/>
  <outline>
    <contour>
      <point x="203" y="594" type="move" name="_top"/>
    </contour>
    <contour>
      <point x="220" y="590" type="curve"/>
      <point x="345" y="706" type="line"/>
      <point x="339" y="734"/>
      <point x="315" y="743"/>
      <point x="281" y="733" type="curve"/>
      <point x="179" y="625" type="line"/>
      <point x="129" y="724" type="line"/>
      <point x="114" y="730"/>
      <point x="98" y="727"/>
      <point x="89" y="712" type="curve"/>
      <point x="150" y="598" type="line"/>
      <point x="163" y="588"/>
      <point x="192" y="582"/>
    </contour>
  </outline>
</glyph>
<glyph name="breve" format="1">
  <advance width="286"/>
  <unicode hex="02D8"/>
  <outline>
    <contour>
      <point x="218" y="594" type="move" name="_top"/>
    </contour>
    <contour>
      <point x="90" y="713" type="curve"/>
      <point x="111" y="639"/>
      <point x="157" y="597"/>
      <point x="226" y="597" type="curve" smooth="yes"/>
      <point x="288" y="597"/>
      <point x="337" y="639"/>
      <point x="351" y="700" type="curve"/>
      <point x="337" y="721"/>
      <point x="312" y="733"/>
      <point x="269" y="721" type="curve"/>
      <point x="264" y="685"/>
      <point x="239" y="657"/>
      <point x="192" y="649" type="curve"/>
      <point x="158" y="659"/>
      <point x="136" y="684"/>
      <point x="124" y="721" type="curve"/>
      <point x="108" y="721"/>
      <point x="97" y="719"/>
    </contour>
  </outline>
</glyph>
<glyph name="ring" format="1">
  <advance width="212"/>
  <unicode hex="02DA"/>
  <outline>
    <contour>
      <point x="133" y="594" type="move" name="_top"/>
    </contour>
    <contour>
      <point x="210" y="783" type="curve"/>
      <point x="154" y="783"/>
      <point x="104" y="731"/>
      <point x="85" y="683" type="curve" smooth="yes"/>
      <point x="66" y="626"/>
      <point x="92" y="582"/>
      <point x="147" y="582" type="curve" smooth="yes"/>
      <point x="202" y="582"/>
      <point x="253" y="634"/>
      <point x="272" y="683" type="curve" smooth="yes"/>
      <point x="291" y="739"/>
      <point x="265" y="783"/>
    </contour>
    <contour>
      <point x="193" y="753" type="curve"/>
      <point x="230" y="753"/>
      <point x="230" y="719"/>
      <point x="219" y="683" type="curve" smooth="yes"/>
      <point x="214" y="660"/>
      <point x="205" y="640"/>
      <point x="194" y="624" type="curve"/>
      <point x="185" y="618"/>
      <point x="177" y="612"/>
      <point x="162" y="612" type="curve" smooth="yes"/>
      <point x="126" y="612"/>
      <point x="125" y="646"/>
      <point x="137" y="683" type="curve" smooth="yes"/>
      <point x="144" y="705"/>
      <point x="154" y="727"/>
      <point x="165" y="742" type="curve"/>
      <point x="175" y="747"/>
      <point x="184" y="753"/>
    </contour>
  </outline>
</glyph>
<glyph name="ogonek" format="1">
  <advance width="292"/>
  <unicode hex="02DB"/>
  <outline>
    <contour>
      <point x="110" y="0" type="move" name="_ogonek"/>
    </contour>
    <contour>
      <point x="117" y="-14" type="curve"/>
      <point x="121" y="1"/>
      <point x="109" y="9"/>
      <point x="81" y="9" type="curve"/>
      <point x="0" y="-8"/>
      <point x="-45" y="-40"/>
      <point x="-54" y="-95" type="curve" smooth="yes"/>
      <point x="-64" y="-154"/>
      <point x="0" y="-198"/>
      <point x="77" y="-198" type="curve" smooth="yes"/>
      <point x="131" y="-198"/>
      <point x="176" y="-171"/>
      <point x="208" y="-137" type="curve"/>
      <point x="204" y="-119"/>
      <point x="195" y="-113"/>
      <point x="181" y="-112" type="curve"/>
      <point x="154" y="-135"/>
      <point x="118" y="-147"/>
      <point x="83" y="-147" type="curve" smooth="yes"/>
      <point x="50" y="-147"/>
      <point x="23" y="-138"/>
      <point x="9" y="-113" type="curve"/>
      <point x="16" y="-62"/>
      <point x="54" y="-26"/>
    </contour>
  </outline>
</glyph>
<glyph name="tilde" format="1">
  <advance width="348"/>
  <unicode hex="02DC"/>
  <outline>
    <contour>
      <point x="191" y="713" type="curve"/>
      <point x="126" y="693"/>
      <point x="93" y="649"/>
      <point x="71" y="618" type="curve"/>
      <point x="70" y="602"/>
      <point x="89" y="588"/>
      <point x="114" y="589" type="curve"/>
      <point x="166" y="660" type="line"/>
      <point x="171" y="662" type="line"/>
      <point x="193" y="626"/>
      <point x="229" y="607"/>
      <point x="293" y="585" type="curve"/>
      <point x="351" y="615"/>
      <point x="384" y="643"/>
      <point x="404" y="677" type="curve"/>
      <point x="410" y="697"/>
      <point x="390" y="712"/>
      <point x="362" y="706" type="curve"/>
      <point x="303" y="637" type="line"/>
      <point x="299" y="638" type="line"/>
      <point x="278" y="670"/>
      <point x="249" y="689"/>
    </contour>
    <contour>
      <point x="233" y="594" type="move" name="_top"/>
    </contour>
  </outline>
</glyph>
<glyph name="hungarumlaut" format="1">
  <advance width="267"/>
  <unicode hex="02DD"/>
  <outline>
    <contour>
      <point x="164" y="594" type="move" name="_top"/>
    </contour>
    <contour>
      <point x="68" y="594" type="line"/>
      <point x="75" y="589"/>
      <point x="87" y="584"/>
      <point x="105" y="586" type="curve"/>
      <point x="185" y="694" type="line"/>
      <point x="211" y="747" type="line"/>
      <point x="200" y="756"/>
      <point x="166" y="757"/>
      <point x="144" y="747" type="curve"/>
    </contour>
    <contour>
      <point x="198" y="594" type="line"/>
      <point x="204" y="589"/>
      <point x="217" y="584"/>
      <point x="234" y="586" type="curve"/>
      <point x="314" y="694" type="line"/>
      <point x="340" y="747" type="line"/>
      <point x="329" y="756"/>
      <point x="296" y="757"/>
      <point x="273" y="747" type="curve"/>
    </contour>
  </outline>
</glyph>
<glyph name="pi" format="1">
  <advance width="753"/>
  <unicode hex="03C0"/>
  <outline>
    <contour>
      <point x="476" y="475"/>
      <point x="353" y="507"/>
      <point x="213" y="567" type="curve"/>
      <point x="156" y="530"/>
      <point x="125" y="502"/>
      <point x="99" y="457" type="curve"/>
      <point x="99" y="448"/>
      <point x="104" y="438"/>
      <point x="127" y="434" type="curve"/>
      <point x="215" y="500" type="line"/>
      <point x="220" y="501" type="line"/>
      <point x="303" y="464"/>
      <point x="439" y="426"/>
      <point x="592" y="426" type="curve"/>
      <point x="654" y="444"/>
      <point x="706" y="463"/>
      <point x="748" y="515" type="curve"/>
      <point x="741" y="543"/>
      <point x="721" y="561"/>
      <point x="689" y="568" type="curve"/>
      <point x="580" y="473" type="line"/>
      <point x="574" y="470" type="line"/>
    </contour>
    <contour>
      <point x="311" y="498" type="line"/>
      <point x="295" y="357"/>
      <point x="231" y="104"/>
      <point x="180" y="24" type="curve"/>
      <point x="176" y="23"/>
      <point x="171" y="22"/>
      <point x="166" y="21" type="curve"/>
      <point x="125" y="57"/>
      <point x="115" y="91"/>
      <point x="101" y="145" type="curve"/>
      <point x="69" y="154"/>
      <point x="53" y="140"/>
      <point x="34" y="111" type="curve"/>
      <point x="61" y="50"/>
      <point x="70" y="25"/>
      <point x="146" y="-20" type="curve"/>
      <point x="195" y="-23"/>
      <point x="217" y="-11"/>
      <point x="234" y="7" type="curve"/>
      <point x="301" y="145"/>
      <point x="346" y="356"/>
      <point x="369" y="488" type="curve"/>
    </contour>
    <contour>
      <point x="490" y="326"/>
      <point x="448" y="165"/>
      <point x="471" y="-20" type="curve"/>
      <point x="539" y="-23"/>
      <point x="592" y="-23"/>
      <point x="646" y="6" type="curve"/>
      <point x="659" y="41"/>
      <point x="653" y="66"/>
      <point x="620" y="73" type="curve"/>
      <point x="586" y="55"/>
      <point x="556" y="40"/>
      <point x="524" y="31" type="curve"/>
      <point x="522" y="193"/>
      <point x="538" y="310"/>
      <point x="587" y="451" type="curve"/>
      <point x="532" y="459" type="line"/>
    </contour>
  </outline>
</glyph>
<glyph name="emdash" format="1">
  <advance width="950"/>
  <unicode hex="2014"/>
  <outline>
    <contour>
      <point x="901" y="367" type="curve"/>
      <point x="482" y="352" type="line"/>
      <point x="81" y="356" type="line"/>
      <point x="60" y="330"/>
      <point x="56" y="305"/>
      <point x="70" y="291" type="curve"/>
      <point x="886" y="298" type="line"/>
      <point x="912" y="327"/>
      <point x="916" y="357"/>
    </contour>
  </outline>
</glyph>
<glyph name="quoteright" format="1">
  <advance width="297"/>
  <unicode hex="2019"/>
  <outline>
    <contour>
      <point x="194" y="644" type="curve"/>
      <point x="241" y="686"/>
      <point x="303" y="767"/>
      <point x="311" y="841" type="curve"/>
      <point x="293" y="891"/>
      <point x="240" y="918"/>
      <point x="193" y="879" type="curve"/>
      <point x="219" y="753" type="line"/>
      <point x="158" y="659" type="line"/>
      <point x="166" y="647"/>
      <point x="181" y="643"/>
    </contour>
  </outline>
</glyph>
<glyph name="dagger" format="1">
  <advance width="432"/>
  <unicode hex="2020"/>
  <outline>
    <contour>
      <point x="90" y="515" type="curve"/>
      <point x="271" y="528" type="line"/>
      <point x="430" y="523" type="line"/>
      <point x="456" y="552"/>
      <point x="460" y="588"/>
      <point x="445" y="597" type="curve"/>
      <point x="249" y="565" type="line"/>
      <point x="100" y="586" type="line"/>
      <point x="80" y="561"/>
      <point x="76" y="529"/>
    </contour>
    <contour>
      <point x="217" y="464" type="line"/>
      <point x="103" y="-259" type="line"/>
      <point x="123" y="-272"/>
      <point x="138" y="-271"/>
      <point x="150" y="-261" type="curve"/>
      <point x="286" y="504" type="line"/>
      <point x="362" y="793" type="line"/>
      <point x="338" y="816"/>
      <point x="292" y="811"/>
      <point x="258" y="791" type="curve"/>
    </contour>
  </outline>
</glyph>
<glyph name="daggerdbl" format="1">
  <advance width="432"/>
  <unicode hex="2021"/>
  <outline>
    <contour>
      <point x="337" y="21" type="curve"/>
      <point x="156" y="8" type="line"/>
      <point x="-3" y="13" type="line"/>
      <point x="-29" y="-16"/>
      <point x="-33" y="-52"/>
      <point x="-18" y="-62" type="curve"/>
      <point x="177" y="-29" type="line"/>
      <point x="326" y="-51" type="line"/>
      <point x="347" y="-25"/>
      <point x="351" y="6"/>
    </contour>
    <contour>
      <point x="90" y="515" type="curve"/>
      <point x="271" y="528" type="line"/>
      <point x="430" y="523" type="line"/>
      <point x="456" y="552"/>
      <point x="460" y="588"/>
      <point x="445" y="597" type="curve"/>
      <point x="249" y="565" type="line"/>
      <point x="100" y="586" type="line"/>
      <point x="80" y="561"/>
      <point x="76" y="529"/>
    </contour>
    <contour>
      <point x="362" y="793" type="line"/>
      <point x="338" y="816"/>
      <point x="292" y="811"/>
      <point x="258" y="791" type="curve"/>
      <point x="230" y="550" type="line"/>
      <point x="193" y="255" type="line"/>
      <point x="135" y="-5" type="line"/>
      <point x="65" y="-257" type="line"/>
      <point x="89" y="-281"/>
      <point x="135" y="-275"/>
      <point x="168" y="-255" type="curve"/>
      <point x="197" y="-10" type="line"/>
      <point x="233" y="270" type="line"/>
      <point x="298" y="551" type="line"/>
    </contour>
  </outline>
</glyph>
<glyph name="guilsinglleft" format="1">
  <advance width="340"/>
  <unicode hex="2039"/>
  <outline>
    <contour>
      <point x="255" y="220" type="curve"/>
      <point x="174" y="293" type="line"/>
      <point x="116" y="359" type="line"/>
      <point x="296" y="477" type="line"/>
      <point x="322" y="518"/>
      <point x="315" y="548"/>
      <point x="286" y="558" type="curve"/>
      <point x="188" y="477" type="line"/>
      <point x="68" y="389" type="line"/>
      <point x="62" y="378"/>
      <point x="59" y="365"/>
      <point x="59" y="354" type="curve"/>
      <point x="216" y="147" type="line"/>
      <point x="241" y="147"/>
      <point x="264" y="184"/>
    </contour>
  </outline>
</glyph>
<glyph name="rupee" format="1">
  <advance width="952"/>
  <unicode hex="20A8"/>
  <outline>
    <contour>
      <point x="790" y="5"/>
      <point x="875" y="69"/>
      <point x="898" y="172" type="curve"/>
      <point x="868" y="293"/>
      <point x="635" y="337"/>
      <point x="635" y="390" type="curve" smooth="yes"/>
      <point x="635" y="424"/>
      <point x="708" y="487"/>
      <point x="781" y="507" type="curve"/>
      <point x="812" y="467"/>
      <point x="826" y="435"/>
      <point x="828" y="390" type="curve"/>
      <point x="879" y="380"/>
      <point x="904" y="395"/>
      <point x="908" y="414" type="curve"/>
      <point x="892" y="494"/>
      <point x="844" y="529"/>
      <point x="788" y="553" type="curve"/>
      <point x="681" y="545"/>
      <point x="573" y="475"/>
      <point x="556" y="375" type="curve"/>
      <point x="585" y="269"/>
      <point x="821" y="227"/>
      <point x="821" y="171" type="curve" smooth="yes"/>
      <point x="821" y="125"/>
      <point x="771" y="65"/>
      <point x="665" y="44" type="curve"/>
      <point x="618" y="82"/>
      <point x="596" y="127"/>
      <point x="584" y="189" type="curve"/>
      <point x="552" y="195"/>
      <point x="533" y="187"/>
      <point x="508" y="150" type="curve"/>
      <point x="517" y="93"/>
      <point x="582" y="22"/>
      <point x="657" y="0" type="curve"/>
    </contour>
    <component base="R"/>
  </outline>
</glyph>
<glyph name="Euro" format="1">
  <advance width="658"/>
  <unicode hex="20AC"/>
  <outline>
    <contour>
      <point x="461" y="679" type="line"/>
      <point x="498" y="637"/>
      <point x="512" y="616"/>
      <point x="528" y="563" type="curve"/>
      <point x="564" y="554"/>
      <point x="586" y="561"/>
      <point x="613" y="584" type="curve"/>
      <point x="597" y="654"/>
      <point x="540" y="714"/>
      <point x="465" y="744" type="curve"/>
      <point x="351" y="708"/>
      <point x="247" y="617"/>
      <point x="189" y="540" type="curve"/>
      <point x="153" y="456"/>
      <point x="131" y="387"/>
      <point x="131" y="318" type="curve" smooth="yes"/>
      <point x="133" y="164"/>
      <point x="200" y="51"/>
      <point x="395" y="0" type="curve"/>
      <point x="478" y="35"/>
      <point x="576" y="97"/>
      <point x="615" y="147" type="curve"/>
      <point x="617" y="168"/>
      <point x="599" y="197"/>
      <point x="567" y="189" type="curve"/>
      <point x="518" y="137"/>
      <point x="443" y="82"/>
      <point x="384" y="62" type="curve"/>
      <point x="262" y="108"/>
      <point x="204" y="178"/>
      <point x="204" y="319" type="curve" smooth="yes"/>
      <point x="204" y="460"/>
      <point x="313" y="607"/>
      <point x="446" y="678" type="curve"/>
    </contour>
    <contour>
      <point x="162" y="289" type="line"/>
      <point x="48" y="293" type="line"/>
      <point x="28" y="266"/>
      <point x="25" y="247"/>
      <point x="40" y="234" type="curve"/>
      <point x="424" y="265" type="line"/>
      <point x="448" y="296"/>
      <point x="451" y="319"/>
      <point x="436" y="327" type="curve"/>
    </contour>
    <contour>
      <point x="175" y="431" type="line"/>
      <point x="60" y="434" type="line"/>
      <point x="42" y="407"/>
      <point x="39" y="389"/>
      <point x="53" y="376" type="curve"/>
      <point x="438" y="406" type="line"/>
      <point x="462" y="437"/>
      <point x="465" y="460"/>
      <point x="449" y="469" type="curve"/>
    </contour>
  </outline>
</glyph>
<glyph name="indianrupee" format="1">
  <advance width="528"/>
  <unicode hex="20B9"/>
  <outline>
    <contour>
      <point x="110" y="348"/>
      <point x="89" y="330"/>
      <point x="84" y="297" type="curve"/>
      <point x="116" y="200"/>
      <point x="201" y="88"/>
      <point x="303" y="0" type="curve"/>
      <point x="340" y="-1"/>
      <point x="373" y="29"/>
      <point x="366" y="63" type="curve"/>
      <point x="212" y="166" type="line"/>
      <point x="157" y="294" type="line"/>
      <point x="314" y="283"/>
      <point x="437" y="395"/>
      <point x="437" y="527" type="curve" smooth="yes"/>
      <point x="437" y="598"/>
      <point x="389" y="700"/>
      <point x="314" y="700" type="curve" smooth="yes"/>
      <point x="284" y="700"/>
      <point x="267" y="689"/>
      <point x="255" y="670" type="curve"/>
      <point x="343" y="650"/>
      <point x="362" y="590"/>
      <point x="362" y="523" type="curve" smooth="yes"/>
      <point x="362" y="468"/>
      <point x="345" y="421"/>
      <point x="310" y="381" type="curve"/>
      <point x="248" y="348"/>
      <point x="194" y="339"/>
      <point x="132" y="355" type="curve"/>
    </contour>
    <contour>
      <point x="579" y="661"/>
      <point x="583" y="682"/>
      <point x="571" y="691" type="curve"/>
      <point x="328" y="677" type="line"/>
      <point x="110" y="681" type="line"/>
      <point x="94" y="657"/>
      <point x="91" y="640"/>
      <point x="102" y="627" type="curve"/>
      <point x="559" y="634" type="line"/>
    </contour>
    <contour>
      <point x="551" y="505"/>
      <point x="555" y="526"/>
      <point x="543" y="535" type="curve"/>
      <point x="300" y="521" type="line"/>
      <point x="82" y="525" type="line"/>
      <point x="66" y="501"/>
      <point x="63" y="484"/>
      <point x="74" y="471" type="curve"/>
      <point x="531" y="478" type="line"/>
    </contour>
  </outline>
</glyph>
<glyph name="turkishlira" format="1">
  <advance width="446"/>
  <unicode hex="20BA"/>
  <outline>
    <contour>
      <point x="259" y="710" type="curve"/>
      <point x="243" y="517" type="line"/>
      <point x="215" y="383"/>
      <point x="159" y="203"/>
      <point x="103" y="82" type="curve"/>
      <point x="112" y="35"/>
      <point x="139" y="15"/>
      <point x="202" y="0" type="curve"/>
      <point x="343" y="32"/>
      <point x="424" y="67"/>
      <point x="479" y="102" type="curve"/>
      <point x="506" y="139"/>
      <point x="485" y="191"/>
      <point x="441" y="186" type="curve"/>
      <point x="408" y="155"/>
      <point x="356" y="105"/>
      <point x="276" y="76" type="curve"/>
      <point x="157" y="61" type="line"/>
      <point x="180" y="36" type="line"/>
      <point x="300" y="477" type="line"/>
      <point x="365" y="726" type="line"/>
      <point x="342" y="751"/>
      <point x="303" y="739"/>
    </contour>
    <contour>
      <point x="466" y="604" type="curve"/>
      <point x="269" y="547" type="line"/>
      <point x="87" y="512" type="line"/>
      <point x="72" y="482"/>
      <point x="72" y="456"/>
      <point x="89" y="446" type="curve"/>
      <point x="464" y="534" type="line"/>
      <point x="484" y="568"/>
      <point x="481" y="598"/>
    </contour>
    <contour>
      <point x="461" y="466" type="curve"/>
      <point x="264" y="409" type="line"/>
      <point x="82" y="374" type="line"/>
      <point x="67" y="344"/>
      <point x="67" y="318"/>
      <point x="84" y="308" type="curve"/>
      <point x="459" y="396" type="line"/>
      <point x="479" y="430"/>
      <point x="476" y="460"/>
    </contour>
  </outline>
</glyph>
<glyph name="litre" format="1">
  <advance width="371"/>
  <unicode hex="2113"/>
  <outline>
    <contour>
      <point x="270" y="432"/>
      <point x="370" y="521"/>
      <point x="417" y="652" type="curve"/>
      <point x="412" y="742"/>
      <point x="390" y="793"/>
      <point x="349" y="809" type="curve"/>
      <point x="287" y="786"/>
      <point x="255" y="747"/>
      <point x="229" y="688" type="curve"/>
      <point x="191" y="480"/>
      <point x="147" y="272"/>
      <point x="95" y="57" type="curve"/>
      <point x="101" y="27"/>
      <point x="123" y="11"/>
      <point x="173" y="0" type="curve"/>
      <point x="235" y="56"/>
      <point x="277" y="84"/>
      <point x="322" y="134" type="curve"/>
      <point x="322" y="153"/>
      <point x="315" y="161"/>
      <point x="298" y="160" type="curve"/>
      <point x="258" y="130"/>
      <point x="223" y="103"/>
      <point x="192" y="85" type="curve"/>
      <point x="181" y="92" type="line"/>
      <point x="238" y="402"/>
      <point x="260" y="584"/>
      <point x="332" y="773" type="curve"/>
      <point x="316" y="762" type="line"/>
      <point x="354" y="735"/>
      <point x="365" y="705"/>
      <point x="365" y="655" type="curve"/>
      <point x="342" y="568"/>
      <point x="253" y="486"/>
      <point x="186" y="442" type="curve"/>
      <point x="57" y="406" type="line"/>
      <point x="42" y="385"/>
      <point x="50" y="366"/>
      <point x="72" y="359" type="curve"/>
    </contour>
  </outline>
</glyph>
<glyph name="trademark" format="1">
  <advance width="716"/>
  <unicode hex="2122"/>
  <outline>
    <contour>
      <point x="199" y="607" type="line"/>
      <point x="181" y="503"/>
      <point x="166" y="438"/>
      <point x="140" y="340" type="curve"/>
      <point x="150" y="325"/>
      <point x="180" y="321"/>
      <point x="204" y="323" type="curve"/>
      <point x="213" y="406"/>
      <point x="224" y="478"/>
      <point x="230" y="541" type="curve"/>
      <point x="270" y="717" type="line"/>
      <point x="257" y="724"/>
      <point x="230" y="723"/>
      <point x="203" y="708" type="curve"/>
    </contour>
    <contour>
      <point x="89" y="724" type="curve"/>
      <point x="81" y="714"/>
      <point x="78" y="688"/>
      <point x="92" y="674" type="curve"/>
      <point x="234" y="688" type="line"/>
      <point x="359" y="676" type="line"/>
      <point x="373" y="689"/>
      <point x="377" y="723"/>
      <point x="368" y="729" type="curve"/>
      <point x="245" y="731"/>
      <point x="168" y="729"/>
    </contour>
    <contour>
      <point x="519" y="449" type="curve"/>
      <point x="538" y="436"/>
      <point x="548" y="433"/>
      <point x="571" y="438" type="curve"/>
      <point x="700" y="659" type="line"/>
      <point x="677" y="671" type="line"/>
      <point x="675" y="602" type="line"/>
      <point x="656" y="488"/>
      <point x="644" y="440"/>
      <point x="620" y="341" type="curve"/>
      <point x="630" y="325"/>
      <point x="660" y="321"/>
      <point x="683" y="323" type="curve"/>
      <point x="691" y="410"/>
      <point x="705" y="491"/>
      <point x="711" y="548" type="curve"/>
      <point x="752" y="730" type="line"/>
      <point x="745" y="734"/>
      <point x="739" y="735"/>
      <point x="731" y="735" type="curve" smooth="yes"/>
      <point x="719" y="735"/>
      <point x="694" y="734"/>
      <point x="676" y="730" type="curve"/>
      <point x="620" y="602" type="line"/>
      <point x="539" y="472" type="line"/>
      <point x="567" y="462" type="line"/>
      <point x="530" y="514" type="line"/>
      <point x="510" y="568"/>
      <point x="495" y="663"/>
      <point x="489" y="727" type="curve"/>
      <point x="485" y="732"/>
      <point x="467" y="734"/>
      <point x="457" y="734" type="curve" smooth="yes"/>
      <point x="447" y="734"/>
      <point x="429" y="732"/>
      <point x="418" y="727" type="curve"/>
      <point x="410" y="602" type="line"/>
      <point x="392" y="492"/>
      <point x="380" y="445"/>
      <point x="354" y="341" type="curve"/>
      <point x="364" y="325"/>
      <point x="399" y="321"/>
      <point x="421" y="323" type="curve"/>
      <point x="431" y="410"/>
      <point x="444" y="491"/>
      <point x="449" y="548" type="curve"/>
      <point x="474" y="673" type="line"/>
      <point x="453" y="676" type="line"/>
      <point x="462" y="607"/>
      <point x="477" y="527"/>
    </contour>
  </outline>
</glyph>
<glyph name="partialdiff" format="1">
  <advance width="456"/>
  <unicode hex="2202"/>
  <outline>
    <contour>
      <point x="129" y="758" type="curve"/>
      <point x="294" y="663" type="line"/>
      <point x="384" y="528"/>
      <point x="402" y="185"/>
      <point x="202" y="55" type="curve"/>
      <point x="137" y="83"/>
      <point x="103" y="139"/>
      <point x="103" y="217" type="curve" smooth="yes"/>
      <point x="103" y="319"/>
      <point x="146" y="416"/>
      <point x="247" y="474" type="curve"/>
      <point x="307" y="442"/>
      <point x="330" y="400"/>
      <point x="359" y="345" type="curve"/>
      <point x="384" y="365" type="line"/>
      <point x="357" y="432"/>
      <point x="340" y="482"/>
      <point x="259" y="536" type="curve"/>
      <point x="108" y="480"/>
      <point x="32" y="342"/>
      <point x="32" y="218" type="curve" smooth="yes"/>
      <point x="32" y="112"/>
      <point x="89" y="23"/>
      <point x="207" y="0" type="curve"/>
      <point x="359" y="73"/>
      <point x="414" y="243"/>
      <point x="414" y="408" type="curve" smooth="yes"/>
      <point x="414" y="584"/>
      <point x="342" y="723"/>
      <point x="162" y="803" type="curve"/>
      <point x="138" y="797"/>
      <point x="127" y="789"/>
    </contour>
  </outline>
</glyph>
<glyph name="summation" format="1">
  <advance width="766"/>
  <unicode hex="2211"/>
  <outline>
    <contour>
      <point x="356" y="765"/>
      <point x="517" y="765"/>
      <point x="665" y="755" type="curve"/>
      <point x="709" y="737"/>
      <point x="726" y="713"/>
      <point x="739" y="678" type="curve"/>
      <point x="740" y="630"/>
      <point x="724" y="584"/>
      <point x="700" y="553" type="curve"/>
      <point x="658" y="543"/>
      <point x="622" y="562"/>
      <point x="604" y="583" type="curve"/>
      <point x="629" y="624"/>
      <point x="647" y="653"/>
      <point x="650" y="693" type="curve"/>
      <point x="523" y="704"/>
      <point x="333" y="710"/>
      <point x="171" y="685" type="curve"/>
      <point x="191" y="699" type="line"/>
      <point x="459" y="447" type="line"/>
      <point x="470" y="418"/>
      <point x="472" y="384"/>
      <point x="440" y="335" type="curve"/>
      <point x="214" y="138" type="line"/>
      <point x="145" y="64" type="line"/>
      <point x="138" y="91" type="line"/>
      <point x="304" y="64"/>
      <point x="443" y="70"/>
      <point x="564" y="79" type="curve"/>
      <point x="594" y="122"/>
      <point x="610" y="151"/>
      <point x="614" y="194" type="curve"/>
      <point x="652" y="199"/>
      <point x="678" y="202"/>
      <point x="711" y="166" type="curve"/>
      <point x="709" y="97"/>
      <point x="660" y="52"/>
      <point x="603" y="10" type="curve"/>
      <point x="435" y="-1"/>
      <point x="270" y="0"/>
      <point x="132" y="12" type="curve"/>
      <point x="73" y="42"/>
      <point x="51" y="84"/>
      <point x="78" y="128" type="curve"/>
      <point x="293" y="276" type="line"/>
      <point x="408" y="402" type="line"/>
      <point x="246" y="538" type="line"/>
      <point x="116" y="647" type="line"/>
      <point x="118" y="705"/>
      <point x="154" y="741"/>
      <point x="184" y="750" type="curve"/>
    </contour>
  </outline>
</glyph>
<glyph name="minus" format="1">
  <advance width="626"/>
  <unicode hex="2212"/>
  <outline>
    <contour>
      <point x="577" y="367" type="curve"/>
      <point x="330" y="352" type="line"/>
      <point x="81" y="356" type="line"/>
      <point x="60" y="330"/>
      <point x="56" y="305"/>
      <point x="70" y="291" type="curve"/>
      <point x="562" y="298" type="line"/>
      <point x="588" y="327"/>
      <point x="592" y="357"/>
    </contour>
  </outline>
</glyph>
<glyph name="divisionslash" format="1">
  <advance width="341"/>
  <unicode hex="2215"/>
  <outline>
    <contour>
      <point x="235" y="472" type="line"/>
      <point x="-12" y="-46" type="line"/>
      <point x="-5" y="-64"/>
      <point x="11" y="-85"/>
      <point x="58" y="-76" type="curve"/>
      <point x="448" y="854" type="line"/>
      <point x="442" y="876"/>
      <point x="412" y="892"/>
      <point x="371" y="880" type="curve"/>
    </contour>
  </outline>
</glyph>
<glyph name="radical" format="1">
  <advance width="547"/>
  <unicode hex="221A"/>
  <outline>
    <contour>
      <point x="442" y="556" type="line"/>
      <point x="175" y="-178" type="line"/>
      <point x="189" y="-163" type="line"/>
      <point x="151" y="-64"/>
      <point x="114" y="34"/>
      <point x="76" y="133" type="curve"/>
      <point x="50" y="149"/>
      <point x="30" y="133"/>
      <point x="22" y="117" type="curve"/>
      <point x="55" y="21"/>
      <point x="91" y="-97"/>
      <point x="128" y="-189" type="curve"/>
      <point x="153" y="-222"/>
      <point x="198" y="-227"/>
      <point x="247" y="-201" type="curve"/>
      <point x="616" y="896" type="line"/>
      <point x="599" y="911"/>
      <point x="585" y="919"/>
      <point x="515" y="901" type="curve"/>
    </contour>
  </outline>
</glyph>
<glyph name="infinity" format="1">
  <advance width="808"/>
  <unicode hex="221E"/>
  <outline>
    <contour>
      <point x="157" y="466"/>
      <point x="21" y="341"/>
      <point x="18" y="228" type="curve" smooth="yes"/>
      <point x="15" y="125"/>
      <point x="86" y="40"/>
      <point x="171" y="40" type="curve" smooth="yes"/>
      <point x="329" y="40"/>
      <point x="481" y="345"/>
      <point x="666" y="459" type="curve"/>
      <point x="723" y="425"/>
      <point x="744" y="376"/>
      <point x="744" y="322" type="curve" smooth="yes"/>
      <point x="744" y="231"/>
      <point x="639" y="128"/>
      <point x="553" y="97" type="curve"/>
      <point x="492" y="121"/>
      <point x="441" y="192"/>
      <point x="421" y="257" type="curve"/>
      <point x="384" y="225" type="line"/>
      <point x="414" y="142"/>
      <point x="465" y="82"/>
      <point x="540" y="40" type="curve"/>
      <point x="709" y="95"/>
      <point x="799" y="217"/>
      <point x="799" y="325" type="curve" smooth="yes"/>
      <point x="799" y="409"/>
      <point x="727" y="507"/>
      <point x="665" y="507" type="curve" smooth="yes"/>
      <point x="549" y="507"/>
      <point x="314" y="119"/>
      <point x="170" y="82" type="curve"/>
      <point x="103" y="112"/>
      <point x="79" y="159"/>
      <point x="79" y="218" type="curve" smooth="yes"/>
      <point x="79" y="328"/>
      <point x="185" y="422"/>
      <point x="303" y="466" type="curve"/>
      <point x="252" y="456" type="line"/>
      <point x="333" y="413"/>
      <point x="385" y="344"/>
      <point x="422" y="253" type="curve"/>
      <point x="452" y="284" type="line"/>
      <point x="428" y="374"/>
      <point x="376" y="459"/>
      <point x="277" y="500" type="curve"/>
    </contour>
  </outline>
</glyph>
<glyph name="integral" format="1">
  <advance width="480"/>
  <unicode hex="222B"/>
  <outline>
    <contour>
      <point x="359" y="817" type="curve"/>
      <point x="364" y="830"/>
      <point x="383" y="845"/>
      <point x="397" y="843" type="curve"/>
      <point x="428" y="821"/>
      <point x="444" y="797"/>
      <point x="445" y="737" type="curve"/>
      <point x="466" y="724"/>
      <point x="504" y="731"/>
      <point x="530" y="751" type="curve"/>
      <point x="527" y="819"/>
      <point x="474" y="891"/>
      <point x="410" y="903" type="curve"/>
      <point x="343" y="893"/>
      <point x="314" y="864"/>
      <point x="286" y="832" type="curve"/>
      <point x="281" y="584" type="line"/>
      <point x="263" y="423"/>
      <point x="223" y="102"/>
      <point x="169" y="-54" type="curve"/>
      <point x="148" y="-64" type="line"/>
      <point x="118" y="-28"/>
      <point x="101" y="3"/>
      <point x="88" y="63" type="curve"/>
      <point x="52" y="81"/>
      <point x="27" y="52"/>
      <point x="15" y="27" type="curve"/>
      <point x="32" y="-38"/>
      <point x="89" y="-94"/>
      <point x="128" y="-124" type="curve"/>
      <point x="171" y="-127"/>
      <point x="223" y="-107"/>
      <point x="241" y="-87" type="curve"/>
      <point x="307" y="178"/>
      <point x="344" y="541"/>
    </contour>
  </outline>
</glyph>
<glyph name="approxequal" format="1">
  <advance width="600"/>
  <unicode hex="2248"/>
  <outline>
    <contour>
      <point x="378" y="423"/>
      <point x="283" y="491"/>
      <point x="208" y="491" type="curve" smooth="yes"/>
      <point x="160" y="491"/>
      <point x="92" y="447"/>
      <point x="69" y="411" type="curve"/>
      <point x="71" y="377"/>
      <point x="97" y="364"/>
      <point x="130" y="361" type="curve"/>
      <point x="159" y="389"/>
      <point x="195" y="436"/>
      <point x="225" y="436" type="curve" smooth="yes"/>
      <point x="256" y="436"/>
      <point x="371" y="356"/>
      <point x="449" y="356" type="curve" smooth="yes"/>
      <point x="495" y="356"/>
      <point x="568" y="418"/>
      <point x="588" y="451" type="curve"/>
      <point x="585" y="482"/>
      <point x="568" y="496"/>
      <point x="523" y="491" type="curve"/>
      <point x="447" y="409" type="line"/>
      <point x="442" y="409" type="line"/>
    </contour>
    <contour>
      <point x="354" y="266"/>
      <point x="259" y="334"/>
      <point x="184" y="334" type="curve" smooth="yes"/>
      <point x="136" y="334"/>
      <point x="68" y="290"/>
      <point x="45" y="254" type="curve"/>
      <point x="47" y="220"/>
      <point x="73" y="207"/>
      <point x="106" y="204" type="curve"/>
      <point x="135" y="232"/>
      <point x="171" y="279"/>
      <point x="201" y="279" type="curve" smooth="yes"/>
      <point x="232" y="279"/>
      <point x="347" y="199"/>
      <point x="425" y="199" type="curve" smooth="yes"/>
      <point x="471" y="199"/>
      <point x="544" y="261"/>
      <point x="564" y="294" type="curve"/>
      <point x="561" y="325"/>
      <point x="544" y="339"/>
      <point x="499" y="334" type="curve"/>
      <point x="423" y="252" type="line"/>
      <point x="418" y="252" type="line"/>
    </contour>
  </outline>
</glyph>
<glyph name="notequal" format="1">
  <advance width="633"/>
  <unicode hex="2260"/>
  <outline>
    <contour>
      <point x="597" y="475" type="curve"/>
      <point x="351" y="460" type="line"/>
      <point x="101" y="464" type="line"/>
      <point x="81" y="438"/>
      <point x="77" y="413"/>
      <point x="91" y="399" type="curve"/>
      <point x="582" y="406" type="line"/>
      <point x="608" y="435"/>
      <point x="612" y="465"/>
    </contour>
    <contour>
      <point x="566" y="283" type="curve"/>
      <point x="320" y="268" type="line"/>
      <point x="70" y="272" type="line"/>
      <point x="50" y="246"/>
      <point x="45" y="220"/>
      <point x="59" y="206" type="curve"/>
      <point x="551" y="214" type="line"/>
      <point x="577" y="243"/>
      <point x="581" y="273"/>
    </contour>
    <contour>
      <point x="324" y="377" type="line"/>
      <point x="108" y="20" type="line"/>
      <point x="122" y="1"/>
      <point x="146" y="-4"/>
      <point x="177" y="2" type="curve"/>
      <point x="526" y="628" type="line"/>
      <point x="514" y="647"/>
      <point x="496" y="654"/>
      <point x="461" y="650" type="curve"/>
    </contour>
  </outline>
</glyph>
<glyph name="fi" format="1">
  <advance width="483"/>
  <unicode hex="FB01"/>
  <outline>
    <contour>
      <point x="370" y="368" type="line"/>
      <point x="348" y="256"/>
      <point x="324" y="137"/>
      <point x="292" y="31" type="curve"/>
      <point x="310" y="2"/>
      <point x="346" y="-4"/>
      <point x="387" y="0" type="curve"/>
      <point x="402" y="151"/>
      <point x="413" y="274"/>
      <point x="427" y="394" type="curve"/>
      <point x="458" y="499" type="line"/>
      <point x="437" y="522"/>
      <point x="411" y="517"/>
      <point x="367" y="497" type="curve"/>
    </contour>
    <contour>
      <point x="234" y="741"/>
      <point x="260" y="754"/>
      <point x="289" y="761" type="curve"/>
      <point x="332" y="741"/>
      <point x="346" y="692"/>
      <point x="342" y="620" type="curve"/>
      <point x="393" y="604"/>
      <point x="424" y="611"/>
      <point x="436" y="634" type="curve"/>
      <point x="436" y="706"/>
      <point x="378" y="806"/>
      <point x="293" y="814" type="curve"/>
      <point x="221" y="806"/>
      <point x="179" y="769"/>
      <point x="132" y="714" type="curve"/>
      <point x="134" y="467" type="line"/>
      <point x="108" y="292"/>
      <point x="82" y="168"/>
      <point x="37" y="24" type="curve"/>
      <point x="52" y="2"/>
      <point x="77" y="-4"/>
      <point x="122" y="0" type="curve"/>
      <point x="158" y="207"/>
      <point x="208" y="573"/>
      <point x="205" y="718" type="curve"/>
    </contour>
    <contour>
      <point x="150" y="460" type="line"/>
      <point x="1" y="459" type="line"/>
      <point x="-17" y="437"/>
      <point x="-18" y="410"/>
      <point x="-1" y="389" type="curve"/>
      <point x="174" y="422" type="line"/>
      <point x="393" y="440" type="line"/>
      <point x="413" y="469"/>
      <point x="412" y="492"/>
      <point x="395" y="503" type="curve"/>
    </contour>
  </outline>
</glyph>
<glyph name="Delta.math" format="1">
  <advance width="673"/>
  <outline>
    <contour>
      <point x="73" y="59" type="line"/>
      <point x="379" y="642" type="line"/>
      <point x="528" y="25" type="line"/>
      <point x="561" y="70" type="line"/>
      <point x="203" y="47" type="line"/>
    </contour>
    <contour>
      <point x="600" y="61" type="curve"/>
      <point x="432" y="698" type="line"/>
      <point x="417" y="710"/>
      <point x="390" y="713"/>
      <point x="361" y="706" type="curve"/>
      <point x="7" y="61" type="line"/>
      <point x="3" y="39"/>
      <point x="19" y="14"/>
      <point x="45" y="0" type="curve"/>
      <point x="560" y="2" type="line"/>
      <point x="582" y="15"/>
      <point x="594" y="35"/>
    </contour>
  </outline>
</glyph>
<glyph name="Omega.math" format="1">
  <advance width="832"/>
  <outline>
    <contour>
      <point x="309" y="75" type="curve"/>
      <point x="267" y="122"/>
      <point x="176" y="211"/>
      <point x="198" y="332" type="curve" smooth="yes"/>
      <point x="221" y="461"/>
      <point x="358" y="606"/>
      <point x="498" y="639" type="curve"/>
      <point x="625" y="582"/>
      <point x="660" y="513"/>
      <point x="669" y="377" type="curve"/>
      <point x="649" y="274"/>
      <point x="585" y="174"/>
      <point x="470" y="60" type="curve"/>
      <point x="467" y="45"/>
      <point x="473" y="30"/>
      <point x="492" y="6" type="curve"/>
      <point x="573" y="-4"/>
      <point x="655" y="-2"/>
      <point x="742" y="25" type="curve"/>
      <point x="759" y="62"/>
      <point x="762" y="83"/>
      <point x="737" y="92" type="curve"/>
      <point x="671" y="67"/>
      <point x="599" y="58"/>
      <point x="505" y="64" type="curve"/>
      <point x="522" y="40" type="line"/>
      <point x="623" y="134"/>
      <point x="705" y="265"/>
      <point x="726" y="377" type="curve" smooth="yes"/>
      <point x="749" y="500"/>
      <point x="615" y="684"/>
      <point x="508" y="684" type="curve" smooth="yes"/>
      <point x="357" y="684"/>
      <point x="173" y="512"/>
      <point x="132" y="327" type="curve" smooth="yes"/>
      <point x="114" y="245"/>
      <point x="176" y="121"/>
      <point x="249" y="44" type="curve"/>
      <point x="263" y="69" type="line"/>
      <point x="165" y="54"/>
      <point x="114" y="60"/>
      <point x="33" y="81" type="curve"/>
      <point x="10" y="66"/>
      <point x="2" y="43"/>
      <point x="14" y="10" type="curve"/>
      <point x="118" y="-14"/>
      <point x="198" y="-11"/>
      <point x="286" y="10" type="curve"/>
      <point x="304" y="22"/>
      <point x="314" y="41"/>
    </contour>
  </outline>
</glyph>
<glyph name="doubledanda" format="1">
  <advance width="546"/>
  <outline>
    <contour>
      <point x="432" y="429" type="line"/>
      <point x="408" y="305"/>
      <point x="382" y="189"/>
      <point x="339" y="29" type="curve"/>
      <point x="355" y="2"/>
      <point x="389" y="-4"/>
      <point x="427" y="1" type="curve"/>
      <point x="443" y="143"/>
      <point x="462" y="277"/>
      <point x="481" y="417" type="curve"/>
      <point x="548" y="708" type="line"/>
      <point x="527" y="731"/>
      <point x="501" y="723"/>
      <point x="459" y="704" type="curve"/>
    </contour>
    <contour>
      <point x="239" y="429" type="line"/>
      <point x="215" y="305"/>
      <point x="189" y="189"/>
      <point x="146" y="29" type="curve"/>
      <point x="162" y="2"/>
      <point x="196" y="-4"/>
      <point x="234" y="1" type="curve"/>
      <point x="250" y="143"/>
      <point x="269" y="277"/>
      <point x="288" y="417" type="curve"/>
      <point x="355" y="708" type="line"/>
      <point x="334" y="731"/>
      <point x="308" y="723"/>
      <point x="266" y="704" type="curve"/>
    </contour>
  </outline>
</glyph>
<glyph name="dvAI" format="1">
  <advance width="456"/>
  <outline>
    <contour>
      <point x="304" y="0" type="move" name="blwm"/>
    </contour>
    <contour>
      <point x="370" y="649" type="move" name="abvm"/>
    </contour>
    <contour>
      <point x="584" y="573" type="line"/>
      <point x="597" y="581"/>
      <point x="605" y="595"/>
      <point x="609" y="608" type="curve"/>
      <point x="597" y="619" type="line"/>
      <point x="34" y="619" type="line"/>
      <point x="21" y="611"/>
      <point x="13" y="597"/>
      <point x="9" y="584" type="curve"/>
      <point x="21" y="573" type="line"/>
    </contour>
    <contour>
      <point x="118" y="229" type="line"/>
      <point x="177" y="342"/>
      <point x="208" y="490"/>
      <point x="235" y="606" type="curve"/>
      <point x="140" y="595" type="line"/>
      <point x="140" y="480" type="line"/>
      <point x="122" y="396"/>
      <point x="73" y="282"/>
      <point x="39" y="214" type="curve"/>
      <point x="46" y="185"/>
      <point x="80" y="164"/>
      <point x="117" y="157" type="curve"/>
      <point x="278" y="254" type="line"/>
      <point x="286" y="248" type="line"/>
      <point x="289" y="180" type="line"/>
      <point x="271" y="90"/>
      <point x="245" y="11"/>
      <point x="174" y="-67" type="curve"/>
      <point x="179" y="-85"/>
      <point x="189" y="-98"/>
      <point x="226" y="-104" type="curve"/>
      <point x="311" y="-22"/>
      <point x="356" y="145"/>
      <point x="347" y="260" type="curve"/>
      <point x="333" y="291"/>
      <point x="301" y="307"/>
      <point x="267" y="305" type="curve"/>
      <point x="127" y="223" type="line"/>
    </contour>
    <contour>
      <point x="386" y="338" type="curve"/>
      <point x="447" y="417"/>
      <point x="467" y="540"/>
      <point x="459" y="601" type="curve"/>
      <point x="382" y="595" type="line"/>
      <point x="389" y="500" type="line"/>
      <point x="384" y="450"/>
      <point x="363" y="409"/>
      <point x="335" y="370" type="curve"/>
      <point x="335" y="352"/>
      <point x="357" y="339"/>
    </contour>
    <contour>
      <point x="303" y="836" type="line"/>
      <point x="349" y="781"/>
      <point x="374" y="736"/>
      <point x="412" y="654" type="curve"/>
      <point x="431" y="654"/>
      <point x="446" y="662"/>
      <point x="447" y="672" type="curve"/>
      <point x="412" y="757"/>
      <point x="336" y="915"/>
      <point x="280" y="915" type="curve" smooth="yes"/>
      <point x="248" y="915"/>
      <point x="215" y="897"/>
      <point x="197" y="872" type="curve"/>
      <point x="198" y="837"/>
      <point x="223" y="818"/>
      <point x="270" y="806" type="curve"/>
    </contour>
  </outline>
</glyph>
<glyph name="dvAU" format="1">
  <advance width="833"/>
  <outline>
    <contour>
      <point x="717" y="0" type="move" name="blwm"/>
    </contour>
    <contour>
      <point x="783" y="649" type="move" name="abvm"/>
    </contour>
    <contour>
      <point x="682" y="619" type="line"/>
      <point x="666" y="641"/>
      <point x="641" y="649"/>
      <point x="595" y="649" type="curve"/>
      <point x="539" y="410" type="line"/>
      <point x="558" y="390" type="line"/>
      <point x="524" y="348" type="line"/>
      <point x="448" y="23" type="line"/>
      <point x="462" y="6"/>
      <point x="486" y="-5"/>
      <point x="529" y="0" type="curve"/>
      <point x="600" y="441" type="line"/>
    </contour>
    <contour>
      <point x="768" y="573" type="line"/>
      <point x="781" y="581"/>
      <point x="789" y="595"/>
      <point x="793" y="608" type="curve"/>
      <point x="781" y="619" type="line"/>
      <point x="481" y="619" type="line"/>
      <point x="468" y="611"/>
      <point x="460" y="597"/>
      <point x="456" y="584" type="curve"/>
      <point x="468" y="573" type="line"/>
    </contour>
    <contour>
      <point x="110" y="548" type="curve"/>
      <point x="109" y="528"/>
      <point x="131" y="507"/>
      <point x="157" y="500" type="curve"/>
      <point x="206" y="553"/>
      <point x="272" y="580"/>
      <point x="324" y="569" type="curve"/>
      <point x="327" y="565" type="line"/>
      <point x="320" y="483"/>
      <point x="269" y="436"/>
      <point x="192" y="402" type="curve" smooth="yes"/>
      <point x="178" y="396"/>
      <point x="163" y="390"/>
      <point x="148" y="385" type="curve"/>
      <point x="139" y="356"/>
      <point x="152" y="327"/>
      <point x="174" y="316" type="curve"/>
      <point x="185" y="316"/>
      <point x="195" y="315"/>
      <point x="205" y="314" type="curve" smooth="yes"/>
      <point x="215" y="313"/>
      <point x="224" y="311"/>
      <point x="232" y="308" type="curve" smooth="yes"/>
      <point x="285" y="291"/>
      <point x="306" y="254"/>
      <point x="306" y="230" type="curve" smooth="yes"/>
      <point x="306" y="159"/>
      <point x="163" y="86"/>
      <point x="116" y="86" type="curve" smooth="yes"/>
      <point x="97" y="86"/>
      <point x="72" y="100"/>
      <point x="72" y="116" type="curve"/>
      <point x="72" y="135"/>
      <point x="190" y="198"/>
      <point x="328" y="275" type="curve" smooth="yes"/>
      <point x="409" y="319"/>
      <point x="497" y="369"/>
      <point x="573" y="416" type="curve"/>
      <point x="548" y="446" type="line"/>
      <point x="465" y="397"/>
      <point x="375" y="351"/>
      <point x="293" y="310" type="curve" smooth="yes"/>
      <point x="132" y="230"/>
      <point x="-1" y="165"/>
      <point x="-1" y="117" type="curve" smooth="yes"/>
      <point x="-1" y="83"/>
      <point x="56" y="37"/>
      <point x="108" y="33" type="curve"/>
      <point x="194" y="33"/>
      <point x="376" y="136"/>
      <point x="376" y="244" type="curve" smooth="yes"/>
      <point x="376" y="282"/>
      <point x="327" y="342"/>
      <point x="241" y="361" type="curve"/>
      <point x="239" y="365" type="line"/>
      <point x="330" y="403"/>
      <point x="381" y="462"/>
      <point x="396" y="548" type="curve"/>
      <point x="390" y="591"/>
      <point x="364" y="624"/>
      <point x="309" y="634" type="curve"/>
      <point x="241" y="634"/>
      <point x="169" y="606"/>
    </contour>
    <contour>
      <point x="875" y="619" type="line"/>
      <point x="859" y="641"/>
      <point x="834" y="649"/>
      <point x="788" y="649" type="curve"/>
      <point x="641" y="23" type="line"/>
      <point x="655" y="6"/>
      <point x="679" y="-5"/>
      <point x="722" y="0" type="curve"/>
      <point x="793" y="441" type="line"/>
    </contour>
    <contour>
      <point x="961" y="573" type="line"/>
      <point x="974" y="581"/>
      <point x="982" y="595"/>
      <point x="986" y="608" type="curve"/>
      <point x="974" y="619" type="line"/>
      <point x="674" y="619" type="line"/>
      <point x="661" y="611"/>
      <point x="653" y="597"/>
      <point x="649" y="584" type="curve"/>
      <point x="661" y="573" type="line"/>
    </contour>
    <contour>
      <point x="797" y="744" type="curve"/>
      <point x="794" y="741" type="line"/>
      <point x="761" y="778"/>
      <point x="722" y="807"/>
      <point x="696" y="807" type="curve" smooth="yes"/>
      <point x="664" y="807"/>
      <point x="641" y="793"/>
      <point x="624" y="767" type="curve"/>
      <point x="627" y="736"/>
      <point x="645" y="718"/>
      <point x="695" y="708" type="curve"/>
      <point x="725" y="744" type="line"/>
      <point x="764" y="732"/>
      <point x="781" y="714"/>
      <point x="808" y="684" type="curve"/>
      <point x="829" y="684"/>
      <point x="843" y="691"/>
      <point x="846" y="709" type="curve"/>
      <point x="823" y="780"/>
      <point x="743" y="945"/>
      <point x="677" y="945" type="curve" smooth="yes"/>
      <point x="641" y="945"/>
      <point x="608" y="927"/>
      <point x="590" y="902" type="curve"/>
      <point x="591" y="867"/>
      <point x="616" y="848"/>
      <point x="663" y="836" type="curve"/>
      <point x="696" y="866" type="line"/>
      <point x="743" y="842"/>
      <point x="775" y="785"/>
    </contour>
  </outline>
</glyph>
<glyph name="dvAbbreviationsign" format="1">
  <advance width="284"/>
  <outline>
    <contour>
      <point x="170" y="407" type="curve" smooth="yes"/>
      <point x="122" y="407"/>
      <point x="52" y="335"/>
      <point x="52" y="283" type="curve" smooth="yes"/>
      <point x="52" y="233"/>
      <point x="99" y="195"/>
      <point x="126" y="195" type="curve"/>
      <point x="174" y="195"/>
      <point x="249" y="261"/>
      <point x="248" y="308" type="curve" smooth="yes"/>
      <point x="247" y="343"/>
      <point x="202" y="407"/>
    </contour>
    <contour>
      <point x="163" y="382" type="curve"/>
      <point x="183" y="362"/>
      <point x="198" y="332"/>
      <point x="202" y="306" type="curve"/>
      <point x="194" y="263"/>
      <point x="174" y="236"/>
      <point x="132" y="216" type="curve"/>
      <point x="111" y="236"/>
      <point x="101" y="257"/>
      <point x="99" y="291" type="curve"/>
      <point x="106" y="328"/>
      <point x="123" y="359"/>
    </contour>
  </outline>
</glyph>
<glyph name="dvAnusvara.amI" format="1">
  <advance width="0"/>
  <outline>
    <contour>
      <point x="-23" y="704"/>
      <point x="-4" y="684"/>
      <point x="21" y="684" type="curve" smooth="yes"/>
      <point x="45" y="684"/>
      <point x="64" y="704"/>
      <point x="64" y="727" type="curve" smooth="yes"/>
      <point x="64" y="752"/>
      <point x="45" y="771"/>
      <point x="21" y="771" type="curve" smooth="yes"/>
      <point x="-4" y="771"/>
      <point x="-23" y="752"/>
      <point x="-23" y="727" type="curve" smooth="yes"/>
    </contour>
    <contour>
      <point x="-85" y="649" type="move" name="_abvm.i"/>
    </contour>
  </outline>
</glyph>
<glyph name="dvAnusvara" format="1">
  <advance width="0"/>
  <outline>
    <contour>
      <point x="-45" y="649" type="move" name="_abvm"/>
    </contour>
    <contour>
      <point x="24" y="704" type="curve" smooth="yes"/>
      <point x="48" y="704"/>
      <point x="67" y="724"/>
      <point x="67" y="747" type="curve" smooth="yes"/>
      <point x="67" y="772"/>
      <point x="48" y="791"/>
      <point x="24" y="791" type="curve" smooth="yes"/>
      <point x="-1" y="791"/>
      <point x="-20" y="772"/>
      <point x="-20" y="747" type="curve" smooth="yes"/>
      <point x="-20" y="724"/>
      <point x="-1" y="704"/>
    </contour>
  </outline>
</glyph>
<glyph name="dvAvagraha" format="1">
  <advance width="532"/>
  <outline>
    <contour>
      <point x="267" y="540" type="curve"/>
      <point x="388" y="561"/>
      <point x="516" y="568"/>
      <point x="648" y="562" type="curve"/>
      <point x="676" y="577"/>
      <point x="680" y="610"/>
      <point x="663" y="619" type="curve"/>
      <point x="528" y="624"/>
      <point x="365" y="615"/>
      <point x="243" y="587" type="curve"/>
      <point x="177" y="550"/>
      <point x="122" y="448"/>
      <point x="121" y="412" type="curve" smooth="yes"/>
      <point x="119" y="336"/>
      <point x="402" y="288"/>
      <point x="400" y="233" type="curve" smooth="yes"/>
      <point x="399" y="173"/>
      <point x="309" y="72"/>
      <point x="221" y="47" type="curve"/>
      <point x="162" y="61"/>
      <point x="96" y="101"/>
      <point x="53" y="145" type="curve"/>
      <point x="34" y="145"/>
      <point x="21" y="129"/>
      <point x="24" y="107" type="curve"/>
      <point x="55" y="68"/>
      <point x="145" y="0"/>
      <point x="217" y="0" type="curve" smooth="yes"/>
      <point x="300" y="0"/>
      <point x="465" y="133"/>
      <point x="468" y="238" type="curve" smooth="yes"/>
      <point x="470" y="320"/>
      <point x="292" y="345"/>
      <point x="189" y="415" type="curve"/>
      <point x="198" y="459"/>
      <point x="222" y="507"/>
    </contour>
  </outline>
</glyph>
<glyph name="dvB" format="1">
  <advance width="211"/>
  <outline>
    <contour>
      <point x="385" y="573" type="line"/>
      <point x="398" y="581"/>
      <point x="406" y="595"/>
      <point x="410" y="608" type="curve"/>
      <point x="398" y="619" type="line"/>
      <point x="34" y="619" type="line"/>
      <point x="21" y="611"/>
      <point x="13" y="597"/>
      <point x="9" y="584" type="curve"/>
      <point x="21" y="573" type="line"/>
    </contour>
    <contour>
      <point x="240" y="234" type="curve"/>
      <point x="271" y="265" type="line"/>
      <point x="224" y="314"/>
      <point x="179" y="370"/>
      <point x="138" y="428" type="curve"/>
      <point x="108" y="395" type="line"/>
      <point x="145" y="340"/>
      <point x="197" y="277"/>
    </contour>
    <contour>
      <point x="281" y="316" type="line"/>
      <point x="228" y="261"/>
      <point x="174" y="206"/>
      <point x="121" y="151" type="curve"/>
      <point x="100" y="161"/>
      <point x="86" y="186"/>
      <point x="86" y="228" type="curve"/>
      <point x="86" y="339"/>
      <point x="152" y="453"/>
      <point x="217" y="453" type="curve" smooth="yes"/>
      <point x="251" y="453"/>
      <point x="275" y="410"/>
      <point x="293" y="362" type="curve"/>
      <point x="321" y="383" type="line"/>
      <point x="299" y="437"/>
      <point x="274" y="504"/>
      <point x="213" y="504" type="curve" smooth="yes"/>
      <point x="98" y="504"/>
      <point x="12" y="352"/>
      <point x="12" y="228" type="curve"/>
      <point x="12" y="147"/>
      <point x="62" y="107"/>
      <point x="139" y="102" type="curve"/>
      <point x="196" y="168"/>
      <point x="252" y="234"/>
      <point x="309" y="300" type="curve"/>
    </contour>
  </outline>
</glyph>
<glyph name="dvBA" format="1">
  <advance width="404"/>
  <outline>
    <contour>
      <point x="121" y="151" type="curve"/>
      <point x="100" y="161"/>
      <point x="86" y="190"/>
      <point x="86" y="228" type="curve" smooth="yes"/>
      <point x="86" y="339"/>
      <point x="152" y="453"/>
      <point x="217" y="453" type="curve" smooth="yes"/>
      <point x="251" y="453"/>
      <point x="274" y="409"/>
      <point x="292" y="364" type="curve"/>
      <point x="281" y="316" type="line"/>
      <point x="228" y="261"/>
      <point x="174" y="206"/>
    </contour>
    <contour>
      <point x="532" y="573" type="line"/>
      <point x="545" y="581"/>
      <point x="553" y="595"/>
      <point x="557" y="608" type="curve"/>
      <point x="545" y="619" type="line"/>
      <point x="34" y="619" type="line"/>
      <point x="21" y="611"/>
      <point x="13" y="597"/>
      <point x="9" y="584" type="curve"/>
      <point x="21" y="573" type="line"/>
    </contour>
    <contour>
      <point x="304" y="420" type="line"/>
      <point x="287" y="464"/>
      <point x="259" y="504"/>
      <point x="213" y="504" type="curve" smooth="yes"/>
      <point x="98" y="504"/>
      <point x="12" y="352"/>
      <point x="12" y="228" type="curve" smooth="yes"/>
      <point x="12" y="147"/>
      <point x="62" y="107"/>
      <point x="139" y="102" type="curve"/>
      <point x="186" y="157"/>
      <point x="233" y="211"/>
      <point x="280" y="266" type="curve"/>
      <point x="289" y="259" type="line"/>
      <point x="253" y="196" type="line"/>
      <point x="212" y="23" type="line"/>
      <point x="226" y="6"/>
      <point x="250" y="-5"/>
      <point x="293" y="0" type="curve"/>
      <point x="364" y="441" type="line"/>
      <point x="446" y="619" type="line"/>
      <point x="430" y="641"/>
      <point x="405" y="649"/>
      <point x="359" y="649" type="curve"/>
      <point x="306" y="421" type="line"/>
    </contour>
    <contour>
      <point x="240" y="234" type="curve"/>
      <point x="271" y="265" type="line"/>
      <point x="224" y="314"/>
      <point x="179" y="370"/>
      <point x="138" y="428" type="curve"/>
      <point x="108" y="393" type="line"/>
      <point x="145" y="338"/>
      <point x="197" y="277"/>
    </contour>
  </outline>
</glyph>
<glyph name="dvBH_R" format="1">
  <advance width="327"/>
  <outline>
    <contour>
      <point x="220" y="447" type="line"/>
      <point x="206" y="378"/>
      <point x="182" y="294"/>
      <point x="157" y="225" type="curve"/>
      <point x="148" y="220" type="line"/>
      <point x="112" y="233"/>
      <point x="99" y="248"/>
      <point x="79" y="281" type="curve"/>
      <point x="51" y="240" type="line"/>
      <point x="201" y="328"/>
      <point x="348" y="425"/>
      <point x="479" y="515" type="curve"/>
      <point x="450" y="543" type="line"/>
      <point x="324" y="454"/>
      <point x="186" y="368"/>
      <point x="54" y="294" type="curve"/>
      <point x="38" y="283"/>
      <point x="31" y="261"/>
      <point x="30" y="242" type="curve"/>
      <point x="59" y="189"/>
      <point x="113" y="166"/>
      <point x="168" y="161" type="curve"/>
      <point x="193" y="169"/>
      <point x="216" y="180"/>
      <point x="230" y="194" type="curve"/>
      <point x="268" y="359"/>
      <point x="291" y="487"/>
      <point x="330" y="660" type="curve"/>
      <point x="319" y="676"/>
      <point x="279" y="690"/>
      <point x="256" y="688" type="curve"/>
      <point x="213" y="643"/>
      <point x="126" y="574"/>
      <point x="80" y="546" type="curve"/>
      <point x="72" y="538"/>
      <point x="61" y="517"/>
      <point x="61" y="505" type="curve" smooth="yes"/>
      <point x="61" y="484"/>
      <point x="108" y="447"/>
      <point x="149" y="447" type="curve"/>
      <point x="250" y="491" type="line"/>
      <point x="237" y="516" type="line"/>
      <point x="146" y="491" type="line"/>
      <point x="132" y="494"/>
      <point x="123" y="503"/>
      <point x="119" y="509" type="curve"/>
      <point x="163" y="545"/>
      <point x="207" y="581"/>
      <point x="251" y="617" type="curve"/>
      <point x="254" y="615" type="line"/>
      <point x="246" y="572"/>
      <point x="235" y="525"/>
      <point x="225" y="483" type="curve"/>
      <point x="233" y="474" type="line"/>
    </contour>
    <contour>
      <point x="379" y="250" type="line"/>
      <point x="296" y="160"/>
      <point x="175" y="78"/>
      <point x="69" y="36" type="curve"/>
      <point x="65" y="16"/>
      <point x="70" y="1"/>
      <point x="103" y="-20" type="curve"/>
      <point x="209" y="37"/>
      <point x="322" y="116"/>
      <point x="408" y="224" type="curve"/>
    </contour>
  </outline>
</glyph>
